<svg width="98" height="209" viewBox="0 0 98 209" fill="none" xmlns="http://www.w3.org/2000/svg">
<path d="M6.58789 201.399L50.1192 201.635L56.7156 151.907L29.3894 141.688L6.58789 201.399Z" fill="#F18463"/>
<path d="M25.2767 150.656C25.2767 150.656 24.8636 153.306 38.6411 157.602" stroke="#B55D2D" stroke-width="0.635493" stroke-miterlimit="10"/>
<path d="M47.0752 59.5597C47.0752 59.5597 65.1613 35.6525 73.8358 30.0347C82.5103 24.417 81.538 37.1141 75.2148 46.9071C68.898 56.7 48.7529 85.3734 48.7529 85.3734L47.0752 59.5661V59.5597Z" fill="#F18463"/>
<path d="M58.2849 62.3929C58.2849 62.3929 79.1799 40.8941 88.4772 36.3821C97.7745 31.8765 95.2516 44.3512 87.7718 53.2926C80.2984 62.234 56.7725 88.2066 56.7725 88.2066L58.2849 62.3865V62.3929Z" fill="#F18463"/>
<path d="M61.8113 80.6878C61.8113 80.6878 82.7063 59.1891 92.0036 54.6771C101.301 50.1714 98.7779 62.6461 91.2982 71.5875C83.8248 80.5289 60.2988 106.502 60.2988 106.502L61.8113 80.6814V80.6878Z" fill="#F18463"/>
<path d="M59.93 103.585C59.93 103.585 81.2381 82.4934 90.6243 78.1657C100.011 73.8379 97.2398 86.2682 89.5885 95.0571C81.9372 103.852 57.9219 129.367 57.9219 129.367L59.93 103.579V103.585Z" fill="#F18463"/>
<path d="M40.4517 157.272C40.4517 157.272 61.0035 163.494 71.5972 140.775C82.1909 118.056 77.4882 78.1216 74.3743 78.1279C71.2604 78.1406 40.0641 84.61 36.016 115.501C31.9742 146.386 40.4517 157.272 40.4517 157.272Z" fill="#F18463"/>
<path d="M52.577 125.746L65.5219 123.064C66.1638 122.93 66.5769 122.301 66.4434 121.659C66.31 121.018 65.6808 120.604 65.039 120.738L52.094 123.42C51.4521 123.553 51.0391 124.182 51.1725 124.824C51.306 125.466 51.9351 125.879 52.577 125.746Z" fill="#99908E"/>
<path d="M33.38 9.69641C33.5833 10.6751 34.5429 11.3042 35.5216 11.1008C36.5003 10.8975 37.1294 9.93789 36.926 8.95923C36.7227 7.98057 35.7631 7.35143 34.7844 7.55479C33.8058 7.75815 33.1766 8.71775 33.38 9.69641Z" fill="#99908E"/>
<path d="M28.2069 86.3706L73.5069 77.0389C76.1194 76.5007 77.801 73.9466 77.2628 71.334L68.1581 27.1357C67.6199 24.5232 65.0657 22.8416 62.4532 23.3797L17.1532 32.7115C14.5407 33.2496 12.859 35.8038 13.3972 38.4163L22.502 82.6147C23.0402 85.2272 25.5943 86.9088 28.2069 86.3706Z" fill="white"/>
<path d="M13.2273 37.6149C12.7825 35.4479 14.1742 33.3253 16.3412 32.8805L63.2533 23.2146C65.4204 22.7698 67.5429 24.1615 67.9878 26.3286L76.1475 65.8181L21.3871 77.0981L13.2273 37.6086V37.6149Z" fill="#E49CFF"/>
<path d="M27.5779 103.573C27.1331 101.406 28.5248 99.2834 30.6918 98.8385L77.6039 89.1726C79.771 88.7278 81.8935 90.1195 82.3383 92.2866L86.7677 113.08L32.0073 124.423L27.5716 103.567L27.5779 103.573Z" fill="#FFDE9E"/>
<path d="M69.425 85.874L27.4062 94.7201" stroke="#FFDE9E" stroke-width="2.54197" stroke-miterlimit="10" stroke-linecap="round"/>
<path d="M66.9886 7.03881L4.88867 19.6055L26.3982 125.898L88.4981 113.331L66.9886 7.03881Z" fill="white"/>
<path d="M62.93 0.106978L5.96442 11.6348C3.289 12.175 1.5541 14.7869 2.10063 17.4623L24.8131 129.716C25.3533 132.391 27.9652 134.126 30.6406 133.58L87.6062 122.045C90.2816 121.505 92.0165 118.893 91.47 116.218L68.7575 3.96442C68.2173 1.289 65.6054 -0.445897 62.93 0.100627V0.106978ZM88.5086 113.326L26.4082 125.896L4.90951 19.5976L67.0099 7.0275L88.5023 113.32L88.5086 113.326Z" fill="#2B2B2B"/>
<path d="M65.1867 123.615L52.229 126.239C51.5872 126.373 50.958 125.953 50.8246 125.312C50.6911 124.67 51.1106 124.041 51.7524 123.907L64.7101 121.283C65.3519 121.149 65.9811 121.569 66.1145 122.21C66.248 122.852 65.8286 123.481 65.1867 123.615Z" fill="#99908E"/>
<path d="M37.1988 9.36605C37.3958 10.3447 36.7667 11.3043 35.7817 11.5013C34.803 11.6983 33.8434 11.0628 33.6464 10.0842C33.4494 9.1055 34.0786 8.14591 35.0636 7.94891C36.0486 7.7519 37.0018 8.38739 37.1988 9.36605Z" fill="#99908E"/>
<path d="M67.0105 7.0267L4.89746 19.5283L5.58837 22.961L67.7014 10.4594L67.0105 7.0267Z" fill="#FFDE9E"/>
<path d="M60.2345 18.0213L14.9151 27.2581C12.3014 27.7908 10.6145 30.3415 11.1472 32.9551L22.7027 89.6511C23.2354 92.2648 25.7861 93.9517 28.3997 93.419L73.7192 84.1822C76.3328 83.6495 78.0198 81.0989 77.4871 78.4852L65.9315 21.7892C65.3988 19.1755 62.8482 17.4886 60.2345 18.0213Z" fill="#FFDE9E"/>
<path d="M25.1504 98.9331L78.4365 88.2441" stroke="#FFDE9E" stroke-width="2.54197" stroke-miterlimit="10" stroke-linecap="round"/>
<path d="M26.0459 104.749L79.332 94.0596" stroke="#FFDE9E" stroke-width="2.54197" stroke-miterlimit="10" stroke-linecap="round"/>
<path d="M26.9414 110.569L51.9099 105.6" stroke="#FFDE9E" stroke-width="2.54197" stroke-miterlimit="10" stroke-linecap="round"/>
<path d="M50.1067 45.7616C50.2529 45.7362 50.3991 45.7171 50.5452 45.6854C53.6274 45.0499 56.7032 44.4144 59.7789 43.7852C60.6305 43.6073 61.4884 43.4421 62.34 43.2514C62.5433 43.2069 62.6641 43.2324 62.7912 43.4166C63.6173 44.605 64.4498 45.7807 65.2887 46.9563C65.473 47.2169 65.492 47.5346 65.5556 47.827C65.7971 48.9391 66.0004 50.0575 66.2419 51.1697C66.3055 51.4556 66.2292 51.5446 65.9559 51.5891C65.5746 51.6463 65.1997 51.748 64.8184 51.8179C64.6341 51.8496 64.5769 51.9259 64.596 52.1165C64.7104 53.1905 64.8121 54.2645 64.9137 55.3449C65.1997 58.2427 65.4857 61.1342 65.7844 64.032C65.8034 64.2354 65.7526 64.3053 65.5556 64.3498C61.2469 65.2331 56.9447 66.1165 52.636 67.0062C52.3691 67.0634 52.1022 67.1205 51.8353 67.1714C44.2856 68.7283 36.7296 70.2789 29.18 71.8486C28.8622 71.9122 28.7605 71.8486 28.6652 71.5436C28.3856 70.6475 28.0742 69.7578 27.7946 68.8554C27.3561 67.4319 26.8985 66.0148 26.4664 64.5913C26.0216 63.1423 25.5449 61.7061 25.0937 60.2636C25.0302 60.0539 24.9285 60.0348 24.7442 60.0793C24.3312 60.1746 23.9181 60.2445 23.505 60.3398C23.3271 60.378 23.2635 60.3335 23.2318 60.1555C22.9648 58.6685 22.5581 57.2068 22.3548 55.7071C22.3293 55.5355 22.4628 55.4338 22.4819 55.275C22.609 54.0739 22.7806 52.8855 22.914 51.6844C22.9394 51.4302 23.0475 51.3476 23.2826 51.3031C27.3434 50.4706 31.4042 49.6381 35.465 48.7993C35.6112 48.7675 35.751 48.7294 35.8971 48.6976C36.7106 48.5324 37.524 48.3608 38.3374 48.1956C41.4513 47.5537 44.5589 46.9182 47.6728 46.2764C48.4799 46.1111 49.2933 45.9396 50.1004 45.7743L50.1067 45.7616ZM44.7051 55.7833C41.9851 56.3426 39.2652 56.9018 36.5453 57.4674C36.2911 57.5182 36.1895 57.4801 36.1323 57.2068C35.9162 56.0693 35.662 54.9318 35.4396 53.7943C35.3824 53.5083 35.2807 53.4574 35.0074 53.5146C32.904 53.9595 30.7941 54.3916 28.6843 54.8174C28.3983 54.8746 28.3157 54.9572 28.3856 55.2559C28.6398 56.3871 28.8559 57.5309 29.1037 58.6621C29.1609 58.91 29.1037 58.9989 28.8495 59.0498C27.712 59.2722 26.5744 59.5137 25.4369 59.7488C25.3098 59.7742 25.1065 59.7425 25.1509 59.9839C25.1954 60.2254 25.3734 60.1238 25.5005 60.0983C26.638 59.8696 27.7755 59.6408 28.9131 59.3929C29.1545 59.3421 29.2562 59.3802 29.3007 59.6408C29.4215 60.3144 29.5803 60.9753 29.7011 61.6489C29.7392 61.865 29.8091 61.9286 30.0379 61.8841C32.1986 61.4329 34.3656 60.9817 36.5326 60.5495C36.7805 60.4987 36.8122 60.397 36.7614 60.1746C36.6152 59.5327 36.5008 58.8782 36.3547 58.2363C36.2911 57.9567 36.3547 57.8614 36.6407 57.8042C38.115 57.5119 39.583 57.2005 41.0573 56.9018C44.9974 56.0884 48.9374 55.2813 52.8711 54.4615C53.1444 54.4043 53.2524 54.4552 53.3033 54.7411C53.4177 55.402 53.5765 56.0566 53.6973 56.7175C53.7354 56.9336 53.818 56.9971 54.0405 56.9463C54.5488 56.8255 55.0636 56.7239 55.5783 56.6285C57.2116 56.3235 58.8194 55.8977 60.4653 55.669C60.6686 55.6435 60.8212 55.5418 60.7513 55.2559C60.5987 54.6013 60.4844 53.9404 60.3382 53.2859C60.281 53.038 60.3128 52.9046 60.5987 52.8791C60.8212 52.8601 61.0436 52.7902 61.266 52.7457C62.2383 52.5487 63.2043 52.3453 64.1766 52.1483C64.3481 52.1165 64.507 52.0848 64.3863 51.8496C64.2973 51.6717 64.1639 51.7861 64.0622 51.8052C62.8865 52.0339 61.7045 52.2691 60.5288 52.5169C60.2683 52.5741 60.173 52.5169 60.1158 52.25C59.8933 51.1125 59.6455 49.9749 59.4231 48.8374C59.3722 48.5896 59.3087 48.5006 59.0291 48.5578C56.8938 49.009 54.7522 49.4538 52.6106 49.8796C52.3246 49.9368 52.3056 50.0448 52.3564 50.2927C52.5979 51.4175 52.8139 52.5487 53.0618 53.6671C53.1317 53.9785 53.0491 54.0739 52.744 54.1311C50.0559 54.6712 47.3678 55.2305 44.6796 55.7833H44.7051Z" fill="#635BFF"/>
<path d="M38.3375 48.1825C37.5241 48.3477 36.7107 48.5193 35.8972 48.6845C35.4905 46.7145 35.0902 44.7381 34.6707 42.7744C34.6199 42.5329 34.6517 42.4503 34.9122 42.3995C39.4497 41.4717 43.9871 40.5375 48.5245 39.5969C48.785 39.5398 48.8422 39.6097 48.8931 39.8512C49.2871 41.8212 49.7002 43.7912 50.1069 45.7676C49.2998 45.9328 48.4864 46.1044 47.6793 46.2696C47.4505 45.1766 47.2154 44.0899 46.9993 42.9905C46.9485 42.7363 46.8659 42.6855 46.618 42.7426C43.7202 43.3464 40.816 43.9437 37.9181 44.5347C37.6766 44.5856 37.6004 44.6555 37.6576 44.9097C37.8991 45.9964 38.1151 47.0958 38.3375 48.1888V48.1825Z" fill="#C1BDFF"/>
<path d="M44.7049 55.7829C47.393 55.23 50.0811 54.6708 52.7693 54.1306C53.068 54.0671 53.1569 53.9781 53.087 53.6667C52.8328 52.5482 52.6231 51.417 52.3816 50.2922C52.3308 50.0444 52.3498 49.9363 52.6358 49.8792C54.7774 49.4534 56.919 49.0085 59.0543 48.5573C59.3339 48.5001 59.4038 48.5827 59.4483 48.8369C59.6707 49.9745 59.9186 51.112 60.141 52.2495C60.1918 52.5164 60.2935 52.5736 60.5541 52.5164C61.7297 52.2686 62.9054 52.0335 64.0874 51.8047C64.1891 51.7856 64.3225 51.6712 64.4115 51.8492C64.5259 52.0843 64.367 52.1097 64.2018 52.1479C63.2295 52.3449 62.2635 52.5482 61.2912 52.7452C61.0688 52.7897 60.8464 52.8533 60.624 52.8787C60.338 52.9041 60.3062 53.0376 60.3634 53.2854C60.5096 53.94 60.6176 54.6009 60.7765 55.2554C60.8464 55.5414 60.6939 55.6367 60.4905 55.6685C58.8446 55.8973 57.2368 56.323 55.6036 56.6281C55.0888 56.7234 54.5741 56.8251 54.0657 56.9458C53.8433 56.9967 53.7606 56.9395 53.7225 56.7171C53.5954 56.0561 53.4429 55.4016 53.3285 54.7407C53.2777 54.4547 53.1696 54.4039 52.8964 54.4611C48.9627 55.2808 45.0226 56.0879 41.0826 56.9014C39.6082 57.2064 38.1402 57.5178 36.6659 57.8037C36.3863 57.8609 36.3164 57.9563 36.3799 58.2359C36.5324 58.8777 36.6468 59.5323 36.7866 60.1741C36.8375 60.3966 36.8057 60.4982 36.5578 60.5491C34.3908 60.9876 32.2301 61.4324 30.0631 61.8836C29.8343 61.9281 29.7644 61.8646 29.7263 61.6485C29.5992 60.9749 29.4403 60.3139 29.3259 59.6403C29.2815 59.3798 29.1798 59.3416 28.9383 59.3925C27.8008 59.6403 26.6632 59.8691 25.5257 60.0979C25.3922 60.1233 25.2207 60.225 25.1762 59.9835C25.1317 59.742 25.335 59.7738 25.4621 59.7484C26.5997 59.5069 27.7372 59.2717 28.8747 59.0493C29.1289 58.9985 29.1798 58.9159 29.1289 58.6617C28.8811 57.5305 28.665 56.3866 28.4108 55.2554C28.3409 54.9504 28.4235 54.8741 28.7095 54.8169C30.8193 54.3975 32.9292 53.959 35.0327 53.5142C35.3059 53.457 35.4076 53.5078 35.4648 53.7938C35.6809 54.9313 35.9351 56.0689 36.1575 57.2064C36.2083 57.4796 36.31 57.5241 36.5706 57.4669C39.2905 56.895 42.0104 56.3421 44.7303 55.7829H44.7049Z" fill="#C1BDFF"/>
<path d="M42.2718 152.816C46.8219 150.757 44.6104 153.661 45.8051 148.812C48.4615 138.021 48.1437 121.6 40.4415 110.867C30.369 96.8352 26.4099 90.1943 22.8066 83.9982C16.941 73.913 31.9069 58.14 25.088 50.3362C21.1289 45.8115 21.4848 51.747 10.5861 68.2316C4.08498 78.0627 17.6337 109.024 14.685 122.668C12.0541 134.85 22.2283 161.897 42.2781 152.822L42.2718 152.816Z" fill="#F18463"/>
<path d="M19.8457 57.625C19.2928 57.7902 18.3587 57.2818 17.6914 56.5319C20.0936 51.8928 20.7036 49.3127 22.8516 49.1094C22.2797 50.0499 21.695 52.4266 21.1612 54.1743C20.5257 56.2523 20.5575 57.4089 19.8457 57.625Z" fill="#FFC980"/>
<rect y="175" width="74" height="34" fill="white"/>
</svg>
