<svg width="210" height="93" viewBox="0 0 210 93" fill="none" xmlns="http://www.w3.org/2000/svg">
<path d="M184.104 82.9912L192.932 65.5996H165.189L171.634 91.9477C172.426 93.5251 176.495 90.2349 180.117 87.6286C181.796 86.4235 183.163 84.8326 184.098 82.9912H184.104Z" fill="#635BFF"/>
<path d="M209.911 13.9796V53.8741C209.911 57.6584 205.071 64.5772 200.434 68.0568C202.241 66.3576 203.372 63.9273 203.372 61.2464V16.762C203.372 11.5764 199.168 7.37232 193.982 7.37232H9.38964C5.86257 7.37232 2.78908 9.32202 1.19141 12.1924C3.48637 6.92551 11.5221 0 15.936 0H195.938C203.656 0 209.918 6.26207 209.918 13.9796H209.911Z" fill="#635BFF"/>
<path d="M194.084 7.37207H9.28817C4.15846 7.37207 0 11.5305 0 16.6602V61.3477C0 66.4774 4.15846 70.6359 9.28817 70.6359H194.084C199.213 70.6359 203.372 66.4774 203.372 61.3477V16.6602C203.372 11.5305 199.213 7.37207 194.084 7.37207Z" fill="#C1BDFF"/>
<path d="M174.885 90.3699L186.041 68.0566H158.299L169.455 90.3699C170.572 92.604 173.761 92.604 174.885 90.3699Z" fill="#C1BDFF"/>
<path d="M209.911 13.9796V53.8741C209.911 57.6584 205.071 64.5772 200.434 68.0568C202.241 66.3576 203.372 63.9273 203.372 61.2464V16.762C203.372 11.5764 199.168 7.37232 193.982 7.37232H9.38964C5.86257 7.37232 2.78908 9.32202 1.19141 12.1924C3.48637 6.92551 11.5221 0 15.936 0H195.938C203.656 0 209.918 6.26207 209.918 13.9796H209.911Z" fill="#635BFF"/>
<path d="M185.939 35.5877L178.844 43.1699L181.64 52.2008C181.661 52.2482 181.647 52.3024 181.634 52.343C181.593 52.4648 181.444 52.5529 181.309 52.4852L172.027 47.9223L162.922 52.3904C162.658 52.5122 162.38 52.2685 162.468 51.9977L165.19 43.1699L158.129 35.6283C157.919 35.3982 158.027 35.0123 158.339 34.9514L163.206 33.9088L167.525 32.9814L171.763 25.6564C171.872 25.4466 172.176 25.4466 172.291 25.6564L176.522 32.9814L185.756 34.9581C186.041 35.0191 186.149 35.3711 185.946 35.581L185.939 35.5877Z" fill="#635BFF"/>
<path d="M45.2498 35.5877L38.155 43.1699L40.951 52.2008C40.9713 52.2482 40.9577 52.3024 40.9442 52.343C40.9036 52.4648 40.7546 52.5529 40.6192 52.4852L31.3378 47.9223L22.2324 52.3904C21.9684 52.5122 21.6909 52.2685 21.7789 51.9977L24.5003 43.1699L17.4394 35.6283C17.2296 35.3982 17.3379 35.0123 17.6493 34.9514L22.5168 33.9088L26.8359 32.9814L31.0738 25.6564C31.1821 25.4466 31.4868 25.4466 31.6018 25.6564L35.833 32.9814L45.067 34.9581C45.3513 35.0191 45.4596 35.3711 45.2565 35.581L45.2498 35.5877Z" fill="#FFDE9E"/>
<path d="M32.1641 26.6387L35.8265 32.9887L45.0605 34.9655" stroke="#FFBD3E" stroke-width="0.67698" stroke-miterlimit="10"/>
<path d="M42.0547 39.0068L38.1553 43.1703L40.9512 52.2012" stroke="#FFBD3E" stroke-width="0.67698" stroke-miterlimit="10"/>
<path d="M32.1641 30.8008L34.7637 35.587L38.6089 36.3114" stroke="#F9F1DE" stroke-width="0.67698" stroke-miterlimit="10"/>
<path d="M80.4871 35.5877L73.3923 43.1699L76.1883 52.2008C76.2086 52.2482 76.195 52.3024 76.1815 52.343C76.1409 52.4648 75.9919 52.5529 75.8565 52.4852L66.5751 47.9223L57.4697 52.3904C57.2057 52.5122 56.9282 52.2685 57.0162 51.9977L59.7376 43.1699L52.6767 35.6283C52.4669 35.3982 52.5752 35.0123 52.8866 34.9514L57.7541 33.9088L62.0732 32.9814L66.3111 25.6564C66.4194 25.4466 66.7241 25.4466 66.8392 25.6564L71.0703 32.9814L80.3043 34.9581C80.5886 35.0191 80.6969 35.3711 80.4939 35.581L80.4871 35.5877Z" fill="#FFDE9E"/>
<path d="M80.4873 35.5879L73.3926 43.1701L76.1817 52.3432" stroke="#FFBD3E" stroke-width="0.67698" stroke-miterlimit="10"/>
<path d="M67.6318 30.8008L70.2382 35.587L74.0835 36.3114" stroke="#F9F1DE" stroke-width="0.67698" stroke-miterlimit="10"/>
<path d="M115.987 35.5877L108.892 43.1699L111.688 52.2008C111.708 52.2482 111.695 52.3024 111.681 52.343C111.641 52.4648 111.492 52.5529 111.356 52.4852L102.075 47.9223L92.9697 52.3904C92.7057 52.5122 92.4281 52.2685 92.5161 51.9977L95.2376 43.1699L88.1699 35.6283C87.96 35.3982 88.0683 35.0123 88.3798 34.9514L93.2472 33.9088L97.5664 32.9814L101.804 25.6564C101.913 25.4466 102.217 25.4466 102.332 25.6564L106.563 32.9814L115.797 34.9581C116.082 35.0191 116.19 35.3711 115.987 35.581V35.5877Z" fill="#FFDE9E"/>
<path d="M103.118 27.0234L106.557 32.9809L116.245 35.0592C116.482 35.1066 116.563 35.3977 116.394 35.5669L108.886 43.1694L111.046 50.1355" stroke="#FFBD3E" stroke-width="0.67698" stroke-miterlimit="10"/>
<path d="M103.118 30.8008L105.725 35.587L109.57 36.3114" stroke="#F9F1DE" stroke-width="0.67698" stroke-miterlimit="10"/>
<path d="M151.224 35.5877L144.13 43.1699L146.926 52.2008C146.946 52.2482 146.932 52.3024 146.919 52.343C146.878 52.4648 146.729 52.5529 146.594 52.4852L137.312 47.9223L128.207 52.3904C127.943 52.5122 127.665 52.2685 127.753 51.9977L130.475 43.1699L123.414 35.6283C123.204 35.3982 123.312 35.0123 123.624 34.9514L128.491 33.9088L132.811 32.9814L137.048 25.6564C137.157 25.4466 137.461 25.4466 137.576 25.6564L141.808 32.9814L151.042 34.9581C151.326 35.0191 151.434 35.3711 151.231 35.581L151.224 35.5877Z" fill="#FFDE9E"/>
<path d="M150.155 36.7314L144.13 43.1695L146.926 52.2004" stroke="#FFBD3E" stroke-width="0.67698" stroke-miterlimit="10"/>
<path d="M138.422 30.8008L141.028 35.587L144.873 36.3114" stroke="#F9F1DE" stroke-width="0.67698" stroke-miterlimit="10"/>
</svg>
