<svg width="24" height="24" viewBox="0 0 24 24" fill="none" xmlns="http://www.w3.org/2000/svg">
<circle cx="11.8461" cy="11.6" r="11.6" fill="#635BFF" fill-opacity="0.2"/>
<path d="M12.3492 17H11.693C11.5228 16.9809 11.352 16.966 11.1824 16.9422C10.3244 16.823 9.52762 16.5346 8.7975 16.0665C8.72883 16.0225 8.66956 16.014 8.5915 16.0398C8.1921 16.1722 7.79065 16.2989 7.38979 16.4275C7.06464 16.5313 6.73949 16.6349 6.39761 16.7438C6.41317 16.6936 6.42226 16.6611 6.43312 16.6291C6.65087 15.9788 6.86509 15.327 7.09017 14.6793C7.13214 14.5581 7.11717 14.4733 7.04645 14.3709C6.45454 13.5155 6.11619 12.565 6.02551 11.5306C5.91312 10.2481 6.1696 9.03852 6.84513 7.94187C7.96673 6.12097 9.60979 5.13349 11.7462 5.00994C12.9288 4.94157 14.0419 5.22651 15.0549 5.84395C16.6123 6.79357 17.5672 8.16989 17.9032 9.96731C17.9451 10.1924 17.966 10.4213 17.9965 10.6484V11.3515C17.9868 11.4358 17.9771 11.5203 17.9677 11.6045C17.8245 12.8913 17.3347 14.0276 16.4693 14.9919C15.5447 16.0222 14.3972 16.6649 13.0312 16.9067C12.8055 16.9466 12.5766 16.9692 12.3492 17ZM13.9262 14.3824C14.1287 14.3436 14.2992 14.3313 14.4553 14.2776C15.302 13.985 15.5893 13.5771 15.6124 12.7909C15.616 12.6721 15.5734 12.5899 15.4643 12.538C15.0138 12.3235 14.5663 12.1031 14.1141 11.8927C13.8913 11.7891 13.7566 11.8331 13.6078 12.0321C13.4887 12.1914 13.3725 12.3531 13.2501 12.5098C13.0729 12.7367 12.9405 12.7681 12.6694 12.6577C11.6655 12.2483 10.9236 11.5426 10.3707 10.6238C10.2868 10.4844 10.2938 10.4028 10.4027 10.2719C10.5201 10.1311 10.6445 9.99607 10.7648 9.85756C10.9072 9.69351 10.948 9.5239 10.8508 9.31026C10.646 8.8601 10.464 8.39908 10.2645 7.94627C10.236 7.88142 10.1706 7.80336 10.1081 7.7881C9.7932 7.71092 9.46453 7.69419 9.20189 7.909C8.6182 8.38704 8.43244 9.02766 8.54806 9.75602C8.63346 10.2948 8.89581 10.7599 9.20453 11.2028C9.66232 11.8589 10.1767 12.4623 10.7868 12.9832C11.4639 13.5613 12.2474 13.9348 13.0917 14.1887C13.3734 14.2735 13.666 14.3231 13.9262 14.3824Z" fill="#635BFF"/>
</svg>
