<svg width="24" height="24" viewBox="0 0 24 24" fill="none" xmlns="http://www.w3.org/2000/svg">
<circle cx="11.6" cy="11.6001" r="11.6" fill="#635BFF" fill-opacity="0.2"/>
<path d="M14.7574 6.55664C15.569 6.55664 16.3497 6.87741 16.9241 7.45297C17.499 8.02732 17.8204 8.802 17.8204 9.61299V14.3942C17.8204 16.0828 16.4466 17.4506 14.7574 17.4506H8.77847C7.0893 17.4506 5.71606 16.0828 5.71606 14.3942V9.61299C5.71606 7.92444 7.08325 6.55664 8.77847 6.55664H14.7574ZM15.4419 9.70378C15.3148 9.69712 15.1938 9.74009 15.1024 9.82482L12.3735 12.0036C12.0224 12.2947 11.5195 12.2947 11.163 12.0036L8.43954 9.82482C8.25132 9.68562 7.99108 9.70378 7.83433 9.86719C7.67092 10.0306 7.65276 10.2908 7.79136 10.4724L7.87064 10.5511L10.6244 12.6996C10.9633 12.9659 11.3742 13.1112 11.8046 13.1112C12.2337 13.1112 12.6519 12.9659 12.9902 12.6996L15.7203 10.5148L15.7687 10.4664C15.9134 10.2908 15.9134 10.0366 15.7621 9.86113C15.6779 9.77096 15.5624 9.71588 15.4419 9.70378Z" fill="#635BFF"/>
</svg>
