<svg width="24" height="24" viewBox="0 0 24 24" fill="none" xmlns="http://www.w3.org/2000/svg">
<circle cx="11.7231" cy="11.6" r="11.6" fill="#635BFF" fill-opacity="0.2"/>
<path d="M14.3046 16.9775C10.8256 16.9371 7.69528 14.5712 6.70346 11.2177C6.47329 10.438 6.35751 9.64144 6.37006 8.82818C6.39099 7.55737 7.37722 6.43722 8.63548 6.25308C8.8796 6.21681 9.1014 6.32283 9.21299 6.54602C9.66775 7.44996 10.1211 8.35529 10.5717 9.26201C10.6819 9.4852 10.6317 9.72374 10.4517 9.89811C10.1113 10.2273 9.7096 10.4435 9.25484 10.5705C8.98562 10.6444 8.8238 10.8676 8.84193 11.134C8.84751 11.2094 8.86844 11.2875 8.90052 11.3558C9.54081 12.7648 10.5661 13.7901 11.9736 14.4331C12.3265 14.5936 12.6627 14.4373 12.7687 14.0635C12.8943 13.6213 13.1063 13.2293 13.4258 12.8959C13.6113 12.7006 13.8471 12.6532 14.087 12.7731C14.9839 13.2195 15.8795 13.6673 16.7737 14.1165C17.0178 14.2392 17.1238 14.4638 17.075 14.7289C16.8616 15.8867 16.019 16.7292 14.8598 16.9329C14.6771 16.965 14.4873 16.965 14.3018 16.9803L14.3046 16.9775Z" fill="#635BFF"/>
</svg>
