<svg width="25" height="25" viewBox="0 0 25 25" fill="none" xmlns="http://www.w3.org/2000/svg">
<path fill-rule="evenodd" clip-rule="evenodd" d="M6.65113 4.02307C6.56734 4.02307 6.48257 4.03086 6.39684 4.0445C5.30757 4.22864 4.32646 5.49912 4.12381 5.82941C3.10859 7.25675 3.90167 10.5664 9.06738 15.7331C14.2351 20.8998 17.5448 21.6909 18.9195 20.7118C19.3034 20.474 20.5719 19.4968 20.756 18.4056C20.8359 17.9311 20.6946 17.481 20.3254 17.0309C18.1654 14.4081 17.4814 14.7403 16.5393 15.1992C15.1207 15.891 13.7353 16.2544 11.1407 13.6608C8.55004 11.0682 8.91149 9.68275 9.60227 8.2632C10.0621 7.31911 10.3944 6.6371 7.76864 4.47417C7.40134 4.17213 7.03305 4.02307 6.65113 4.02307ZM17.6149 22.5629C15.6838 22.5629 12.6265 21.3587 8.03463 16.7659C1.17754 9.90976 1.87318 6.47342 2.89814 5.03438C2.89619 5.03438 4.18616 2.9718 6.0987 2.61424C7.00869 2.44471 7.90407 2.69705 8.69715 3.34496C11.9533 6.02817 11.6512 7.39413 10.9166 8.90234C10.4655 9.82889 10.1089 10.5606 12.1744 12.6271C14.2409 14.6916 14.9736 14.3389 15.8992 13.8849C17.4083 13.1512 18.7733 12.8473 21.4546 16.1024C22.1054 16.8974 22.3587 17.7986 22.1853 18.7096C21.818 20.6504 19.7213 21.9326 19.7009 21.9443C19.2478 22.2697 18.5678 22.5629 17.6149 22.5629Z" fill="#635BFF"/>
</svg>
