<svg width="46" height="38" viewBox="0 0 46 38" fill="none" xmlns="http://www.w3.org/2000/svg">
<rect x="0.5" y="0.5" width="45" height="37" rx="4.5" fill="#FFDE9E" fill-opacity="0.5" stroke="#FFBD3E"/>
<path d="M36.088 23.14C35.3507 23.14 34.7253 23.014 34.212 22.762C33.708 22.5007 33.3207 22.1647 33.05 21.754C32.7887 21.3433 32.6487 20.9093 32.63 20.452C32.6207 20.368 32.644 20.3027 32.7 20.256C32.756 20.2093 32.826 20.186 32.91 20.186H33.666C33.75 20.186 33.8247 20.2047 33.89 20.242C33.9553 20.2793 34.0067 20.3587 34.044 20.48C34.1373 20.8253 34.2867 21.11 34.492 21.334C34.7067 21.5487 34.9493 21.7073 35.22 21.81C35.5 21.9033 35.7893 21.95 36.088 21.95C36.4893 21.95 36.8533 21.8707 37.18 21.712C37.516 21.544 37.782 21.3013 37.978 20.984C38.174 20.6573 38.272 20.2653 38.272 19.808C38.272 19.388 38.174 19.0287 37.978 18.73C37.7913 18.422 37.53 18.1887 37.194 18.03C36.8673 17.862 36.4987 17.778 36.088 17.778C35.78 17.778 35.528 17.8153 35.332 17.89C35.136 17.9647 34.968 18.0533 34.828 18.156C34.6973 18.2587 34.576 18.3473 34.464 18.422C34.3613 18.4967 34.2447 18.534 34.114 18.534H33.386C33.302 18.534 33.2273 18.506 33.162 18.45C33.0967 18.3847 33.0687 18.31 33.078 18.226L33.526 13.55C33.5353 13.438 33.568 13.354 33.624 13.298C33.6893 13.2327 33.7733 13.2 33.876 13.2H38.762C38.8553 13.2 38.93 13.2327 38.986 13.298C39.0513 13.354 39.084 13.4287 39.084 13.522V14.068C39.084 14.1707 39.0513 14.25 38.986 14.306C38.93 14.362 38.8553 14.39 38.762 14.39H34.73L34.464 17.148C34.5947 17.064 34.8047 16.966 35.094 16.854C35.3833 16.7327 35.78 16.672 36.284 16.672C36.7413 16.672 37.1707 16.742 37.572 16.882C37.9827 17.022 38.3467 17.2273 38.664 17.498C38.9813 17.7687 39.2287 18.1 39.406 18.492C39.5833 18.8747 39.672 19.318 39.672 19.822C39.672 20.5313 39.5133 21.1333 39.196 21.628C38.888 22.1227 38.4633 22.5007 37.922 22.762C37.39 23.014 36.7787 23.14 36.088 23.14Z" fill="#FFBD3E"/>
<path d="M15.6156 10.6763C15.9908 9.96519 17.0092 9.96519 17.3844 10.6763L19.4799 14.6479C19.6246 14.9221 19.8883 15.1137 20.1938 15.1666L24.6185 15.9322C25.4108 16.0693 25.7255 17.0379 25.1651 17.6145L22.0355 20.8346C21.8194 21.057 21.7186 21.367 21.7628 21.6739L22.402 26.1186C22.5164 26.9145 21.6924 27.5131 20.9709 27.1584L16.9412 25.177C16.663 25.0401 16.337 25.0401 16.0588 25.177L12.0291 27.1584C11.3076 27.5131 10.4836 26.9145 10.598 26.1186L11.2372 21.6739C11.2814 21.367 11.1806 21.057 10.9645 20.8346L7.83489 17.6145C7.2745 17.0379 7.58922 16.0693 8.38151 15.9322L12.8062 15.1666C13.1117 15.1137 13.3754 14.9221 13.5201 14.6479L15.6156 10.6763Z" fill="#FFBD3E"/>
</svg>
