<svg width="46" height="38" viewBox="0 0 46 38" fill="none" xmlns="http://www.w3.org/2000/svg">
<rect width="46" height="38" rx="5" fill="#FFBD3E"/>
<path d="M10.49 23C10.4153 23 10.3453 22.972 10.28 22.916C10.224 22.86 10.196 22.79 10.196 22.706C10.196 22.6687 10.2053 22.6267 10.224 22.58L13.598 13.55C13.626 13.4567 13.6773 13.3773 13.752 13.312C13.836 13.2373 13.948 13.2 14.088 13.2H15.614C15.754 13.2 15.8613 13.2373 15.936 13.312C16.0107 13.3773 16.0667 13.4567 16.104 13.55L19.478 22.58C19.4873 22.6267 19.492 22.6687 19.492 22.706C19.492 22.79 19.464 22.86 19.408 22.916C19.352 22.972 19.2867 23 19.212 23H17.994C17.8633 23 17.7653 22.972 17.7 22.916C17.644 22.8507 17.6067 22.79 17.588 22.734L16.93 21.026H12.772L12.114 22.734C12.0953 22.79 12.0533 22.8507 11.988 22.916C11.932 22.972 11.8387 23 11.708 23H10.49ZM13.262 19.416H16.44L14.844 15.09L13.262 19.416ZM20.967 23C20.8737 23 20.7944 22.9673 20.729 22.902C20.6637 22.8367 20.631 22.7573 20.631 22.664V16.056C20.631 15.9627 20.6637 15.8833 20.729 15.818C20.7944 15.7527 20.8737 15.72 20.967 15.72H22.115C22.2084 15.72 22.2877 15.7527 22.353 15.818C22.4184 15.8833 22.451 15.9627 22.451 16.056V16.63C22.6937 16.3313 23.0017 16.084 23.375 15.888C23.7577 15.6827 24.229 15.58 24.789 15.58C25.3584 15.58 25.853 15.7107 26.273 15.972C26.693 16.224 27.015 16.5833 27.239 17.05C27.4724 17.5167 27.589 18.0767 27.589 18.73V22.664C27.589 22.7573 27.5564 22.8367 27.491 22.902C27.4257 22.9673 27.3464 23 27.253 23H26.021C25.9277 23 25.8484 22.9673 25.783 22.902C25.7177 22.8367 25.685 22.7573 25.685 22.664V18.814C25.685 18.2727 25.5497 17.848 25.279 17.54C25.0177 17.232 24.635 17.078 24.131 17.078C23.6457 17.078 23.2584 17.232 22.969 17.54C22.6797 17.848 22.535 18.2727 22.535 18.814V22.664C22.535 22.7573 22.5024 22.8367 22.437 22.902C22.3717 22.9673 22.2924 23 22.199 23H20.967ZM30.4509 25.66C30.3763 25.66 30.3109 25.632 30.2549 25.576C30.1989 25.52 30.1709 25.4547 30.1709 25.38C30.1709 25.3427 30.1709 25.3053 30.1709 25.268C30.1803 25.24 30.1989 25.2027 30.2269 25.156L31.3189 22.566L28.6309 16.224C28.5936 16.1307 28.5749 16.0653 28.5749 16.028C28.5843 15.944 28.6169 15.874 28.6729 15.818C28.7289 15.7527 28.7989 15.72 28.8829 15.72H30.0169C30.1289 15.72 30.2129 15.748 30.2689 15.804C30.3249 15.86 30.3669 15.9207 30.3949 15.986L32.2569 20.564L34.1749 15.986C34.2029 15.9113 34.2449 15.8507 34.3009 15.804C34.3569 15.748 34.4409 15.72 34.5529 15.72H35.6729C35.7476 15.72 35.8129 15.748 35.8689 15.804C35.9343 15.86 35.9669 15.9253 35.9669 16C35.9669 16.056 35.9483 16.1307 35.9109 16.224L31.9489 25.394C31.9116 25.4687 31.8649 25.5293 31.8089 25.576C31.7529 25.632 31.6689 25.66 31.5569 25.66H30.4509Z" fill="white"/>
</svg>
