<svg width="46" height="38" viewBox="0 0 46 38" fill="none" xmlns="http://www.w3.org/2000/svg">
<rect x="0.5" y="0.5" width="45" height="37" rx="4.5" fill="#FFDE9E" fill-opacity="0.5" stroke="#FFBD3E"/>
<path d="M37.614 23C37.5207 23 37.4413 22.972 37.376 22.916C37.32 22.8507 37.292 22.7713 37.292 22.678V20.662H32.756C32.6627 20.662 32.5833 20.634 32.518 20.578C32.462 20.5127 32.434 20.4333 32.434 20.34V19.78C32.434 19.7427 32.4433 19.6867 32.462 19.612C32.49 19.528 32.532 19.444 32.588 19.36L36.788 13.438C36.9 13.2793 37.0727 13.2 37.306 13.2H38.314C38.4073 13.2 38.482 13.2327 38.538 13.298C38.6033 13.354 38.636 13.4287 38.636 13.522V19.444H39.896C39.9987 19.444 40.078 19.4767 40.134 19.542C40.1993 19.598 40.232 19.6727 40.232 19.766V20.34C40.232 20.4333 40.1993 20.5127 40.134 20.578C40.078 20.634 40.0033 20.662 39.91 20.662H38.636V22.678C38.636 22.7713 38.6033 22.8507 38.538 22.916C38.482 22.972 38.4073 23 38.314 23H37.614ZM33.932 19.472H37.306V14.67L33.932 19.472Z" fill="#FFBD3E"/>
<path d="M15.6156 10.6763C15.9908 9.96519 17.0092 9.96519 17.3844 10.6763L19.4799 14.6479C19.6246 14.9221 19.8883 15.1137 20.1938 15.1666L24.6185 15.9322C25.4108 16.0693 25.7255 17.0379 25.1651 17.6145L22.0355 20.8346C21.8194 21.057 21.7186 21.367 21.7628 21.6739L22.402 26.1186C22.5164 26.9145 21.6924 27.5131 20.9709 27.1584L16.9412 25.177C16.663 25.0401 16.337 25.0401 16.0588 25.177L12.0291 27.1584C11.3076 27.5131 10.4836 26.9145 10.598 26.1186L11.2372 21.6739C11.2814 21.367 11.1806 21.057 10.9645 20.8346L7.83489 17.6145C7.2745 17.0379 7.58922 16.0693 8.38151 15.9322L12.8062 15.1666C13.1117 15.1137 13.3754 14.9221 13.5201 14.6479L15.6156 10.6763Z" fill="#FFBD3E"/>
</svg>
