<svg width="46" height="38" viewBox="0 0 46 38" fill="none" xmlns="http://www.w3.org/2000/svg">
<rect x="0.5" y="0.5" width="45" height="37" rx="4.5" fill="#FFDE9E" fill-opacity="0.5" stroke="#FFBD3E"/>
<path d="M36.172 23.14C35.584 23.14 35.0707 23.07 34.632 22.93C34.1933 22.7807 33.8247 22.5847 33.526 22.342C33.2273 22.0993 32.9987 21.8333 32.84 21.544C32.6907 21.2547 32.6113 20.956 32.602 20.648C32.602 20.564 32.63 20.4987 32.686 20.452C32.742 20.4053 32.812 20.382 32.896 20.382H33.582C33.666 20.382 33.7407 20.4007 33.806 20.438C33.8713 20.4753 33.9273 20.5547 33.974 20.676C34.0673 21.012 34.226 21.2733 34.45 21.46C34.6833 21.6467 34.9493 21.7773 35.248 21.852C35.556 21.9173 35.864 21.95 36.172 21.95C36.816 21.95 37.3387 21.796 37.74 21.488C38.1413 21.18 38.342 20.7273 38.342 20.13C38.342 19.5233 38.16 19.0893 37.796 18.828C37.432 18.5667 36.928 18.436 36.284 18.436H34.954C34.8607 18.436 34.7813 18.408 34.716 18.352C34.66 18.296 34.632 18.2167 34.632 18.114V17.736C34.632 17.652 34.646 17.582 34.674 17.526C34.7113 17.4607 34.7487 17.4047 34.786 17.358L37.502 14.39H33.372C33.2787 14.39 33.1993 14.362 33.134 14.306C33.078 14.25 33.05 14.1707 33.05 14.068V13.536C33.05 13.4333 33.078 13.354 33.134 13.298C33.1993 13.2327 33.2787 13.2 33.372 13.2H38.958C39.0607 13.2 39.14 13.2327 39.196 13.298C39.2613 13.354 39.294 13.4333 39.294 13.536V14.04C39.294 14.1053 39.2753 14.166 39.238 14.222C39.21 14.2687 39.1773 14.3153 39.14 14.362L36.438 17.372L36.662 17.386C37.278 17.4047 37.8147 17.5167 38.272 17.722C38.7387 17.9273 39.098 18.2353 39.35 18.646C39.6113 19.0473 39.742 19.556 39.742 20.172C39.742 20.7973 39.588 21.334 39.28 21.782C38.972 22.2207 38.5473 22.5567 38.006 22.79C37.4647 23.0233 36.8533 23.14 36.172 23.14Z" fill="#FFBD3E"/>
<path d="M15.6156 10.6763C15.9908 9.96519 17.0092 9.96519 17.3844 10.6763L19.4799 14.6479C19.6246 14.9221 19.8883 15.1137 20.1938 15.1666L24.6185 15.9322C25.4108 16.0693 25.7255 17.0379 25.1651 17.6145L22.0355 20.8346C21.8194 21.057 21.7186 21.367 21.7628 21.6739L22.402 26.1186C22.5164 26.9145 21.6924 27.5131 20.9709 27.1584L16.9412 25.177C16.663 25.0401 16.337 25.0401 16.0588 25.177L12.0291 27.1584C11.3076 27.5131 10.4836 26.9145 10.598 26.1186L11.2372 21.6739C11.2814 21.367 11.1806 21.057 10.9645 20.8346L7.83489 17.6145C7.2745 17.0379 7.58922 16.0693 8.38151 15.9322L12.8062 15.1666C13.1117 15.1137 13.3754 14.9221 13.5201 14.6479L15.6156 10.6763Z" fill="#FFBD3E"/>
</svg>
