<svg width="59" height="58" viewBox="0 0 59 58" fill="none" xmlns="http://www.w3.org/2000/svg">
<circle cx="29.5" cy="29" r="29" fill="#635BFF" fill-opacity="0.3"/>
<path d="M20.4906 38.8863C19.1776 38.8863 18.0588 38.6921 17.1342 38.3038C16.2096 37.9154 15.4514 37.3791 14.8596 36.6949C14.2678 36.0107 13.824 35.2247 13.5281 34.3371C13.2322 33.4309 13.0565 32.4693 13.0011 31.4522C12.9826 30.9529 12.9641 30.4074 12.9456 29.8156C12.9456 29.2053 12.9456 28.5951 12.9456 27.9848C12.9641 27.3745 12.9826 26.8105 13.0011 26.2927C13.0381 25.2756 13.2137 24.3232 13.5281 23.4356C13.8425 22.5294 14.2956 21.7435 14.8873 21.0778C15.4976 20.412 16.265 19.885 17.1897 19.4966C18.1143 19.1083 19.2146 18.9141 20.4906 18.9141C21.7851 18.9141 22.8947 19.1083 23.8193 19.4966C24.744 19.885 25.5022 20.412 26.0939 21.0778C26.7042 21.7435 27.1573 22.5294 27.4532 23.4356C27.7675 24.3232 27.9432 25.2756 27.9802 26.2927C28.0172 26.8105 28.0357 27.3745 28.0357 27.9848C28.0357 28.5951 28.0357 29.2053 28.0357 29.8156C28.0357 30.4074 28.0172 30.9529 27.9802 31.4522C27.9432 32.4693 27.7768 33.4309 27.4809 34.3371C27.185 35.2247 26.7412 36.0107 26.1494 36.6949C25.5576 37.3791 24.7902 37.9154 23.8471 38.3038C22.9224 38.6921 21.8036 38.8863 20.4906 38.8863ZM20.4906 35.6963C21.6927 35.6963 22.5711 35.3079 23.1258 34.5312C23.6991 33.736 23.995 32.6635 24.0135 31.3135C24.0505 30.7772 24.069 30.2409 24.069 29.7046C24.069 29.1498 24.069 28.5951 24.069 28.0403C24.069 27.4855 24.0505 26.9585 24.0135 26.4591C23.995 25.1462 23.6991 24.0921 23.1258 23.2969C22.5711 22.4832 21.6927 22.0764 20.4906 22.0764C19.3071 22.0764 18.4287 22.4832 17.8554 23.2969C17.3006 24.0921 17.0047 25.1462 16.9678 26.4591C16.9678 26.9585 16.9585 27.4855 16.94 28.0403C16.94 28.5951 16.94 29.1498 16.94 29.7046C16.9585 30.2409 16.9678 30.7772 16.9678 31.3135C17.0047 32.6635 17.3099 33.736 17.8832 34.5312C18.4564 35.3079 19.3256 35.6963 20.4906 35.6963ZM38.1113 38.914C36.5209 38.914 35.1802 38.6551 34.0891 38.1373C32.998 37.601 32.1658 36.9076 31.5926 36.0569C31.0378 35.2062 30.7419 34.3001 30.7049 33.3385C30.6864 33.172 30.7327 33.0426 30.8436 32.9501C30.9731 32.8391 31.121 32.7837 31.2874 32.7837H33.8672C34.0706 32.7837 34.237 32.8299 34.3665 32.9224C34.5144 32.9963 34.6254 33.135 34.6993 33.3385C34.8843 33.8932 35.1432 34.3463 35.476 34.6977C35.8274 35.049 36.225 35.3079 36.6688 35.4744C37.1311 35.6408 37.612 35.724 38.1113 35.724C38.777 35.724 39.378 35.5946 39.9143 35.3357C40.4691 35.0583 40.9129 34.6514 41.2458 34.1151C41.5787 33.5789 41.7451 32.9224 41.7451 32.1457C41.7451 31.4614 41.5879 30.8697 41.2735 30.3704C40.9591 29.8711 40.5246 29.4827 39.9698 29.2053C39.4335 28.9094 38.814 28.7615 38.1113 28.7615C37.5935 28.7615 37.1681 28.8262 36.8353 28.9557C36.5024 29.0851 36.2158 29.2331 35.9753 29.3995C35.7534 29.5659 35.55 29.7139 35.3651 29.8433C35.1987 29.9728 35.0045 30.0375 34.7826 30.0375H32.2306C32.0641 30.0375 31.9162 29.982 31.7867 29.8711C31.6758 29.7416 31.6203 29.5937 31.6203 29.4272L32.5912 19.9405C32.6097 19.7 32.6929 19.5151 32.8408 19.3857C32.9888 19.2562 33.1645 19.1915 33.3679 19.1915H43.7978C43.9827 19.1915 44.1399 19.2562 44.2693 19.3857C44.3988 19.5151 44.4635 19.6723 44.4635 19.8572V21.7158C44.4635 21.9007 44.3988 22.0579 44.2693 22.1873C44.1399 22.3168 43.9827 22.3815 43.7978 22.3815H35.7812L35.3373 26.903C35.6702 26.6811 36.114 26.4684 36.6688 26.265C37.2236 26.0616 37.9911 25.9598 38.9712 25.9598C39.8588 25.9598 40.7002 26.1078 41.4954 26.4037C42.3091 26.6811 43.0303 27.0971 43.6591 27.6519C44.2878 28.1882 44.7779 28.8447 45.1293 29.6214C45.4991 30.3796 45.684 31.2488 45.684 32.2289C45.684 33.5789 45.3697 34.7531 44.7409 35.7518C44.1122 36.7504 43.2338 37.5271 42.1057 38.0818C40.9776 38.6366 39.6462 38.914 38.1113 38.914Z" fill="#635BFF"/>
</svg>
