<svg width="59" height="58" viewBox="0 0 59 58" fill="none" xmlns="http://www.w3.org/2000/svg">
<circle cx="29.5" cy="29" r="29" fill="#635BFF" fill-opacity="0.3"/>
<path d="M20.5042 38.8863C19.1912 38.8863 18.0724 38.6921 17.1477 38.3038C16.2231 37.9154 15.4649 37.3791 14.8731 36.6949C14.2814 36.0107 13.8375 35.2247 13.5417 34.3371C13.2458 33.4309 13.0701 32.4693 13.0146 31.4522C12.9961 30.9529 12.9776 30.4074 12.9591 29.8156C12.9591 29.2053 12.9591 28.5951 12.9591 27.9848C12.9776 27.3745 12.9961 26.8105 13.0146 26.2927C13.0516 25.2756 13.2273 24.3232 13.5417 23.4356C13.856 22.5294 14.3091 21.7435 14.9009 21.0778C15.5111 20.412 16.2786 19.885 17.2032 19.4966C18.1279 19.1083 19.2282 18.9141 20.5042 18.9141C21.7987 18.9141 22.9082 19.1083 23.8329 19.4966C24.7575 19.885 25.5157 20.412 26.1075 21.0778C26.7177 21.7435 27.1708 22.5294 27.4667 23.4356C27.7811 24.3232 27.9568 25.2756 27.9937 26.2927C28.0307 26.8105 28.0492 27.3745 28.0492 27.9848C28.0492 28.5951 28.0492 29.2053 28.0492 29.8156C28.0492 30.4074 28.0307 30.9529 27.9937 31.4522C27.9568 32.4693 27.7903 33.4309 27.4944 34.3371C27.1986 35.2247 26.7547 36.0107 26.163 36.6949C25.5712 37.3791 24.8037 37.9154 23.8606 38.3038C22.936 38.6921 21.8172 38.8863 20.5042 38.8863ZM20.5042 35.6963C21.7062 35.6963 22.5846 35.3079 23.1394 34.5312C23.7127 33.736 24.0086 32.6635 24.027 31.3135C24.064 30.7772 24.0825 30.2409 24.0825 29.7046C24.0825 29.1498 24.0825 28.5951 24.0825 28.0403C24.0825 27.4855 24.064 26.9585 24.027 26.4591C24.0086 25.1462 23.7127 24.0921 23.1394 23.2969C22.5846 22.4832 21.7062 22.0764 20.5042 22.0764C19.3206 22.0764 18.4422 22.4832 17.869 23.2969C17.3142 24.0921 17.0183 25.1462 16.9813 26.4591C16.9813 26.9585 16.9721 27.4855 16.9536 28.0403C16.9536 28.5951 16.9536 29.1498 16.9536 29.7046C16.9721 30.2409 16.9813 30.7772 16.9813 31.3135C17.0183 32.6635 17.3234 33.736 17.8967 34.5312C18.47 35.3079 19.3391 35.6963 20.5042 35.6963ZM31.5506 38.6089C31.3657 38.6089 31.2085 38.5442 31.0791 38.4147C30.9496 38.2853 30.8849 38.1281 30.8849 37.9431V36.5285C30.8849 36.362 30.9219 36.1678 30.9959 35.9459C31.0883 35.7055 31.2825 35.4651 31.5784 35.2247L35.9612 30.8697C37.1817 29.908 38.1618 29.0944 38.9015 28.4286C39.6597 27.7444 40.2052 27.1249 40.5381 26.5701C40.8895 25.9968 41.0652 25.4328 41.0652 24.878C41.0652 24.0458 40.834 23.3709 40.3717 22.8531C39.9279 22.3353 39.2159 22.0764 38.2358 22.0764C37.5885 22.0764 37.043 22.2151 36.5992 22.4925C36.1553 22.7514 35.804 23.1027 35.5451 23.5465C35.3047 23.9904 35.1382 24.4804 35.0458 25.0167C35.0088 25.2571 34.9071 25.4236 34.7406 25.516C34.5742 25.6085 34.4078 25.6547 34.2413 25.6547H31.7725C31.6061 25.6547 31.4674 25.5992 31.3565 25.4883C31.2455 25.3773 31.19 25.2479 31.19 25.0999C31.2085 24.3047 31.375 23.5373 31.6893 22.7976C32.0037 22.0394 32.4568 21.3736 33.0485 20.8004C33.6588 20.2086 34.3985 19.737 35.2677 19.3857C36.1368 19.0343 37.117 18.8586 38.208 18.8586C39.7429 18.8586 41.0097 19.1175 42.0083 19.6353C43.0254 20.1531 43.7836 20.8558 44.2829 21.7435C44.8007 22.6311 45.0596 23.6298 45.0596 24.7393C45.0596 25.6085 44.8932 26.4129 44.5603 27.1526C44.2274 27.8738 43.7466 28.5766 43.1179 29.2608C42.4891 29.9265 41.7309 30.6108 40.8432 31.3135L36.9043 35.3079H44.8099C45.0134 35.3079 45.1705 35.3727 45.2815 35.5021C45.411 35.6131 45.4757 35.7702 45.4757 35.9737V37.9431C45.4757 38.1281 45.411 38.2853 45.2815 38.4147C45.1705 38.5442 45.0134 38.6089 44.8099 38.6089H31.5506Z" fill="#635BFF"/>
</svg>
