<svg width="59" height="58" viewBox="0 0 59 58" fill="none" xmlns="http://www.w3.org/2000/svg">
<circle cx="29.5" cy="29" r="29" fill="#635BFF" fill-opacity="0.3"/>
<path d="M22.2068 38.8863C20.8938 38.8863 19.775 38.6921 18.8504 38.3038C17.9258 37.9154 17.1676 37.3791 16.5758 36.6949C15.984 36.0107 15.5402 35.2247 15.2443 34.3371C14.9484 33.4309 14.7727 32.4693 14.7173 31.4522C14.6988 30.9529 14.6803 30.4074 14.6618 29.8156C14.6618 29.2053 14.6618 28.5951 14.6618 27.9848C14.6803 27.3745 14.6988 26.8105 14.7173 26.2927C14.7543 25.2756 14.9299 24.3232 15.2443 23.4356C15.5587 22.5294 16.0118 21.7435 16.6035 21.0778C17.2138 20.412 17.9812 19.885 18.9059 19.4966C19.8305 19.1083 20.9308 18.9141 22.2068 18.9141C23.5013 18.9141 24.6109 19.1083 25.5355 19.4966C26.4602 19.885 27.2184 20.412 27.8101 21.0778C28.4204 21.7435 28.8735 22.5294 29.1694 23.4356C29.4837 24.3232 29.6594 25.2756 29.6964 26.2927C29.7334 26.8105 29.7519 27.3745 29.7519 27.9848C29.7519 28.5951 29.7519 29.2053 29.7519 29.8156C29.7519 30.4074 29.7334 30.9529 29.6964 31.4522C29.6594 32.4693 29.493 33.4309 29.1971 34.3371C28.9012 35.2247 28.4574 36.0107 27.8656 36.6949C27.2738 37.3791 26.5064 37.9154 25.5633 38.3038C24.6386 38.6921 23.5198 38.8863 22.2068 38.8863ZM22.2068 35.6963C23.4089 35.6963 24.2873 35.3079 24.842 34.5312C25.4153 33.736 25.7112 32.6635 25.7297 31.3135C25.7667 30.7772 25.7852 30.2409 25.7852 29.7046C25.7852 29.1498 25.7852 28.5951 25.7852 28.0403C25.7852 27.4855 25.7667 26.9585 25.7297 26.4591C25.7112 25.1462 25.4153 24.0921 24.842 23.2969C24.2873 22.4832 23.4089 22.0764 22.2068 22.0764C21.0233 22.0764 20.1449 22.4832 19.5716 23.2969C19.0168 24.0921 18.7209 25.1462 18.684 26.4591C18.684 26.9585 18.6747 27.4855 18.6562 28.0403C18.6562 28.5951 18.6562 29.1498 18.6562 29.7046C18.6747 30.2409 18.684 30.7772 18.684 31.3135C18.7209 32.6635 19.0261 33.736 19.5994 34.5312C20.1726 35.3079 21.0418 35.6963 22.2068 35.6963ZM39.023 38.6089C38.8196 38.6089 38.6532 38.5442 38.5237 38.4147C38.4128 38.2853 38.3573 38.1281 38.3573 37.9431V23.5743L34.1409 26.8198C33.9745 26.9307 33.8081 26.9769 33.6416 26.9585C33.4752 26.9215 33.3273 26.8198 33.1978 26.6533L32.0328 25.1554C31.9218 24.989 31.8756 24.8133 31.8941 24.6284C31.9311 24.4434 32.0328 24.2955 32.1992 24.1845L38.4128 19.3857C38.5237 19.2932 38.6347 19.2377 38.7456 19.2192C38.8566 19.2007 38.9768 19.1915 39.1062 19.1915H41.5473C41.7322 19.1915 41.8894 19.2562 42.0189 19.3857C42.1483 19.5151 42.213 19.6723 42.213 19.8572V37.9431C42.213 38.1281 42.1483 38.2853 42.0189 38.4147C41.8894 38.5442 41.7322 38.6089 41.5473 38.6089H39.023Z" fill="#635BFF"/>
</svg>
