<svg width="59" height="58" viewBox="0 0 59 58" fill="none" xmlns="http://www.w3.org/2000/svg">
<circle cx="29.5" cy="29" r="29" fill="#635BFF" fill-opacity="0.3"/>
<path d="M20.5437 38.8863C19.2307 38.8863 18.1119 38.6921 17.1872 38.3038C16.2626 37.9154 15.5044 37.3791 14.9126 36.6949C14.3209 36.0107 13.877 35.2247 13.5811 34.3371C13.2853 33.4309 13.1096 32.4693 13.0541 31.4522C13.0356 30.9529 13.0171 30.4074 12.9986 29.8156C12.9986 29.2053 12.9986 28.5951 12.9986 27.9848C13.0171 27.3745 13.0356 26.8105 13.0541 26.2927C13.0911 25.2756 13.2668 24.3232 13.5811 23.4356C13.8955 22.5294 14.3486 21.7435 14.9404 21.0778C15.5506 20.412 16.3181 19.885 17.2427 19.4966C18.1673 19.1083 19.2677 18.9141 20.5437 18.9141C21.8382 18.9141 22.9477 19.1083 23.8724 19.4966C24.797 19.885 25.5552 20.412 26.147 21.0778C26.7572 21.7435 27.2103 22.5294 27.5062 23.4356C27.8206 24.3232 27.9962 25.2756 28.0332 26.2927C28.0702 26.8105 28.0887 27.3745 28.0887 27.9848C28.0887 28.5951 28.0887 29.2053 28.0887 29.8156C28.0887 30.4074 28.0702 30.9529 28.0332 31.4522C27.9962 32.4693 27.8298 33.4309 27.5339 34.3371C27.238 35.2247 26.7942 36.0107 26.2024 36.6949C25.6107 37.3791 24.8432 37.9154 23.9001 38.3038C22.9755 38.6921 21.8566 38.8863 20.5437 38.8863ZM20.5437 35.6963C21.7457 35.6963 22.6241 35.3079 23.1789 34.5312C23.7522 33.736 24.048 32.6635 24.0665 31.3135C24.1035 30.7772 24.122 30.2409 24.122 29.7046C24.122 29.1498 24.122 28.5951 24.122 28.0403C24.122 27.4855 24.1035 26.9585 24.0665 26.4591C24.048 25.1462 23.7522 24.0921 23.1789 23.2969C22.6241 22.4832 21.7457 22.0764 20.5437 22.0764C19.3601 22.0764 18.4817 22.4832 17.9084 23.2969C17.3537 24.0921 17.0578 25.1462 17.0208 26.4591C17.0208 26.9585 17.0115 27.4855 16.9931 28.0403C16.9931 28.5951 16.9931 29.1498 16.9931 29.7046C17.0115 30.2409 17.0208 30.7772 17.0208 31.3135C17.0578 32.6635 17.3629 33.736 17.9362 34.5312C18.5095 35.3079 19.3786 35.6963 20.5437 35.6963ZM40.6331 38.6089C40.4481 38.6089 40.291 38.5442 40.1615 38.4147C40.0321 38.2853 39.9673 38.1281 39.9673 37.9431V34.3925H31.174C30.9706 34.3925 30.8042 34.3278 30.6747 34.1984C30.5638 34.0689 30.5083 33.9117 30.5083 33.7268V31.8405C30.5083 31.7296 30.5268 31.6001 30.5638 31.4522C30.6193 31.2858 30.7025 31.1378 30.8134 31.0084L38.9965 19.6631C39.2369 19.3487 39.579 19.1915 40.0228 19.1915H43.0464C43.2313 19.1915 43.3885 19.2562 43.5179 19.3857C43.6474 19.5151 43.7121 19.6723 43.7121 19.8572V31.1193H46.1809C46.4028 31.1193 46.5693 31.184 46.6802 31.3135C46.8097 31.4245 46.8744 31.5816 46.8744 31.7851V33.7268C46.8744 33.9117 46.8097 34.0689 46.6802 34.1984C46.5508 34.3278 46.3936 34.3925 46.2086 34.3925H43.7121V37.9431C43.7121 38.1281 43.6474 38.2853 43.5179 38.4147C43.3885 38.5442 43.2313 38.6089 43.0464 38.6089H40.6331ZM34.364 31.2303H40.0506V23.2137L34.364 31.2303Z" fill="#635BFF"/>
</svg>
