<svg width="59" height="58" viewBox="0 0 59 58" fill="none" xmlns="http://www.w3.org/2000/svg">
<circle cx="29.5" cy="29" r="29" fill="#635BFF" fill-opacity="0.3"/>
<path d="M20.3552 38.8863C19.0422 38.8863 17.9234 38.6921 16.9988 38.3038C16.0741 37.9154 15.3159 37.3791 14.7241 36.6949C14.1324 36.0107 13.6885 35.2247 13.3927 34.3371C13.0968 33.4309 12.9211 32.4693 12.8656 31.4522C12.8471 30.9529 12.8286 30.4074 12.8101 29.8156C12.8101 29.2053 12.8101 28.5951 12.8101 27.9848C12.8286 27.3745 12.8471 26.8105 12.8656 26.2927C12.9026 25.2756 13.0783 24.3232 13.3927 23.4356C13.707 22.5294 14.1601 21.7435 14.7519 21.0778C15.3621 20.412 16.1296 19.885 17.0542 19.4966C17.9789 19.1083 19.0792 18.9141 20.3552 18.9141C21.6497 18.9141 22.7592 19.1083 23.6839 19.4966C24.6085 19.885 25.3667 20.412 25.9585 21.0778C26.5688 21.7435 27.0218 22.5294 27.3177 23.4356C27.6321 24.3232 27.8078 25.2756 27.8448 26.2927C27.8817 26.8105 27.9002 27.3745 27.9002 27.9848C27.9002 28.5951 27.9002 29.2053 27.9002 29.8156C27.9002 30.4074 27.8817 30.9529 27.8448 31.4522C27.8078 32.4693 27.6413 33.4309 27.3454 34.3371C27.0496 35.2247 26.6057 36.0107 26.014 36.6949C25.4222 37.3791 24.6548 37.9154 23.7116 38.3038C22.787 38.6921 21.6682 38.8863 20.3552 38.8863ZM20.3552 35.6963C21.5572 35.6963 22.4356 35.3079 22.9904 34.5312C23.5637 33.736 23.8596 32.6635 23.8781 31.3135C23.915 30.7772 23.9335 30.2409 23.9335 29.7046C23.9335 29.1498 23.9335 28.5951 23.9335 28.0403C23.9335 27.4855 23.915 26.9585 23.8781 26.4591C23.8596 25.1462 23.5637 24.0921 22.9904 23.2969C22.4356 22.4832 21.5572 22.0764 20.3552 22.0764C19.1716 22.0764 18.2932 22.4832 17.72 23.2969C17.1652 24.0921 16.8693 25.1462 16.8323 26.4591C16.8323 26.9585 16.8231 27.4855 16.8046 28.0403C16.8046 28.5951 16.8046 29.1498 16.8046 29.7046C16.8231 30.2409 16.8323 30.7772 16.8323 31.3135C16.8693 32.6635 17.1744 33.736 17.7477 34.5312C18.321 35.3079 19.1901 35.6963 20.3552 35.6963ZM38.1145 38.8863C36.82 38.8863 35.7012 38.7291 34.7581 38.4147C33.8149 38.1003 33.029 37.6935 32.4003 37.1942C31.79 36.6764 31.3277 36.1216 31.0133 35.5298C30.6989 34.9196 30.5325 34.3186 30.514 33.7268C30.514 33.5604 30.5695 33.4309 30.6804 33.3385C30.8099 33.2275 30.9578 33.172 31.1243 33.172H33.6208C33.8057 33.172 33.9629 33.209 34.0923 33.283C34.2218 33.3569 34.3327 33.5049 34.4252 33.7268C34.5916 34.2261 34.8598 34.6237 35.2296 34.9196C35.618 35.2155 36.0618 35.4281 36.5611 35.5576C37.0604 35.6685 37.5875 35.724 38.1423 35.724C39.2518 35.724 40.1302 35.4651 40.7775 34.9473C41.4432 34.411 41.7761 33.6528 41.7761 32.6727C41.7761 31.6926 41.4709 30.9899 40.8607 30.5645C40.2504 30.1207 39.3998 29.8988 38.3087 29.8988H35.4516C35.2481 29.8988 35.0817 29.8433 34.9523 29.7324C34.8228 29.6029 34.7581 29.4365 34.7581 29.2331V28.068C34.7581 27.8831 34.7951 27.7259 34.869 27.5965C34.9615 27.4485 35.054 27.3283 35.1464 27.2358L40.1117 22.3815H32.1783C31.9749 22.3815 31.8085 22.3168 31.679 22.1873C31.5681 22.0579 31.5126 21.9007 31.5126 21.7158V19.885C31.5126 19.6816 31.5681 19.5151 31.679 19.3857C31.8085 19.2562 31.9749 19.1915 32.1783 19.1915H44.0784C44.2818 19.1915 44.4483 19.2562 44.5777 19.3857C44.7072 19.5151 44.7719 19.6816 44.7719 19.885V21.5493C44.7719 21.7158 44.7349 21.8637 44.6609 21.9931C44.587 22.1226 44.5038 22.2336 44.4113 22.326L39.6124 27.2636L39.9453 27.2913C41.0734 27.3838 42.072 27.6427 42.9411 28.068C43.8288 28.4749 44.513 29.0759 44.9938 29.8711C45.4931 30.6662 45.7428 31.6649 45.7428 32.8669C45.7428 34.1244 45.4099 35.2062 44.7442 36.1124C44.0969 37 43.2 37.6842 42.0535 38.1651C40.9069 38.6459 39.5939 38.8863 38.1145 38.8863Z" fill="#635BFF"/>
</svg>
