<svg width="23" height="23" viewBox="0 0 23 23" fill="none" xmlns="http://www.w3.org/2000/svg">
<path d="M9.80957 2.6742C10.4609 1.546 12.0894 1.546 12.7407 2.6742L19.3358 14.0973C19.9872 15.2255 19.173 16.6357 17.8703 16.6357H4.68003C3.37729 16.6357 2.56308 15.2255 3.21445 14.0973L9.80957 2.6742Z" fill="#FFBD3E"/>
<path d="M10.7471 11.3514L10.6305 6.05882H11.4472L11.3305 11.3514H10.7471ZM11.0335 13.6742C10.8567 13.6742 10.7118 13.6141 10.5987 13.4939C10.4855 13.3737 10.429 13.2323 10.429 13.0696C10.429 12.8929 10.4855 12.7479 10.5987 12.6348C10.7118 12.5146 10.8567 12.4545 11.0335 12.4545C11.2032 12.4545 11.3446 12.5146 11.4578 12.6348C11.5709 12.7479 11.6275 12.8929 11.6275 13.0696C11.6275 13.2323 11.5709 13.3737 11.4578 13.4939C11.3446 13.6141 11.2032 13.6742 11.0335 13.6742Z" fill="white"/>
</svg>
