<svg width="178" height="129" viewBox="0 0 178 129" fill="none" xmlns="http://www.w3.org/2000/svg">
<path d="M6.31404 95.3249C6.06507 95.1541 5.76728 95.115 5.48902 95.0223C4.40039 94.6708 3.3313 94.2607 2.32078 93.7188C1.81307 93.4503 1.33955 93.133 0.905071 92.7571C0.675629 92.5619 0.48524 92.3422 0.324143 92.0981C-0.0322236 91.5562 -0.110331 90.9704 0.167928 90.37C0.270444 90.1454 0.333908 89.916 0.402253 89.6816C1.53482 85.8202 2.88217 82.0368 4.43945 78.3267C5.4939 75.8175 6.64599 73.3522 7.91525 70.9406C9.49205 67.9481 11.2104 65.0386 13.1289 62.2512C14.4031 60.3912 15.7504 58.585 17.1905 56.8471C18.2548 55.5632 19.3629 54.3281 20.5004 53.1125C21.4279 52.1216 22.4042 51.1891 23.4001 50.2763C26.0411 47.8549 28.8774 45.6972 31.992 43.9105C34.1009 42.6998 36.3025 41.6893 38.6263 40.957C38.7092 40.9326 38.7922 40.918 38.8752 40.8984C38.8118 41.1523 38.6897 41.3915 38.5189 41.5819C38.2455 41.8894 38.2748 42.2165 38.4017 42.5533C38.5042 42.8316 38.6653 43.0757 38.8459 43.31C39.3878 44.0179 40.0468 44.6037 40.7449 45.1504C42.4291 46.4734 44.2647 47.5425 46.2076 48.4358C47.3109 48.9435 48.4385 49.378 49.615 49.6807C50.3229 49.8613 51.0356 49.9833 51.7679 49.9443C52.2561 49.915 52.5978 49.7246 52.8419 49.2657C53.7596 47.5181 54.7067 45.7851 55.644 44.052C55.7904 43.7787 56.0004 43.7282 56.2737 43.9007C56.5129 44.1253 56.7521 44.3498 56.9962 44.5695C58.6365 46.0438 59.9546 47.767 61.0578 49.666C62.4491 52.063 63.3913 54.6405 64.065 57.3255C64.4116 58.7217 64.6752 60.1325 64.8656 61.5531C64.973 62.3586 65.0609 63.164 65.1243 63.9793C65.1731 64.5993 65.2122 65.2241 65.222 65.8441C65.2073 65.8636 65.1927 65.8832 65.1731 65.9027C64.7875 66.0052 64.7777 66.0052 64.7777 66.3225C64.7777 67.9823 64.7777 69.6421 64.6996 71.3068C64.6606 72.2197 64.5434 73.1325 64.5629 74.0503C64.5629 74.104 64.5629 74.1577 64.5483 74.2065C64.4116 74.7142 64.519 75.2415 64.3823 75.7492C64.3188 75.9835 64.4409 76.1495 64.6898 76.208C63.3864 76.9989 62.0879 77.7946 60.7796 78.5806C58.8952 79.7131 57.0011 80.8408 55.1168 81.9685C53.5595 82.9058 52.0022 83.848 50.4449 84.7853C50.3424 84.8487 50.2253 84.8878 50.1179 84.9415C50.0983 84.629 50.0886 84.3166 50.1716 84.0139C50.2009 83.9163 50.2057 83.8089 50.2009 83.7064C50.1911 83.1352 50.3522 82.5738 50.3278 81.9978C50.3278 81.949 50.3473 81.8953 50.3522 81.8465C50.4059 81.3339 50.4889 80.8164 50.5133 80.2989C50.5377 79.7473 50.6012 79.1908 50.6597 78.644C50.7232 78.1119 50.7427 77.5749 50.8062 77.0428C50.8745 76.4961 50.9771 75.9444 50.9478 75.3879C50.9478 75.3342 50.9575 75.2854 50.9624 75.2317C51.021 74.6654 51.1089 74.0991 51.1381 73.5329C51.1674 72.9812 51.2944 72.4345 51.27 71.8779C51.27 71.8438 51.2797 71.8096 51.2846 71.7754C51.3432 71.2775 51.431 70.7796 51.4506 70.2816C51.4701 69.7105 51.6068 69.1491 51.5824 68.573C51.5824 68.49 51.6117 68.4021 51.6312 68.3192C51.6898 68.0604 51.6751 67.8017 51.6703 67.543C51.6654 67.3233 51.4555 67.2256 51.2553 67.3282C51.1137 67.3965 51.0552 67.5137 51.0503 67.665C51.0405 68.1141 50.9526 68.5584 50.9233 69.0075C50.8989 69.4175 50.8843 69.8374 50.8159 70.2474C50.7525 70.6282 50.7574 71.009 50.7183 71.3849C50.6549 71.9316 50.567 72.4833 50.5475 73.0349C50.523 73.6061 50.3864 74.1675 50.4156 74.7435C50.4156 74.7777 50.4059 74.8119 50.401 74.846C50.3424 75.4123 50.2692 75.9786 50.2253 76.5449C50.1862 77.0623 50.1472 77.5847 50.0837 78.0924C50.0153 78.6245 49.9909 79.1615 49.9372 79.6936C49.8787 80.2404 49.7761 80.792 49.7957 81.3485C49.7957 81.4022 49.7859 81.451 49.781 81.5047C49.7224 82.0368 49.6541 82.5689 49.6053 83.1011C49.5565 83.6673 49.5223 84.2385 49.4832 84.8097C49.4832 84.8634 49.4832 84.9171 49.4588 84.961C49.3368 85.2441 49.4588 85.4248 49.7029 85.5566C49.6395 86.1961 49.576 86.8307 49.5125 87.4702C49.4637 87.9877 49.4247 88.5051 49.3807 89.0226C49.3368 89.5401 49.2928 90.0575 49.244 90.575C49.1903 91.1266 49.1269 91.6783 49.0781 92.2299C49.0292 92.7815 49.0146 93.3381 48.9365 93.8848C48.8779 94.2998 48.873 94.7147 48.8291 95.1248C48.7754 95.6227 48.7119 96.1206 48.668 96.6235C48.6143 97.1946 48.5801 97.7609 48.5313 98.3321C48.4874 98.8154 48.4337 99.2938 48.3751 99.7771C48.3604 99.9089 48.38 100.016 48.4776 100.109C48.5655 100.192 48.6485 100.28 48.7412 100.363C49.5076 101.066 50.2692 101.774 51.0356 102.477C51.9778 103.346 52.9151 104.219 53.8573 105.093C55.3169 106.45 56.7814 107.803 58.2411 109.16C59.0807 109.941 59.9106 110.727 60.7454 111.508C60.8089 111.566 60.8821 111.61 60.9504 111.664C61.0822 111.781 61.2092 111.898 61.341 112.016C61.463 112.138 61.5753 112.265 61.7022 112.387C62.0537 112.719 62.415 113.041 62.7664 113.373C62.8494 113.451 62.9715 113.509 62.9666 113.68C62.8494 113.827 62.7176 113.983 62.5907 114.149C62.288 114.549 61.9219 114.896 61.6583 115.325C61.5607 115.423 61.4581 115.516 61.3751 115.623C59.7593 117.571 58.1483 119.519 56.5373 121.467C56.3421 121.706 56.1175 121.926 55.9662 122.204C55.7026 122.428 55.5024 122.711 55.2827 122.975C55.1949 123.082 55.1021 123.185 55.0094 123.283C54.9605 123.336 54.8873 123.351 54.819 123.312C54.7262 123.263 54.6384 123.209 54.5505 123.156C53.8768 122.731 53.208 122.306 52.5392 121.886C52.0852 121.603 51.6312 121.33 51.1723 121.052C51.021 120.905 50.8501 120.783 50.6402 120.725C50.5767 120.671 50.5133 120.607 50.4449 120.559C49.493 119.958 48.5411 119.358 47.5891 118.757C44.2939 116.678 40.9988 114.593 37.7085 112.514C35.746 111.274 33.7836 110.034 31.826 108.794C30.3029 107.827 29.0971 106.558 28.2037 104.996C27.5398 103.844 27.1249 102.599 26.9198 101.286C26.7978 100.529 26.7832 99.7673 26.8124 99.0058C27.1688 98.83 27.2372 98.7421 27.1932 98.4248C27.159 98.2003 27.1298 97.9806 27.1249 97.756C27.0761 95.5739 27.1395 93.3918 27.037 91.2096C26.9296 88.9445 27.037 86.6696 26.9296 84.4045C26.8271 82.3102 26.9296 80.216 26.832 78.1168C26.7246 75.8175 26.8466 73.5084 26.7197 71.2043C26.6611 70.1303 26.7002 69.0563 26.6953 67.9774C26.6953 67.8212 26.7148 67.6601 26.6758 67.5088C26.583 67.1329 26.6074 66.7521 26.6025 66.3713C26.6025 66.0443 26.6025 65.7123 26.6025 65.3852C26.6025 65.3022 26.5928 65.2095 26.5732 65.1314C26.5342 64.9996 26.3584 64.9312 26.2315 64.9947C26.0997 65.063 26.0118 65.1656 25.9923 65.312C25.9777 65.434 25.9777 65.5561 25.9777 65.6733C25.9777 66.4543 26.0216 67.2305 26.0558 68.0067C26.1437 69.8569 26.0655 71.712 26.1534 73.567C26.2608 75.798 26.1534 78.0338 26.2608 80.2696C26.3682 82.3981 26.2608 84.5314 26.3633 86.6598C26.4756 88.9445 26.3487 91.234 26.4707 93.5187C26.5391 94.7977 26.4951 96.0865 26.5 97.3655C26.5 97.5559 26.4951 97.7463 26.4903 97.9367C26.1095 97.9318 25.7238 97.9513 25.3479 97.9074C24.4009 97.8 23.444 97.8488 22.4921 97.7463C21.7891 97.6682 21.0715 97.6779 20.3686 97.5998C19.939 97.551 19.5045 97.5412 19.0749 97.4973C18.2645 97.4094 17.459 97.3167 16.6487 97.219C15.7358 97.1068 14.8278 97.0091 13.9198 96.8724C12.9776 96.7309 12.0452 96.5551 11.1079 96.3891C9.76054 96.1548 8.42783 95.8521 7.10488 95.4958C6.85591 95.4274 6.6167 95.3103 6.34821 95.3396L6.31404 95.3249Z" fill="#635BFF"/>
<path d="M50.1032 84.936C50.2106 84.8823 50.3277 84.8433 50.4302 84.7798C51.9875 83.8425 53.5448 82.9004 55.1021 81.9631C56.9864 80.8305 58.8805 79.7077 60.7649 78.5751C62.0683 77.7892 63.3717 76.9935 64.6751 76.2026C64.8118 76.1733 64.9241 76.105 65.0022 75.9878C65.1096 75.9341 65.2268 75.8951 65.3293 75.8316C66.6083 75.0652 67.8825 74.2987 69.1566 73.5274C70.0304 72.9953 70.914 72.4876 71.8611 72.0971C74.0383 71.1988 76.3034 70.7985 78.6564 70.8718C78.9152 70.8815 79.169 70.9889 79.4278 70.9255C80.9362 71.0866 82.3959 71.4234 83.8067 71.9897C84.6122 72.3119 85.3884 72.6927 86.1304 73.1418C94.527 78.2188 102.924 83.2958 111.32 88.3777C117.09 91.8681 122.856 95.3634 128.626 98.8539C129.412 99.1761 129.636 99.8644 129.705 100.611C129.783 101.422 129.768 102.242 129.656 103.052C129.641 103.14 129.641 103.223 129.636 103.311C129.509 103.413 129.436 103.545 129.417 103.701C129.329 104.38 129.153 105.039 128.972 105.698C128.919 105.898 128.938 106.064 129.021 106.235C128.875 106.894 128.68 107.538 128.475 108.178C127.835 110.155 127.078 112.079 126.141 113.934C125.79 114.627 125.428 115.315 125.048 115.994C124.691 116.623 124.315 117.248 123.871 117.824C123.617 117.761 123.456 117.858 123.315 118.083C123.041 118.522 122.729 118.942 122.431 119.362C122.177 119.718 121.86 120.011 121.484 120.241C121.03 120.519 120.556 120.612 120.054 120.358C119.868 120.265 119.678 120.182 119.482 120.104C118.164 119.577 116.846 119.055 115.533 118.522C114.01 117.907 112.487 117.287 110.964 116.672C109.646 116.14 108.328 115.618 107.014 115.091C105.618 114.529 104.222 113.968 102.826 113.406C101.718 112.962 100.614 112.513 99.5063 112.069C98.1248 111.512 96.7482 110.956 95.3666 110.399C94.0827 109.882 92.7988 109.369 91.5149 108.852C90.1529 108.3 88.7909 107.744 87.424 107.197C85.7691 106.533 84.1142 105.874 82.4642 105.21C81.2438 104.722 80.0233 104.238 78.8078 103.736C77.1919 103.067 75.5517 102.461 73.9553 101.749C73.5941 101.588 73.2084 101.475 72.8423 101.324C72.6568 101.251 72.5201 101.265 72.3688 101.397C71.5291 102.144 70.6797 102.881 69.84 103.628C69.3616 104.053 68.893 104.492 68.4194 104.922C68.3706 104.971 68.3169 105.015 68.2632 105.059C67.858 105.41 67.448 105.752 67.0477 106.108C66.5839 106.523 66.1397 106.962 65.6564 107.358C65.3049 107.646 64.9925 107.963 64.6507 108.261C64.1674 108.681 63.689 109.101 63.2057 109.525C62.6834 109.979 62.1611 110.433 61.6485 110.897C61.3946 111.127 61.1164 111.346 60.9211 111.634C60.8527 111.581 60.7795 111.537 60.7161 111.478C59.8813 110.697 59.0465 109.911 58.2117 109.13C56.7521 107.773 55.2876 106.421 53.8279 105.063C52.8858 104.19 51.9485 103.321 51.0063 102.447C50.2447 101.739 49.4783 101.036 48.7119 100.333C48.624 100.25 48.5361 100.162 48.4483 100.079C48.3555 99.9864 48.3311 99.879 48.3457 99.7472C48.4043 99.2688 48.458 98.7855 48.502 98.3022C48.5557 97.7311 48.5849 97.1648 48.6386 96.5936C48.6826 96.0957 48.746 95.5978 48.7997 95.0949C48.8437 94.68 48.8534 94.265 48.9071 93.855C48.9804 93.3082 48.9999 92.7517 49.0487 92.2001C49.0975 91.6484 49.161 91.0968 49.2147 90.5452C49.2635 90.0277 49.3074 89.5102 49.3514 88.9928C49.3953 88.4753 49.4344 87.9578 49.4832 87.4404C49.5418 86.8009 49.6101 86.1662 49.6736 85.5267C49.8444 85.4828 49.9714 85.3949 50.0055 85.2045C50.0202 85.1069 50.0641 85.0142 50.0934 84.9214L50.1032 84.936Z" fill="#FFDE9E"/>
<path d="M61.6435 115.298C61.9071 114.868 62.2732 114.522 62.5759 114.121C62.6979 113.955 62.8346 113.799 62.9518 113.653C62.9518 113.482 62.8346 113.423 62.7516 113.345C62.4002 113.013 62.0389 112.691 61.6874 112.359C61.5605 112.242 61.4482 112.115 61.3262 111.988C61.9169 111.641 62.3416 111.1 62.8688 110.685C63.3277 110.319 63.7426 109.894 64.182 109.503C64.9338 108.839 65.7051 108.195 66.4471 107.521C67.0525 106.975 67.6578 106.433 68.2729 105.901C68.927 105.334 69.5714 104.753 70.2158 104.177C70.9627 103.508 71.7145 102.84 72.4517 102.161C72.6079 102.015 72.7494 101.961 72.9594 102.054C73.4182 102.254 73.8869 102.43 74.3555 102.62C75.4637 103.064 76.5718 103.508 77.68 103.958C79.042 104.509 80.404 105.066 81.7709 105.613C83.0694 106.135 84.3729 106.652 85.6763 107.175C87.0725 107.736 88.4686 108.297 89.8648 108.864C90.973 109.308 92.0811 109.752 93.1893 110.201C94.5366 110.748 95.884 111.3 97.2313 111.842C98.3883 112.305 99.5502 112.759 100.702 113.228C102.225 113.843 103.748 114.463 105.276 115.078C106.258 115.474 107.239 115.859 108.22 116.255C109.953 116.953 111.691 117.646 113.424 118.344C115.064 119.003 116.7 119.662 118.335 120.321C118.897 120.546 119.458 120.775 120.019 121.005C120.385 121.151 120.752 121.161 121.132 121.039C121.889 120.79 122.446 120.292 122.948 119.701C123.339 119.237 123.661 118.725 123.993 118.222C124.1 118.271 124.213 118.329 124.325 118.373C125.687 118.915 127.049 119.457 128.406 119.999C128.367 120.263 128.206 120.477 128.118 120.722C128.05 120.912 127.845 121.093 127.928 121.288C128.001 121.454 128.24 121.483 128.416 121.561C133.132 123.704 137.852 125.842 142.568 127.99C142.915 128.147 143.276 128.269 143.593 128.488C143.408 128.547 143.212 128.518 143.022 128.523C136.881 128.523 130.74 128.527 124.598 128.532C116.548 128.532 108.498 128.542 100.453 128.547C93.3943 128.552 86.3304 128.562 79.2714 128.571C79.0469 128.571 78.8223 128.557 78.5978 128.547C78.671 128.459 78.7735 128.449 78.876 128.435C79.3398 128.381 79.7938 128.274 80.2331 128.117C80.5602 128 80.8824 127.863 81.1607 127.658C81.6049 127.331 81.6196 126.995 81.229 126.628C81.1411 126.545 81.0386 126.482 80.9361 126.418C80.6823 126.267 80.4089 126.15 80.1257 126.072C79.1396 125.799 78.1389 125.623 77.1137 125.618C76.8355 125.618 76.5572 125.598 76.2838 125.618C76.0251 125.633 75.8786 125.53 75.7468 125.31C75.3221 124.612 74.7998 123.987 74.1847 123.45C73.306 122.684 72.3345 122.054 71.2654 121.59C70.4404 121.234 69.5861 120.946 68.6878 120.834C68.5219 120.814 68.3949 120.751 68.2729 120.648C67.6139 120.116 66.9499 119.594 66.2909 119.062C64.7434 117.812 63.1959 116.562 61.6532 115.313L61.6435 115.298Z" fill="#FFDE9E"/>
<path d="M45.3197 29.0069C45.1538 28.8604 44.9292 28.8848 44.7339 28.8311C43.7869 28.5822 42.8984 28.2209 42.1222 27.6107C41.2874 26.9565 40.355 26.8833 39.3689 27.2006C39.0565 27.3031 38.7636 27.4594 38.4804 27.6205C37.753 28.0354 36.9817 28.3137 36.1421 28.4211C34.3798 28.6456 32.8518 28.1526 31.5581 26.9565C30.5818 26.0534 30.0399 24.9062 29.8056 23.6077C29.6982 23.0072 29.5371 22.4263 29.2539 21.8844C28.8488 21.1277 28.2776 20.5761 27.4526 20.249C25.5389 19.4826 24.3917 18.0425 23.9524 16.041C23.2299 12.7165 25.2314 9.29442 28.3557 8.25949C28.5217 8.20579 28.6828 8.14721 28.8488 8.10815C29.8105 7.90312 30.3279 7.27338 30.533 6.34585C30.6111 5.98948 30.6404 5.62335 30.7331 5.27675C31.397 2.76265 32.9055 1.00034 35.4342 0.258321C37.4406 -0.33237 39.2664 0.0923423 40.8383 1.50805C41.1898 1.82536 41.5657 2.07433 42.0392 2.19637C42.5176 2.31841 42.9619 2.23542 43.411 2.07921C43.6941 1.98157 43.9431 1.82536 44.1872 1.66914C44.8169 1.26396 45.4955 0.971054 46.2229 0.79043C49.0103 0.102105 51.8466 1.58615 52.8474 4.35898C53.0866 5.01313 53.2233 5.69169 53.2135 6.39466C53.2086 6.84378 53.1989 7.29779 53.194 7.74691C53.194 8.15209 53.2623 8.54263 53.4185 8.91364C53.6041 9.36276 53.9067 9.68984 54.3754 9.87046C56.1426 10.5539 57.2751 11.828 57.817 13.6343C57.8805 13.8442 57.9537 13.9906 58.2222 14.0151C59.7111 14.1469 61.1463 14.5325 62.5523 15.0305C63.9094 15.5089 65.2079 16.1093 66.4577 16.8221C66.5602 16.8806 66.6529 16.9685 66.8043 16.9539C66.8873 16.8367 66.9751 16.7098 67.0679 16.5877C68.2297 15.0158 69.7821 14.0639 71.7202 13.8442C75.2692 13.439 78.1592 15.6602 79.0086 18.6625C80.0924 22.48 77.8077 26.1852 74.1073 27.103C73.048 27.3666 71.9789 27.3422 70.9147 27.0883C70.529 26.9956 70.1531 26.8638 69.7528 26.8345C69.7089 26.8101 69.665 26.771 69.6162 26.7613C67.6342 26.2194 65.7547 25.4237 63.9192 24.5157C61.2586 23.2025 58.7299 21.655 56.2988 19.9512C56.2255 19.9024 56.1621 19.8439 56.0889 19.795C55.9522 19.7072 55.8545 19.7413 55.8204 19.8927C55.7764 20.0977 55.7374 20.2979 55.6934 20.5029C55.4738 21.4646 55.2004 22.4165 54.8245 23.3294C54.7757 23.4466 54.7708 23.6028 54.5902 23.6467C54.5121 23.5247 54.4339 23.4124 54.3705 23.2904C54.1118 22.8315 53.7505 22.4556 53.3551 22.1139C53.0622 21.8649 52.7351 21.6696 52.3641 21.5622C51.5098 21.3133 50.758 21.4841 50.1234 22.1236C49.7377 22.519 49.4936 22.9926 49.3618 23.5198C49.1226 24.4669 49.1666 25.409 49.4253 26.3414C49.6059 27.0005 49.9086 27.6009 50.3138 28.1526C50.4749 28.3674 50.4651 28.4064 50.2064 28.5138C49.9818 28.6066 49.7572 28.7042 49.5278 28.7725C48.3122 29.1289 47.0821 29.2119 45.8274 29.0264C45.6566 29.002 45.4808 29.002 45.31 28.9922L45.3197 29.0069Z" fill="#0B0A0B"/>
<path d="M26.7878 98.9892C26.7634 99.7507 26.778 100.512 26.8952 101.269C27.1051 102.582 27.52 103.822 28.1791 104.979C29.0773 106.541 30.2782 107.81 31.8013 108.777C33.7638 110.017 35.7213 111.257 37.6838 112.497C40.979 114.577 44.2741 116.661 47.5644 118.741C48.5164 119.341 49.4683 119.942 50.4203 120.542C50.4935 120.586 50.5521 120.649 50.6155 120.708C50.2884 120.991 49.9516 121.265 49.6343 121.557C49.0485 122.099 48.409 122.573 47.7597 123.037C46.2171 124.13 44.5817 125.067 42.8389 125.824C41.5355 126.39 40.2028 126.874 38.8261 127.24C37.7229 127.533 36.6147 127.791 35.4821 127.938C35.2088 127.972 34.9354 128.011 34.662 128.045C34.1299 128.109 33.6027 128.192 33.0657 128.221C32.3578 128.255 31.6451 128.226 30.9421 128.324C30.6785 128.358 30.6785 128.348 30.5955 128.67C30.4247 128.572 30.2294 128.572 30.039 128.558C28.2328 128.45 26.4705 128.128 24.7326 127.635C21.2031 126.639 18.0153 124.97 15.179 122.646C11.9717 120.025 9.5113 116.822 7.79293 113.053C6.85563 110.993 6.20148 108.85 5.8207 106.614C5.50339 104.764 5.37158 102.899 5.44969 101.025C5.5278 99.2381 5.77189 97.4758 6.20636 95.7379C6.24053 95.6012 6.26983 95.4694 6.29912 95.3327C6.56761 95.3034 6.80682 95.4206 7.05578 95.4889C8.37873 95.8453 9.71145 96.148 11.0588 96.3823C11.9961 96.5483 12.9334 96.724 13.8707 96.8656C14.7787 97.0023 15.6916 97.0999 16.5996 97.2122C17.4051 97.3098 18.2154 97.4026 19.0258 97.4905C19.4554 97.5393 19.8899 97.5442 20.3195 97.593C21.0224 97.6711 21.7401 97.6613 22.443 97.7394C23.3901 97.8419 24.3469 97.798 25.2988 97.9005C25.6747 97.9445 26.0604 97.9201 26.4412 97.9298C26.4509 98.1348 26.4656 98.3448 26.4753 98.5498C26.4802 98.7597 26.5681 98.9159 26.7731 98.994L26.7878 98.9892Z" fill="#FFDE9E"/>
<path d="M45.3187 29.0066C45.4896 29.0164 45.6653 29.0115 45.8362 29.0408C47.0908 29.2263 48.321 29.1433 49.5365 28.7869C49.766 28.7186 49.9905 28.6209 50.2151 28.5282C50.4738 28.4208 50.4836 28.3866 50.3225 28.1669C49.9173 27.6202 49.6146 27.0148 49.434 26.3558C49.1753 25.4185 49.1362 24.4763 49.3705 23.5342C49.5024 23.0069 49.7464 22.5285 50.1321 22.138C50.7618 21.4985 51.5185 21.3276 52.3728 21.5766C52.7438 21.684 53.0709 21.8793 53.3638 22.1282C53.7592 22.4699 54.1205 22.841 54.3792 23.3047C54.4476 23.4268 54.5257 23.539 54.5989 23.6611C54.7795 23.6172 54.7893 23.4609 54.8332 23.3438C55.2091 22.4309 55.4825 21.479 55.7022 20.5173C55.7461 20.3171 55.7851 20.1121 55.8291 19.907C55.8633 19.7557 55.9609 19.7215 56.0976 19.8094C56.1708 19.8582 56.2343 19.9119 56.3075 19.9656C58.7386 21.6693 61.2673 23.212 63.9279 24.53C65.7634 25.438 67.6429 26.2338 69.6249 26.7756C69.6737 26.7903 69.7176 26.8245 69.7616 26.8489C69.7469 27.5616 69.6102 28.2597 69.5175 28.9627C69.3661 30.0952 69.1953 31.2229 69.0342 32.3555C68.878 33.4539 68.7169 34.5474 68.5607 35.6409C68.4728 36.2413 68.3947 36.8418 68.3068 37.4422C68.2922 37.5447 68.2824 37.6473 68.2629 37.7498C68.1067 38.5992 67.6624 38.98 66.8081 38.9897C66.3248 38.9946 65.8366 38.9897 65.3533 38.9897C65.0604 38.9897 64.7431 38.9409 64.4795 39.0386C64.2306 39.1313 64.1573 39.4682 64.0011 39.6927C62.4585 41.87 60.3789 43.2124 57.7525 43.7201C57.2594 43.8129 56.7517 43.8129 56.2587 43.9057C55.9886 43.7332 55.7786 43.7836 55.6289 44.057C54.6916 45.7949 53.7446 47.5279 52.8268 49.2707C52.5876 49.7296 52.241 49.92 51.7528 49.9492C51.0157 49.9932 50.303 49.8711 49.6 49.6856C48.4235 49.383 47.2958 48.9436 46.1925 48.4408C44.2496 47.5474 42.4141 46.4783 40.7299 45.1554C40.0318 44.6086 39.3727 44.0228 38.8309 43.315C38.6502 43.0806 38.4892 42.8317 38.3866 42.5583C38.2646 42.2215 38.2353 41.8944 38.5038 41.5868C38.6747 41.3964 38.7967 41.1572 38.8602 40.9034C38.948 40.7569 39.0457 40.6154 39.1287 40.464C41.1253 36.7686 43.117 33.0682 45.1088 29.3678C45.1722 29.2458 45.2455 29.1286 45.3138 29.0066H45.3187ZM52.5974 24.4959C52.2703 24.5886 52.0213 24.657 51.7724 24.7302C51.294 24.8766 50.9181 25.1793 50.6007 25.5552C50.4689 25.7065 50.4836 25.9116 50.6105 26.0239C50.7277 26.1264 50.8985 26.1264 51.0401 26.0141C51.1329 25.936 51.2207 25.853 51.3037 25.7651C51.6845 25.3551 52.1971 25.2672 52.7097 25.1793C52.8415 25.1549 52.944 25.2281 52.9928 25.3551C53.1295 25.7017 53.1539 26.0678 53.0807 26.429C53.0416 26.6292 53.0123 26.8391 52.9098 27.0246C52.778 27.2638 52.573 27.4103 52.3386 27.5323C52.1922 27.6104 52.1483 27.7422 52.1971 27.8789C52.241 28.0156 52.3582 28.0839 52.5241 28.0791C52.7438 28.0693 52.9196 27.9668 53.0807 27.8301C53.5103 27.4737 53.6714 26.9807 53.7202 26.4534C53.8227 25.3795 53.4712 24.4422 52.7634 23.6367C52.4704 23.3047 52.0848 23.0948 51.6552 22.9972C51.4404 22.9484 51.2061 22.9337 50.9962 23.046C50.8741 23.1095 50.8107 23.212 50.8351 23.3389C50.8595 23.4707 50.9327 23.5586 51.0645 23.5879C51.1329 23.6025 51.2012 23.5976 51.2695 23.6025C51.87 23.622 52.2361 23.9833 52.5925 24.4959H52.5974ZM57.7183 34.9379C57.6109 34.9379 57.5084 34.9867 57.4596 35.1136C57.4303 35.1918 57.3912 35.2796 57.3912 35.3626C57.3619 36.0216 57.3278 36.6758 57.5914 37.3055C57.8941 38.028 58.309 38.648 58.9827 39.0679C59.0998 39.1411 59.217 39.2192 59.3635 39.2094C59.4757 39.2045 59.5636 39.1557 59.6173 39.0581C59.6759 38.9556 59.6564 38.8579 59.588 38.7701C59.4904 38.6431 59.3586 38.565 59.2317 38.4723C58.6556 38.0427 58.2895 37.4715 58.0942 36.7832C57.9575 36.3048 57.9624 35.8264 58.0552 35.348C58.1089 35.0795 57.9966 34.9428 57.7183 34.9379ZM63.1859 32.3115C63.1956 32.3945 63.1956 32.4824 63.2152 32.5654C63.2689 32.8046 63.4836 32.9462 63.718 32.8827C63.8303 32.8534 63.9523 32.8046 64.045 32.7362C64.4112 32.4629 64.5967 32.087 64.6455 31.6378C64.6601 31.5158 64.6309 31.3986 64.5772 31.2864C64.4502 31.0423 64.2403 30.9788 63.9767 31.0667C63.6008 31.1936 63.1615 31.7941 63.1907 32.3066L63.1859 32.3115Z" fill="#A5486A"/>
<path d="M160.089 115.725C160.089 115.032 160.089 114.338 160.089 113.645C160.089 113.543 160.089 113.435 160.089 113.333C160.094 113.24 160.147 113.172 160.25 113.167C160.387 113.167 160.528 113.162 160.665 113.162C161.534 113.162 162.398 113.152 163.267 113.152C163.794 113.152 164.253 112.981 164.639 112.625C165.098 112.2 165.322 111.678 165.317 111.053C165.307 110.13 165.405 109.218 165.615 108.319C166.572 104.282 168.939 101.382 172.674 99.5956C173.899 99.0098 175.203 98.6681 176.555 98.5363C176.902 98.5021 177.243 98.4484 177.59 98.4582C177.8 98.4631 177.819 98.4777 177.824 98.7023C177.834 99.2246 177.839 99.7421 177.844 100.264C177.863 103.262 177.883 106.264 177.897 109.261C177.912 112.645 177.922 116.023 177.936 119.406C177.951 122.301 177.976 125.195 178 128.09C178 128.178 178 128.266 178 128.349C177.995 128.618 177.985 128.627 177.697 128.632C177.629 128.632 177.561 128.632 177.487 128.632C174.851 128.647 172.215 128.666 169.579 128.681C166.63 128.696 163.682 128.715 160.733 128.73C160.611 128.73 160.489 128.73 160.367 128.73C160.191 128.725 160.182 128.71 160.143 128.52C160.128 128.452 160.118 128.383 160.104 128.315C160.113 128.193 160.128 128.076 160.128 127.954C160.118 124.737 160.113 121.524 160.099 118.307C160.099 117.443 160.084 116.579 160.074 115.715L160.089 115.725Z" fill="#0C0B0C"/>
<path d="M143.583 128.488C143.266 128.273 142.905 128.146 142.558 127.99C137.842 125.847 133.127 123.704 128.406 121.561C128.235 121.483 127.991 121.458 127.918 121.288C127.835 121.092 128.04 120.912 128.108 120.721C128.196 120.477 128.352 120.262 128.396 119.999C128.47 119.862 128.553 119.73 128.616 119.594C129.104 118.52 129.587 117.446 130.076 116.376C131.008 114.326 131.945 112.276 132.868 110.225C133.117 109.674 133.41 109.142 133.595 108.561C133.717 108.317 133.844 108.068 133.966 107.824C134.04 107.667 134.108 107.506 134.181 107.35C134.269 107.174 134.313 107.16 134.508 107.243C134.572 107.267 134.635 107.296 134.699 107.326C135.436 107.663 136.178 107.999 136.915 108.336C137.057 108.4 137.198 108.473 137.345 108.522C138.316 108.859 139.336 108.468 139.834 107.57C139.893 107.462 139.946 107.355 139.995 107.243C140.425 106.33 140.962 105.485 141.597 104.704C141.67 104.611 141.733 104.509 141.802 104.411C141.997 104.216 142.187 104.016 142.382 103.821C144.198 101.99 146.366 100.813 148.895 100.311C150.022 100.086 151.15 100.008 152.302 100.101C153.659 100.208 154.958 100.516 156.212 101.043C156.325 101.092 156.437 101.131 156.54 101.228C156.466 101.399 156.393 101.57 156.315 101.746C155.553 103.43 154.787 105.114 154.025 106.799C153.957 106.955 153.859 107.101 153.85 107.282C153.742 107.355 153.718 107.482 153.669 107.589C153.493 107.965 153.322 108.346 153.152 108.722C150.359 114.873 147.572 121.024 144.784 127.175C144.584 127.614 144.399 128.058 144.208 128.503C144.13 128.595 144.052 128.669 143.915 128.6C143.813 128.552 143.696 128.527 143.588 128.493L143.583 128.488Z" fill="#0B0A0B"/>
<path d="M74.3506 59.3019C75.3074 58.1156 76.2642 56.9294 77.2259 55.7431C77.3236 55.6211 77.431 55.5039 77.4505 55.3428C77.5432 54.6886 77.7776 54.0735 77.9582 53.4438C78.0802 53.1948 78.1925 52.941 78.3194 52.6969C79.784 49.7874 82.0881 47.9226 85.2417 47.1073C85.7983 46.9657 86.3694 46.9316 86.9259 46.8046C87.0285 46.8046 87.131 46.8193 87.2384 46.8193C88.2294 46.7851 89.2106 46.873 90.1723 47.1171C90.2211 47.1317 90.2748 47.1317 90.3236 47.1415C90.4261 47.161 90.4896 47.1171 90.514 47.0194C90.5384 46.9169 90.5628 46.8193 90.5872 46.7168C90.885 45.4866 91.2805 44.2857 91.9639 43.2068C91.9981 43.1482 92.0176 43.0799 92.0469 43.0164C92.1445 42.9188 92.247 42.8309 92.3349 42.7284C92.5643 42.4648 92.8426 42.2744 93.1794 42.1719C93.6139 42.2158 93.8531 42.4941 94.0045 42.87C94.2144 43.3923 94.2925 43.9391 94.3169 44.4956C94.3755 45.8234 94.1802 47.1171 93.858 48.401C93.6334 49.2943 93.3357 50.1584 92.9158 50.9785C92.662 51.4765 92.3349 51.9158 91.959 52.3259C91.2951 53.0533 90.6605 53.8099 90.0112 54.552C87.131 57.8325 84.3679 61.2107 81.5902 64.5693C81.4682 64.7157 81.3412 64.8573 81.2192 65.0038C81.1508 64.9549 81.0776 64.9061 81.0093 64.8524C79.2226 63.3733 77.431 61.899 75.6491 60.4149C75.2098 60.0488 74.746 59.7168 74.3555 59.3019H74.3506Z" fill="#A5496A"/>
<path d="M74.3515 59.3014C74.7469 59.7164 75.2106 60.0532 75.6451 60.4145C77.4269 61.8985 79.2185 63.3728 81.0053 64.852C81.0736 64.9057 81.1468 64.9545 81.2152 65.0033C81.4397 65.1937 81.6594 65.389 81.884 65.5793C82.0255 65.7063 82.172 65.8283 82.3136 65.9601C82.3868 66.0285 82.3966 66.1163 82.3477 66.1993C82.2355 66.3946 82.1183 66.585 81.9963 66.7754C81.2152 68.0202 80.4292 69.2651 79.6481 70.5148C79.5651 70.6466 79.5017 70.7882 79.4333 70.9248C79.1697 70.9883 78.9208 70.8809 78.662 70.8711C76.309 70.7979 74.0439 71.1982 71.8667 72.0965C70.9196 72.487 70.036 72.9996 69.1622 73.5268C67.888 74.2981 66.609 75.0646 65.3349 75.831C65.2324 75.8945 65.1152 75.9384 65.0078 75.9872C65.0371 75.543 65.0322 75.089 65.1103 74.6496C65.2275 74.0003 65.1884 73.3462 65.2665 72.692C65.3544 71.9744 65.2568 71.2422 65.3837 70.5245C65.3837 69.143 65.3837 67.7615 65.3984 66.38C65.3984 66.1652 65.3202 66.0187 65.164 65.8918C65.1787 65.8722 65.1933 65.8527 65.2128 65.8332C65.33 65.843 65.4032 65.7697 65.4765 65.6916C66.2038 64.9008 66.9361 64.1148 67.6684 63.324C69.1719 61.6935 70.6755 60.0581 72.184 58.4374C72.7014 57.8857 72.5452 57.8418 73.175 58.3593C73.5606 58.6766 73.9219 59.0329 74.3563 59.2917L74.3515 59.3014Z" fill="#635BFF"/>
<path d="M61.6433 115.295C63.1908 116.545 64.7334 117.794 66.2809 119.044C66.94 119.576 67.6039 120.099 68.2629 120.631C68.3898 120.733 68.5119 120.797 68.6779 120.816C69.5761 120.924 70.4304 121.212 71.2554 121.573C72.3245 122.037 73.296 122.666 74.1747 123.433C74.7898 123.97 75.317 124.595 75.7369 125.293C75.8687 125.512 76.0151 125.62 76.2738 125.6C76.5521 125.581 76.8255 125.6 77.1037 125.6C78.1289 125.61 79.1297 125.786 80.1158 126.054C80.3989 126.132 80.6723 126.254 80.9261 126.401C81.0287 126.459 81.136 126.528 81.219 126.611C81.6096 126.977 81.5949 127.314 81.1507 127.641C80.8724 127.846 80.5502 127.983 80.2232 128.1C79.7838 128.256 79.3298 128.363 78.866 128.417C78.7586 128.427 78.661 128.441 78.5878 128.529C77.8458 128.598 77.1037 128.617 76.3568 128.617C72.7053 128.617 69.0538 128.617 65.4071 128.617C65.08 128.617 64.7529 128.588 64.4259 128.573C64.3624 128.554 64.2989 128.529 64.2306 128.515C63.596 128.363 63.0248 128.109 62.5659 127.626C62.4732 127.529 62.356 127.446 62.2535 127.358C61.7604 126.952 61.2723 126.542 60.7792 126.137C60.2617 125.708 59.7443 125.283 59.2219 124.853C58.7289 124.448 58.2407 124.038 57.7476 123.633C57.1472 123.14 56.5467 122.652 55.9414 122.164C56.0879 121.885 56.3124 121.666 56.5126 121.426C58.1235 119.474 59.7345 117.526 61.3504 115.583C61.4382 115.476 61.5408 115.383 61.6335 115.285L61.6433 115.295Z" fill="#A5486A"/>
<path d="M144.208 128.498C144.398 128.054 144.589 127.61 144.784 127.17C147.572 121.019 150.364 114.868 153.151 108.717C153.322 108.337 153.493 107.961 153.669 107.585C153.718 107.477 153.742 107.351 153.849 107.277C153.991 107.419 154.015 107.614 154.074 107.795C154.406 108.82 154.626 109.87 154.801 110.929C155.031 112.315 155.114 113.716 155.231 115.113C155.231 115.283 155.221 115.459 155.221 115.63C155.221 116.719 155.216 117.812 155.211 118.901C155.211 119.037 155.226 119.184 155.197 119.316C155.065 119.926 155.143 120.556 155.026 121.171C154.953 121.556 154.953 121.962 154.889 122.352C154.704 123.475 154.518 124.598 154.167 125.686C153.849 126.658 153.493 127.615 152.702 128.327C152.4 128.469 152.082 128.513 151.745 128.513C149.388 128.508 147.03 128.513 144.672 128.513C144.516 128.513 144.359 128.503 144.203 128.498H144.208Z" fill="#FFDE9E"/>
<path d="M55.9517 122.174C56.5521 122.662 57.1575 123.151 57.7579 123.644C58.251 124.049 58.7392 124.459 59.2322 124.864C59.7497 125.294 60.2672 125.718 60.7895 126.148C61.2826 126.553 61.7707 126.963 62.2638 127.368C62.3712 127.456 62.4835 127.534 62.5762 127.637C63.0351 128.12 63.6063 128.374 64.2409 128.525C64.3043 128.54 64.3727 128.565 64.4362 128.584C64.2653 128.594 64.0895 128.608 63.9187 128.608C54.8484 128.618 45.783 128.623 36.7128 128.628C36.5224 128.628 36.332 128.652 36.1465 128.599C36.166 128.506 36.2197 128.447 36.3173 128.433C37.5183 128.272 38.685 127.964 39.842 127.617C41.9362 126.988 43.9426 126.138 45.8319 125.035C46.6813 124.537 47.5063 123.995 48.3069 123.419C49.1612 122.799 49.9569 122.106 50.7722 121.437C50.9186 121.32 51.0358 121.164 51.1676 121.027C51.6216 121.305 52.0805 121.579 52.5345 121.862C53.2082 122.282 53.877 122.711 54.5458 123.131C54.6336 123.185 54.7215 123.239 54.8142 123.287C54.8826 123.326 54.9509 123.312 55.0046 123.258C55.1023 123.16 55.1901 123.053 55.278 122.951C55.4977 122.687 55.6978 122.404 55.9615 122.179L55.9517 122.174Z" fill="#FFDE9E"/>
<path d="M152.703 128.328C153.494 127.615 153.85 126.659 154.168 125.687C154.519 124.603 154.71 123.476 154.89 122.353C154.954 121.962 154.949 121.562 155.027 121.172C155.144 120.556 155.071 119.932 155.198 119.316C155.227 119.185 155.212 119.038 155.212 118.902C155.212 117.813 155.217 116.719 155.222 115.631C155.222 115.46 155.227 115.284 155.232 115.113C156.677 115.313 158.122 115.509 159.567 115.704C159.738 115.728 159.909 115.719 160.079 115.723C160.089 116.588 160.099 117.452 160.104 118.316C160.114 121.533 160.123 124.745 160.133 127.962C160.133 128.084 160.118 128.201 160.109 128.323C159.142 128.333 158.176 128.343 157.204 128.348C155.823 128.353 154.436 128.357 153.055 128.357C152.933 128.357 152.815 128.338 152.693 128.328H152.703Z" fill="#A5486A"/>
<path d="M93.1793 42.1724C92.8424 42.27 92.5642 42.4653 92.3347 42.7289C92.2469 42.8314 92.1444 42.9193 92.0467 43.0169C91.9588 43.0706 91.8661 43.1194 91.7831 43.178C90.6164 44.0372 89.4447 44.8964 88.2829 45.7605C87.8289 46.0973 87.3798 46.4537 86.9307 46.8003C86.3741 46.9272 85.803 46.9565 85.2465 47.1029C82.088 47.9182 79.7887 49.783 78.3242 52.6925C78.1972 52.9415 78.0849 53.1905 77.9629 53.4394C77.5821 53.6493 77.2551 53.9374 76.9036 54.1912C76.6302 54.3865 76.3422 54.5232 75.9907 54.5134C75.4293 54.4988 74.9509 54.1863 74.7507 53.6445C74.5554 53.1124 74.6336 52.6193 75.0387 52.2043C75.1461 52.0921 75.2731 51.9993 75.4 51.9066C78.5878 49.5438 81.7755 47.181 84.9633 44.8232C87.3602 43.0511 89.7523 41.279 92.1492 39.5118C92.2469 39.4386 92.3445 39.3703 92.4519 39.3068C93.0768 38.9455 93.8481 39.1018 94.2581 39.6778C94.6926 40.2929 94.595 41.0642 94.0092 41.5378C93.7407 41.7574 93.4624 41.9576 93.1842 42.1675L93.1793 42.1724Z" fill="#635BFF"/>
<path d="M141.812 104.404C141.743 104.502 141.68 104.604 141.607 104.697C140.972 105.478 140.435 106.328 140.005 107.236C139.952 107.343 139.903 107.455 139.844 107.563C139.342 108.461 138.321 108.851 137.355 108.515C137.208 108.466 137.067 108.393 136.925 108.329C136.183 107.992 135.446 107.655 134.709 107.319C134.645 107.289 134.582 107.26 134.518 107.236C134.323 107.153 134.279 107.167 134.191 107.343C134.113 107.499 134.05 107.66 133.977 107.816C133.854 108.065 133.732 108.31 133.606 108.554C132.727 108.046 131.853 107.533 130.96 107.04C130.447 106.757 129.969 106.415 129.412 106.215C129.578 106.01 129.637 105.756 129.7 105.512C129.866 104.887 129.988 104.253 130.071 103.613C130.535 103.652 130.999 103.701 131.467 103.73C132.244 103.779 133.02 103.813 133.796 103.867C135.09 103.955 136.383 104.048 137.672 104.141C138.312 104.184 138.946 104.223 139.586 104.263C140.328 104.311 141.07 104.355 141.812 104.404Z" fill="#FFDE9E"/>
<path d="M51.1576 121.028C51.0258 121.165 50.9086 121.321 50.7622 121.438C49.9469 122.107 49.1561 122.8 48.2969 123.42C47.4963 124.001 46.6761 124.538 45.8218 125.036C43.9277 126.139 41.9262 126.984 39.832 127.619C38.675 127.965 37.5082 128.273 36.3073 128.434C36.2097 128.448 36.156 128.507 36.1365 128.6C35.2919 128.6 34.4572 128.727 33.6175 128.79C32.7632 128.854 31.8991 128.883 31.0448 128.917C30.8496 128.927 30.6592 128.898 30.6104 128.654C30.6885 128.331 30.6933 128.346 30.957 128.307C31.6648 128.209 32.3727 128.239 33.0805 128.204C33.6126 128.18 34.1447 128.092 34.6768 128.029C34.9502 127.994 35.2236 127.955 35.497 127.921C36.6295 127.775 37.7426 127.521 38.841 127.223C40.2127 126.857 41.5454 126.374 42.8537 125.807C44.5916 125.051 46.227 124.113 47.7745 123.02C48.4238 122.561 49.0633 122.083 49.6491 121.541C49.9664 121.248 50.3033 120.975 50.6304 120.691C50.8354 120.75 51.0063 120.867 51.1625 121.018L51.1576 121.028Z" fill="#FFBD3E"/>
<path d="M130.071 103.615C129.988 104.255 129.866 104.889 129.7 105.514C129.637 105.758 129.573 106.012 129.412 106.217C129.285 106.266 129.158 106.256 129.027 106.237C128.939 106.066 128.919 105.9 128.978 105.7C129.158 105.041 129.334 104.382 129.422 103.703C129.442 103.542 129.515 103.41 129.642 103.312C129.857 103.312 130.037 103.361 130.071 103.615Z" fill="#FFBD3E"/>
<path d="M123.989 118.219C123.657 118.722 123.335 119.239 122.944 119.698C122.446 120.289 121.885 120.787 121.128 121.036C120.743 121.163 120.381 121.148 120.015 121.002C119.454 120.777 118.893 120.548 118.331 120.318C116.696 119.659 115.055 119 113.42 118.341C111.687 117.643 109.954 116.945 108.216 116.252C107.235 115.856 106.254 115.471 105.272 115.075C103.749 114.46 102.226 113.84 100.698 113.225C99.5413 112.761 98.3794 112.307 97.2273 111.839C95.88 111.297 94.5326 110.745 93.1853 110.198C92.0771 109.749 90.969 109.305 89.8608 108.861C88.4646 108.299 87.0685 107.733 85.6723 107.172C84.3689 106.649 83.0703 106.132 81.7669 105.609C80.4 105.058 79.038 104.506 77.676 103.955C76.5678 103.505 75.4597 103.061 74.3515 102.617C73.8878 102.431 73.4142 102.256 72.9554 102.051C72.7406 101.958 72.6039 102.012 72.4477 102.158C71.7056 102.837 70.9587 103.505 70.2118 104.174C69.5674 104.75 68.9279 105.336 68.2689 105.897C67.6538 106.43 67.0436 106.971 66.4431 107.518C65.7011 108.192 64.9298 108.836 64.178 109.5C63.7386 109.891 63.3237 110.315 62.8648 110.682C62.3327 111.101 61.9129 111.643 61.3222 111.985C61.1904 111.868 61.0634 111.751 60.9316 111.634C61.1269 111.341 61.4003 111.126 61.659 110.896C62.1716 110.433 62.6988 109.984 63.2163 109.525C63.6996 109.105 64.178 108.685 64.6613 108.26C64.9981 107.962 65.3154 107.645 65.6669 107.357C66.1502 106.962 66.5896 106.522 67.0582 106.107C67.4585 105.751 67.8686 105.404 68.2738 105.058C68.3275 105.014 68.3812 104.97 68.43 104.921C68.9035 104.492 69.3722 104.052 69.8506 103.627C70.6902 102.881 71.5397 102.143 72.3793 101.397C72.5306 101.265 72.6673 101.245 72.8528 101.323C73.219 101.475 73.6046 101.587 73.9659 101.748C75.5622 102.461 77.2025 103.066 78.8183 103.735C80.0339 104.238 81.2543 104.721 82.4747 105.209C84.1297 105.873 85.7846 106.532 87.4346 107.196C88.7966 107.743 90.1586 108.299 91.5255 108.851C92.8094 109.368 94.0933 109.886 95.3772 110.398C96.7587 110.955 98.1354 111.511 99.5169 112.068C100.625 112.512 101.728 112.961 102.836 113.406C104.233 113.967 105.629 114.528 107.025 115.09C108.343 115.617 109.661 116.139 110.974 116.671C112.497 117.287 114.021 117.907 115.544 118.522C116.862 119.054 118.18 119.576 119.493 120.103C119.683 120.181 119.879 120.264 120.064 120.357C120.567 120.611 121.04 120.518 121.494 120.24C121.865 120.011 122.188 119.718 122.442 119.361C122.744 118.942 123.052 118.522 123.325 118.082C123.467 117.858 123.628 117.76 123.882 117.824C123.926 117.955 124.009 118.073 123.994 118.219H123.989Z" fill="#FFBD3E"/>
<path d="M26.7883 98.9879C26.5881 98.9098 26.5003 98.7585 26.4905 98.5437C26.4856 98.3386 26.471 98.1287 26.4563 97.9237C26.4563 97.7333 26.4661 97.5429 26.4661 97.3525C26.4661 96.0686 26.51 94.7847 26.4368 93.5057C26.3099 91.2211 26.4368 88.9315 26.3294 86.6469C26.2269 84.5136 26.3343 82.3851 26.2269 80.2567C26.1146 78.0209 26.2269 75.785 26.1195 73.5541C26.0267 71.699 26.1097 69.844 26.0218 67.9938C25.9828 67.2176 25.9389 66.4414 25.9437 65.6603C25.9437 65.5383 25.9437 65.4162 25.9584 65.2991C25.9779 65.1526 26.0658 65.0501 26.1976 64.9817C26.3196 64.9183 26.5003 64.9817 26.5393 65.1184C26.5637 65.2014 26.5686 65.2893 26.5686 65.3723C26.5686 65.6994 26.5637 66.0313 26.5686 66.3584C26.5686 66.7392 26.5491 67.1199 26.6418 67.4958C26.676 67.6423 26.6565 67.8083 26.6613 67.9645C26.6662 69.0385 26.6272 70.1173 26.6858 71.1913C26.8127 73.4955 26.6858 75.7997 26.798 78.1038C26.8957 80.203 26.7932 82.2973 26.8957 84.3915C27.0079 86.6615 26.8957 88.9315 27.0031 91.1967C27.1056 93.3788 27.0421 95.5609 27.0909 97.7431C27.0909 97.9676 27.13 98.1873 27.1593 98.4119C27.2032 98.7292 27.1349 98.8171 26.7785 98.9928L26.7883 98.9879Z" fill="#B3AFFF"/>
<path d="M50.1032 84.9365C50.0739 85.0293 50.03 85.122 50.0153 85.2197C49.9812 85.4149 49.8542 85.4979 49.6834 85.5419C49.4344 85.4149 49.3172 85.2343 49.4393 84.9463C49.4588 84.9024 49.4588 84.8438 49.4637 84.795C49.5027 84.2238 49.5369 83.6575 49.5857 83.0864C49.6345 82.5543 49.7029 82.0221 49.7615 81.49C49.7664 81.4363 49.781 81.3875 49.7761 81.3338C49.7566 80.7773 49.8591 80.2257 49.9177 79.6789C49.9763 79.1468 50.0007 78.6098 50.0641 78.0777C50.1276 77.5651 50.1715 77.0477 50.2057 76.5302C50.2448 75.9639 50.3229 75.3976 50.3815 74.8313C50.3815 74.7972 50.3961 74.763 50.3961 74.7288C50.3668 74.1528 50.5035 73.5914 50.5279 73.0202C50.5523 72.4686 50.6402 71.9218 50.6988 71.3702C50.7427 70.9943 50.7378 70.6135 50.7964 70.2327C50.8647 69.8276 50.8794 69.4077 50.9038 68.9928C50.9331 68.5437 51.0161 68.0994 51.0307 67.6503C51.0307 67.499 51.0942 67.3867 51.2358 67.3135C51.4359 67.211 51.6458 67.3135 51.6507 67.5283C51.6556 67.787 51.6702 68.0506 51.6117 68.3045C51.5921 68.3875 51.558 68.4753 51.5628 68.5583C51.5872 69.1344 51.4457 69.6958 51.431 70.2669C51.4164 70.7649 51.3236 71.2628 51.265 71.7607C51.265 71.7949 51.2504 71.8291 51.2504 71.8632C51.2748 72.4198 51.1479 72.9665 51.1186 73.5182C51.0893 74.0844 51.0063 74.6507 50.9429 75.217C50.938 75.2707 50.9282 75.3195 50.9282 75.3732C50.9575 75.9297 50.855 76.4814 50.7866 77.0281C50.7232 77.5602 50.6988 78.0972 50.6402 78.6293C50.5767 79.1761 50.5181 79.7277 50.4937 80.2842C50.4693 80.8017 50.3912 81.3143 50.3326 81.8318C50.3278 81.8855 50.3082 81.9343 50.3082 81.9831C50.3375 82.5591 50.1715 83.1157 50.1813 83.6917C50.1813 83.7942 50.1813 83.9016 50.152 83.9992C50.069 84.3068 50.0788 84.6192 50.0983 84.9268L50.1032 84.9365Z" fill="#B3AFFF"/>
<path d="M65.1586 65.8945C65.3148 66.0215 65.3929 66.1728 65.3929 66.3827C65.3832 67.7642 65.3832 69.1458 65.3783 70.5273C65.2514 71.2449 65.349 71.9772 65.2611 72.6948C65.183 73.3441 65.2221 74.0031 65.1049 74.6524C65.0268 75.0868 65.0317 75.5408 65.0024 75.99C64.9194 76.1022 64.812 76.1706 64.6753 76.2048C64.4312 76.1462 64.3043 75.9802 64.3678 75.7459C64.5045 75.2382 64.3971 74.7061 64.5338 74.2032C64.5484 74.1544 64.5484 74.1007 64.5484 74.047C64.5289 73.1293 64.646 72.2164 64.6851 71.3035C64.7583 69.6437 64.7632 67.9839 64.7632 66.3192C64.7632 66.0019 64.773 66.0019 65.1586 65.8994V65.8945Z" fill="#B3AFFF"/>
<path d="M123.988 118.219C124.003 118.072 123.92 117.955 123.876 117.823C124.315 117.247 124.691 116.622 125.052 115.993C125.438 115.319 125.795 114.626 126.146 113.933C127.083 112.078 127.84 110.154 128.479 108.177C128.684 107.538 128.88 106.893 129.026 106.234C129.158 106.254 129.285 106.259 129.412 106.215C129.968 106.415 130.447 106.756 130.959 107.04C131.848 107.528 132.722 108.045 133.605 108.553C133.42 109.134 133.127 109.666 132.878 110.218C131.955 112.273 131.018 114.318 130.086 116.369C129.597 117.443 129.114 118.517 128.626 119.586C128.562 119.727 128.479 119.859 128.406 119.991C127.044 119.449 125.682 118.907 124.325 118.365C124.213 118.321 124.105 118.263 123.993 118.214L123.988 118.219Z" fill="#A5486A"/>
<path d="M52.5978 24.4947C52.2414 23.9822 51.8753 23.6209 51.2748 23.6014C51.2065 23.6014 51.1333 23.6014 51.0698 23.5867C50.9331 23.5623 50.8599 23.4696 50.8404 23.3378C50.8208 23.2108 50.8794 23.1083 51.0015 23.0449C51.2162 22.9375 51.4457 22.9472 51.6605 22.996C52.0901 23.0937 52.4709 23.3036 52.7686 23.6356C53.4765 24.4362 53.828 25.3734 53.7255 26.4523C53.6766 26.9795 53.5155 27.4677 53.086 27.829C52.9249 27.9657 52.7491 28.0682 52.5294 28.0779C52.3635 28.0828 52.2463 28.0145 52.2024 27.8778C52.1535 27.7411 52.1926 27.6093 52.3439 27.5312C52.5783 27.4091 52.7833 27.2627 52.9151 27.0235C53.0176 26.838 53.0469 26.6281 53.086 26.4279C53.1592 26.0667 53.1348 25.7054 52.9981 25.3539C52.9493 25.2221 52.8419 25.1538 52.7149 25.1782C52.2024 25.266 51.6849 25.349 51.309 25.764C51.226 25.8519 51.1381 25.9397 51.0454 26.013C50.9038 26.1252 50.733 26.1252 50.6158 26.0227C50.4889 25.9104 50.4742 25.7103 50.606 25.5541C50.9233 25.1782 51.2992 24.8755 51.7776 24.7291C52.0266 24.6558 52.2756 24.5875 52.6027 24.4947H52.5978Z" fill="#6E183C"/>
<path d="M57.7179 34.9417C58.001 34.9417 58.1084 35.0833 58.0547 35.3518C57.962 35.8351 57.9571 36.3135 58.0938 36.787C58.2891 37.4754 58.6552 38.0465 59.2312 38.4761C59.3582 38.5689 59.49 38.6519 59.5876 38.7739C59.6559 38.8618 59.6755 38.9643 59.6169 39.0619C59.5632 39.1596 59.4753 39.2084 59.363 39.2133C59.2166 39.2181 59.0945 39.1449 58.9823 39.0717C58.3086 38.6519 57.8936 38.027 57.591 37.3094C57.3273 36.6796 57.3615 36.0206 57.3908 35.3664C57.3908 35.2835 57.4299 35.2005 57.4592 35.1175C57.508 34.9857 57.6105 34.9369 57.7179 34.9417Z" fill="#6E183C"/>
<path d="M63.1865 32.3166C63.1572 31.804 63.5966 31.2036 63.9725 31.0766C64.2361 30.9888 64.446 31.0522 64.5729 31.2963C64.6315 31.4086 64.6559 31.5258 64.6413 31.6478C64.5925 32.0969 64.407 32.4728 64.0408 32.7462C63.9481 32.8145 63.8309 32.8634 63.7137 32.8926C63.4794 32.9512 63.2646 32.8097 63.2109 32.5753C63.1914 32.4923 63.1914 32.4045 63.1816 32.3215L63.1865 32.3166Z" fill="#A5486A"/>
<path d="M64.592 32.2855C64.4162 32.5589 64.2258 32.8078 64.0745 32.9933C64.0208 33.0568 63.9671 33.1251 63.8841 33.1447C63.6254 33.2179 63.3862 32.7883 63.3471 32.5833C63.2934 32.2904 63.4448 32.0072 63.5522 31.7436C64.0891 30.3914 64.4943 29.9813 64.8458 30.4158C65.2705 30.9381 64.9727 31.6801 64.592 32.2855Z" fill="#2B2B2B"/>
</svg>
