<svg width="12" height="12" viewBox="0 0 12 12" fill="none" xmlns="http://www.w3.org/2000/svg">
<path d="M7.90775e-05 6.63237C0.0156162 6.22729 0.251887 5.82386 0.727108 5.59937C1.21465 5.36938 1.68184 5.44897 2.08098 5.81288C2.79997 6.46825 3.50771 7.13734 4.21813 7.80259C4.44155 8.01171 4.57816 8.00348 4.77908 7.77021C5.77345 6.617 6.76997 5.46544 7.76487 4.31333C8.89908 3.0004 10.0328 1.68747 11.167 0.374535C11.2377 0.292203 11.3073 0.209321 11.3807 0.129184C11.52 -0.022857 11.7054 -0.0415193 11.8613 0.0775887C12.0113 0.191757 12.044 0.389904 11.9379 0.564449C9.75469 4.16678 7.57254 7.76966 5.3877 11.3709C4.98266 12.0389 4.19724 12.2008 3.62719 11.7315C3.49378 11.6217 3.38824 11.4741 3.27894 11.3369C2.27707 10.0832 1.2768 8.82791 0.277604 7.57206C0.0916944 7.33823 -0.00313549 7.06708 7.90775e-05 6.63237Z" fill="#635BFF" fill-opacity="0.3"/>
</svg>
