<svg width="219" height="51" viewBox="0 0 219 51" fill="none" xmlns="http://www.w3.org/2000/svg">
<path d="M18.6307 44.9566C15.0878 44.9566 11.6264 44.5697 8.24638 43.796C4.9071 42.9816 2.15831 41.9024 0 40.5585L4.6424 30.052C6.67855 31.233 8.95903 32.19 11.4838 32.923C14.0087 33.6153 16.4317 33.9614 18.7529 33.9614C20.7483 33.9614 22.1736 33.7782 23.0288 33.4117C23.8839 33.0045 24.3115 32.414 24.3115 31.6402C24.3115 30.7443 23.7414 30.0724 22.6012 29.6245C21.5017 29.1765 19.6691 28.6878 17.1036 28.1584C13.805 27.4661 11.0563 26.7331 8.85722 25.9594C6.65819 25.1449 4.74421 23.8418 3.1153 22.05C1.48638 20.2175 0.671927 17.7537 0.671927 14.6588C0.671927 11.9711 1.4253 9.52773 2.93205 7.3287C4.43879 5.12966 6.67855 3.39894 9.65132 2.13653C12.6648 0.874123 16.3095 0.24292 20.5854 0.24292C23.5174 0.24292 26.3884 0.568702 29.1983 1.22027C32.0489 1.83111 34.5533 2.74737 36.7116 3.96906L32.3747 14.4145C28.1802 12.2969 24.2097 11.2381 20.4632 11.2381C16.7575 11.2381 14.9046 12.134 14.9046 13.9258C14.9046 14.781 15.4543 15.4325 16.5538 15.8805C17.6534 16.2877 19.4655 16.7357 21.9903 17.2243C25.2482 17.8352 27.997 18.5478 30.2367 19.3623C32.4765 20.136 34.4108 21.4188 36.0397 23.2106C37.7094 25.0024 38.5442 27.4458 38.5442 30.5407C38.5442 33.2284 37.7908 35.6718 36.2841 37.8708C34.7773 40.0291 32.5172 41.7599 29.5037 43.063C26.5309 44.3254 22.9066 44.9566 18.6307 44.9566Z" fill="black"/>
<path d="M63.5415 0.24292C67.6952 0.24292 71.3603 1.07774 74.5367 2.74738C77.713 4.37629 80.1768 6.77894 81.9278 9.95532C83.7197 13.091 84.6156 16.8375 84.6156 21.1948V43.9793H70.1997V35.3664H56.639V43.9793H42.4674V21.1948C42.4674 16.8375 43.343 13.091 45.094 9.95532C46.8858 6.77894 49.3699 4.37629 52.5463 2.74738C55.7227 1.07774 59.3878 0.24292 63.5415 0.24292ZM70.1997 24.4934V19.9731C70.1997 17.3262 69.5685 15.3307 68.3061 13.9869C67.0844 12.6023 65.4555 11.91 63.4193 11.91C61.3832 11.91 59.7339 12.6023 58.4715 13.9869C57.2498 15.3307 56.639 17.3262 56.639 19.9731V24.4934H70.1997Z" fill="black"/>
<path d="M111.92 0.24292C116.073 0.24292 119.739 1.07774 122.915 2.74738C126.091 4.37629 128.555 6.77894 130.306 9.95532C132.098 13.091 132.994 16.8375 132.994 21.1948V43.9793H118.578V35.3664H105.017V43.9793H90.8457V21.1948C90.8457 16.8375 91.7212 13.091 93.4723 9.95532C95.2641 6.77894 97.7482 4.37629 100.925 2.74738C104.101 1.07774 107.766 0.24292 111.92 0.24292ZM118.578 24.4934V19.9731C118.578 17.3262 117.947 15.3307 116.684 13.9869C115.463 12.6023 113.834 11.91 111.798 11.91C109.761 11.91 108.112 12.6023 106.85 13.9869C105.628 15.3307 105.017 17.3262 105.017 19.9731V24.4934H118.578Z" fill="black"/>
<path d="M162.253 11.91C156.511 11.91 153.64 14.3534 153.64 19.2401V19.4234H168.789V30.2964H153.64V43.9793H139.224V19.5456C139.224 13.3557 141.118 8.5911 144.905 5.25183C148.692 1.91256 154.067 0.24292 161.031 0.24292C163.515 0.24292 165.857 0.487256 168.056 0.975929C170.255 1.42388 172.148 2.05509 173.737 2.86954L169.583 13.7425C168.443 13.1317 167.221 12.6837 165.918 12.3987C164.655 12.0729 163.434 11.91 162.253 11.91Z" fill="black"/>
<path d="M219 1.22027V29.8688C219 34.2669 218.104 38.0337 216.312 41.1694C214.52 44.305 211.975 46.667 208.677 48.2552C205.378 49.8841 201.489 50.6985 197.01 50.6985C193.141 50.6985 189.618 50.2302 186.442 49.2936C183.306 48.3977 180.578 47.1353 178.257 45.5064L183.51 35.3053C185.505 36.5677 187.603 37.5451 189.802 38.2373C192.041 38.8889 194.22 39.2147 196.338 39.2147C199.27 39.2147 201.367 38.5428 202.629 37.1989C203.933 35.8143 204.584 33.6357 204.584 30.6629V29.4412C201.856 32.5361 198.211 34.0836 193.65 34.0836C188.275 34.0836 184.162 32.5769 181.311 29.5634C178.501 26.5092 177.096 22.0907 177.096 16.3081V1.22027H191.512V15.2697C191.512 17.6723 192.021 19.4641 193.039 20.6451C194.098 21.826 195.707 22.4165 197.865 22.4165C199.901 22.4165 201.53 21.826 202.752 20.6451C203.973 19.4234 204.584 17.4687 204.584 14.781V1.22027H219Z" fill="black"/>
</svg>
