<svg width="163" height="38" viewBox="0 0 163 38" fill="none" xmlns="http://www.w3.org/2000/svg">
<path d="M14.3508 33.7221C11.7333 33.7221 9.17607 33.4362 6.67897 32.8646C4.21197 32.2629 2.1812 31.4656 0.586667 30.4728L4.01641 22.7108C5.52068 23.5832 7.20547 24.2903 9.07077 24.8318C10.9361 25.3432 12.7262 25.599 14.441 25.599C15.9152 25.599 16.9682 25.4636 17.6 25.1928C18.2318 24.892 18.5477 24.4557 18.5477 23.8841C18.5477 23.2222 18.1265 22.7258 17.2841 22.3949C16.4718 22.0639 15.1179 21.7029 13.2226 21.3118C10.7856 20.8003 8.75487 20.2588 7.13026 19.6872C5.50564 19.0855 4.09162 18.1227 2.88821 16.799C1.68479 15.4451 1.08308 13.625 1.08308 11.3385C1.08308 9.35282 1.63966 7.54769 2.75282 5.92308C3.86598 4.29846 5.52068 3.01983 7.71692 2.08718C9.94325 1.15453 12.6359 0.688205 15.7949 0.688205C17.961 0.688205 20.0821 0.928888 22.1579 1.41025C24.2639 1.86154 26.1142 2.53846 27.7087 3.44102L24.5046 11.1579C21.4058 9.5935 18.4725 8.81128 15.7046 8.81128C12.9668 8.81128 11.5979 9.47316 11.5979 10.7969C11.5979 11.4287 12.0041 11.9101 12.8164 12.241C13.6287 12.5419 14.9675 12.8728 16.8328 13.2338C19.2397 13.6851 21.2704 14.2116 22.9251 14.8133C24.5798 15.385 26.0089 16.3326 27.2123 17.6564C28.4458 18.9802 29.0626 20.7853 29.0626 23.0718C29.0626 25.0574 28.506 26.8626 27.3928 28.4872C26.2797 30.0817 24.6099 31.3603 22.3836 32.3231C20.1874 33.2557 17.5097 33.7221 14.3508 33.7221ZM47.5302 0.688205C50.5989 0.688205 53.3066 1.30496 55.6533 2.53846C58 3.74188 59.8201 5.51692 61.1138 7.86359C62.4376 10.1802 63.0995 12.948 63.0995 16.1672V33H52.4492V26.6369H42.4307V33H31.961V16.1672C31.961 12.948 32.6078 10.1802 33.9015 7.86359C35.2253 5.51692 37.0605 3.74188 39.4071 2.53846C41.7538 1.30496 44.4615 0.688205 47.5302 0.688205ZM52.4492 18.6041V15.2646C52.4492 13.3091 51.9829 11.8349 51.0502 10.8421C50.1477 9.81914 48.9442 9.30769 47.44 9.30769C45.9357 9.30769 44.7172 9.81914 43.7846 10.8421C42.882 11.8349 42.4307 13.3091 42.4307 15.2646V18.6041H52.4492ZM83.2714 0.688205C86.3401 0.688205 89.0478 1.30496 91.3945 2.53846C93.7411 3.74188 95.5613 5.51692 96.855 7.86359C98.1788 10.1802 98.8406 12.948 98.8406 16.1672V33H88.1904V26.6369H78.1719V33H67.7022V16.1672C67.7022 12.948 68.349 10.1802 69.6427 7.86359C70.9664 5.51692 72.8017 3.74188 75.1483 2.53846C77.495 1.30496 80.2027 0.688205 83.2714 0.688205ZM88.1904 18.6041V15.2646C88.1904 13.3091 87.7241 11.8349 86.7914 10.8421C85.8888 9.81914 84.6854 9.30769 83.1811 9.30769C81.6769 9.30769 80.4584 9.81914 79.5258 10.8421C78.6232 11.8349 78.1719 13.3091 78.1719 15.2646V18.6041H88.1904ZM120.457 9.30769C116.215 9.30769 114.094 11.1128 114.094 14.7231V14.8585H125.285V22.8913H114.094V33H103.443V14.9487C103.443 10.3757 104.842 6.85573 107.64 4.38872C110.438 1.92171 114.41 0.688205 119.554 0.688205C121.389 0.688205 123.119 0.868717 124.744 1.22974C126.368 1.56068 127.767 2.02701 128.941 2.62872L125.872 10.6615C125.03 10.2103 124.127 9.87931 123.164 9.66872C122.232 9.42803 121.329 9.30769 120.457 9.30769ZM162.381 1.41025V22.5754C162.381 25.8246 161.719 28.6075 160.395 30.9241C159.071 33.2407 157.191 34.9856 154.754 36.159C152.317 37.3624 149.444 37.9641 146.135 37.9641C143.277 37.9641 140.674 37.6181 138.327 36.9262C136.011 36.2643 133.995 35.3316 132.28 34.1282L136.161 26.5918C137.636 27.5244 139.185 28.2465 140.81 28.7579C142.464 29.2393 144.074 29.48 145.638 29.48C147.804 29.48 149.354 28.9836 150.286 27.9908C151.249 26.9679 151.731 25.3583 151.731 23.1621V22.2595C149.715 24.546 147.022 25.6892 143.653 25.6892C139.681 25.6892 136.643 24.5761 134.537 22.3497C132.461 20.0933 131.423 16.8291 131.423 12.5569V1.41025H142.073V11.7897C142.073 13.5648 142.449 14.8885 143.201 15.761C143.984 16.6335 145.172 17.0697 146.766 17.0697C148.271 17.0697 149.474 16.6335 150.377 15.761C151.279 14.8585 151.731 13.4144 151.731 11.4287V1.41025H162.381Z" fill="#4B4A4A"/>
</svg>
