<svg width="148" height="35" viewBox="0 0 148 35" fill="none" xmlns="http://www.w3.org/2000/svg">
<path d="M13.3238 30.4876C10.9564 30.4876 8.64351 30.2291 6.38499 29.7121C4.15369 29.1678 2.31694 28.4467 0.874756 27.5488L3.97681 20.5283C5.33737 21.3175 6.86118 21.9569 8.54827 22.4467C10.2354 22.9093 11.8544 23.1406 13.4054 23.1406C14.7388 23.1406 15.6912 23.0181 16.2626 22.7732C16.834 22.5011 17.1197 22.1066 17.1197 21.5896C17.1197 20.9909 16.7388 20.5419 15.9769 20.2426C15.2422 19.9433 14.0177 19.6168 12.3034 19.263C10.0993 18.8004 8.26255 18.3106 6.79316 17.7936C5.32376 17.2494 4.04484 16.3787 2.9564 15.1814C1.86796 13.9569 1.32374 12.3106 1.32374 10.2426C1.32374 8.44664 1.82714 6.81398 2.83395 5.34458C3.84076 3.87519 5.33737 2.71872 7.32377 1.87517C9.33739 1.03163 11.7728 0.609863 14.6299 0.609863C16.5891 0.609863 18.5075 0.827551 20.3851 1.26293C22.2898 1.67109 23.9633 2.28334 25.4055 3.09967L22.5075 10.0793C19.7048 8.66433 17.0517 7.95684 14.5483 7.95684C12.0721 7.95684 10.834 8.55548 10.834 9.75277C10.834 10.3242 11.2013 10.7596 11.936 11.0589C12.6707 11.331 13.8816 11.6303 15.5687 11.9569C17.7456 12.365 19.5823 12.8412 21.0789 13.3854C22.5756 13.9025 23.8681 14.7596 24.9565 15.9569C26.0722 17.1542 26.63 18.7868 26.63 20.8549C26.63 22.6508 26.1266 24.2835 25.1198 25.7529C24.113 27.195 22.6028 28.3515 20.5891 29.2223C18.6027 30.0658 16.181 30.4876 13.3238 30.4876Z" fill="white"/>
<path d="M43.3332 0.609863C46.1087 0.609863 48.5577 1.16769 50.6802 2.28334C52.8027 3.37178 54.4489 4.97723 55.619 7.09969C56.8163 9.19494 57.4149 11.6984 57.4149 14.6099V29.8345H47.7822V24.0794H38.7209V29.8345H29.2515V14.6099C29.2515 11.6984 29.8365 9.19494 31.0066 7.09969C32.2039 4.97723 33.8638 3.37178 35.9862 2.28334C38.1087 1.16769 40.5577 0.609863 43.3332 0.609863ZM47.7822 16.814V13.7936C47.7822 12.0249 47.3604 10.6916 46.5169 9.79359C45.7006 8.86841 44.6121 8.40582 43.2516 8.40582C41.891 8.40582 40.789 8.86841 39.9454 9.79359C39.1291 10.6916 38.7209 12.0249 38.7209 13.7936V16.814H47.7822Z" fill="white"/>
<path d="M75.6596 0.609863C78.4351 0.609863 80.8841 1.16769 83.0066 2.28334C85.129 3.37178 86.7753 4.97723 87.9454 7.09969C89.1427 9.19494 89.7413 11.6984 89.7413 14.6099V29.8345H80.1086V24.0794H71.0473V29.8345H61.5779V14.6099C61.5779 11.6984 62.1629 9.19494 63.333 7.09969C64.5303 4.97723 66.1902 3.37178 68.3126 2.28334C70.4351 1.16769 72.8841 0.609863 75.6596 0.609863ZM80.1086 16.814V13.7936C80.1086 12.0249 79.6868 10.6916 78.8433 9.79359C78.027 8.86841 76.9385 8.40582 75.578 8.40582C74.2174 8.40582 73.1154 8.86841 72.2718 9.79359C71.4555 10.6916 71.0473 12.0249 71.0473 13.7936V16.814H80.1086Z" fill="white"/>
<path d="M109.292 8.40582C105.455 8.40582 103.537 10.0385 103.537 13.3038V13.4263H113.659V20.6916H103.537V29.8345H93.9043V13.5079C93.9043 9.37182 95.1696 6.18812 97.7002 3.95682C100.231 1.72552 103.823 0.609863 108.476 0.609863C110.136 0.609863 111.7 0.773129 113.17 1.09966C114.639 1.39898 115.904 1.82075 116.966 2.36497L114.19 9.63032C113.428 9.22215 112.612 8.92283 111.741 8.73236C110.898 8.51467 110.081 8.40582 109.292 8.40582Z" fill="white"/>
<path d="M147.211 1.26293V20.4059C147.211 23.3447 146.612 25.8617 145.415 27.957C144.217 30.0522 142.517 31.6304 140.313 32.6917C138.109 33.7801 135.51 34.3243 132.517 34.3243C129.932 34.3243 127.578 34.0114 125.455 33.3856C123.36 32.7869 121.537 31.9434 119.986 30.8549L123.496 24.0386C124.83 24.8821 126.231 25.5352 127.7 25.9978C129.197 26.4331 130.653 26.6508 132.068 26.6508C134.027 26.6508 135.428 26.2018 136.272 25.3039C137.143 24.3787 137.578 22.9229 137.578 20.9365V20.1202C135.755 22.1882 133.319 23.2222 130.272 23.2222C126.68 23.2222 123.932 22.2154 122.027 20.2018C120.149 18.161 119.211 15.2086 119.211 11.3446V1.26293H128.843V10.6507C128.843 12.2562 129.183 13.4535 129.864 14.2426C130.571 15.0317 131.646 15.4263 133.088 15.4263C134.449 15.4263 135.537 15.0317 136.353 14.2426C137.17 13.4263 137.578 12.1201 137.578 10.3242V1.26293H147.211Z" fill="white"/>
</svg>
