<svg width="147" height="35" viewBox="0 0 147 35" fill="none" xmlns="http://www.w3.org/2000/svg">
<path d="M12.449 30.5238C10.0817 30.5238 7.76875 30.2653 5.51023 29.7483C3.27893 29.2041 1.44218 28.483 0 27.585L3.10206 20.5646C4.46261 21.3537 5.98643 21.9932 7.67351 22.483C9.3606 22.9456 10.9797 23.1769 12.5307 23.1769C13.864 23.1769 14.8164 23.0544 15.3878 22.8095C15.9593 22.5374 16.245 22.1428 16.245 21.6258C16.245 21.0272 15.864 20.5782 15.1021 20.2789C14.3674 19.9796 13.1429 19.653 11.4286 19.2993C9.22454 18.8367 7.3878 18.3469 5.9184 17.8299C4.449 17.2857 3.17009 16.4149 2.08164 15.2176C0.993203 13.9931 0.448982 12.3469 0.448982 10.2788C0.448982 8.4829 0.952386 6.85023 1.95919 5.38084C2.966 3.91144 4.46261 2.75497 6.44901 1.91143C8.46263 1.06789 10.898 0.646118 13.7552 0.646118C15.7144 0.646118 17.6327 0.863806 19.5103 1.29918C21.4151 1.70735 23.0886 2.3196 24.5307 3.13593L21.6328 10.1156C18.83 8.70058 16.177 7.9931 13.6735 7.9931C11.1973 7.9931 9.95924 8.59174 9.95924 9.78903C9.95924 10.3605 10.3266 10.7958 11.0613 11.0952C11.796 11.3673 13.0069 11.6666 14.694 11.9931C16.8708 12.4013 18.7076 12.8775 20.2042 13.4217C21.7008 13.9387 22.9933 14.7959 24.0818 15.9931C25.1974 17.1904 25.7552 18.8231 25.7552 20.8911C25.7552 22.6871 25.2518 24.3197 24.245 25.7891C23.2382 27.2313 21.728 28.3878 19.7144 29.2585C17.728 30.1021 15.3062 30.5238 12.449 30.5238Z" fill="#2B2B2B"/>
<path d="M42.4585 0.646118C45.234 0.646118 47.683 1.20394 49.8054 2.3196C51.9279 3.40804 53.5742 5.01349 54.7442 7.13595C55.9415 9.2312 56.5402 11.7346 56.5402 14.6462V29.8708H46.9075V24.1156H37.8462V29.8708H28.3767V14.6462C28.3767 11.7346 28.9618 9.2312 30.1319 7.13595C31.3291 5.01349 32.989 3.40804 35.1115 2.3196C37.2339 1.20394 39.6829 0.646118 42.4585 0.646118ZM46.9075 16.8503V13.8299C46.9075 12.0611 46.4857 10.7278 45.6422 9.82984C44.8258 8.90467 43.7374 8.44208 42.3768 8.44208C41.0163 8.44208 39.9142 8.90467 39.0707 9.82984C38.2544 10.7278 37.8462 12.0611 37.8462 13.8299V16.8503H46.9075Z" fill="#2B2B2B"/>
<path d="M74.7848 0.646118C77.5604 0.646118 80.0094 1.20394 82.1318 2.3196C84.2543 3.40804 85.9006 5.01349 87.0706 7.13595C88.2679 9.2312 88.8666 11.7346 88.8666 14.6462V29.8708H79.2338V24.1156H70.1726V29.8708H60.7031V14.6462C60.7031 11.7346 61.2882 9.2312 62.4582 7.13595C63.6555 5.01349 65.3154 3.40804 67.4379 2.3196C69.5603 1.20394 72.0093 0.646118 74.7848 0.646118ZM79.2338 16.8503V13.8299C79.2338 12.0611 78.8121 10.7278 77.9685 9.82984C77.1522 8.90467 76.0638 8.44208 74.7032 8.44208C73.3427 8.44208 72.2406 8.90467 71.3971 9.82984C70.5807 10.7278 70.1726 12.0611 70.1726 13.8299V16.8503H79.2338Z" fill="#2B2B2B"/>
<path d="M108.417 8.44208C104.581 8.44208 102.662 10.0747 102.662 13.3401V13.4625H112.785V20.7279H102.662V29.8708H93.0295V13.5441C93.0295 9.40807 94.2948 6.22438 96.8255 3.99308C99.3561 1.76177 102.948 0.646118 107.601 0.646118C109.261 0.646118 110.826 0.809384 112.295 1.13592C113.764 1.43524 115.03 1.85701 116.091 2.40123L113.315 9.66657C112.553 9.25841 111.737 8.95909 110.866 8.76861C110.023 8.55092 109.206 8.44208 108.417 8.44208Z" fill="#2B2B2B"/>
<path d="M146.336 1.29918V20.4421C146.336 23.3809 145.737 25.898 144.54 27.9932C143.343 30.0885 141.642 31.6667 139.438 32.7279C137.234 33.8164 134.635 34.3606 131.642 34.3606C129.057 34.3606 126.703 34.0477 124.581 33.4218C122.485 32.8232 120.662 31.9796 119.111 30.8912L122.622 24.0748C123.955 24.9184 125.356 25.5714 126.826 26.034C128.322 26.4694 129.778 26.6871 131.193 26.6871C133.152 26.6871 134.554 26.2381 135.397 25.3401C136.268 24.415 136.703 22.9592 136.703 20.9728V20.1564C134.88 22.2245 132.445 23.2585 129.397 23.2585C125.805 23.2585 123.057 22.2517 121.152 20.2381C119.275 18.1972 118.336 15.2448 118.336 11.3809V1.29918H127.968V10.687C127.968 12.2924 128.309 13.4897 128.989 14.2788C129.696 15.068 130.771 15.4625 132.213 15.4625C133.574 15.4625 134.662 15.068 135.479 14.2788C136.295 13.4625 136.703 12.1564 136.703 10.3605V1.29918H146.336Z" fill="#2B2B2B"/>
</svg>
