<svg width="17" height="20" viewBox="0 0 17 20" fill="none" xmlns="http://www.w3.org/2000/svg">
<path fill-rule="evenodd" clip-rule="evenodd" d="M8.6167 0C13.1657 0 16.8667 3.729 16.8667 8.313C16.8667 13.948 10.4107 19.5 8.6167 19.5C6.8227 19.5 0.366699 13.948 0.366699 8.313C0.366699 3.729 4.0677 0 8.6167 0ZM8.6167 1.5C4.8947 1.5 1.8667 4.557 1.8667 8.313C1.8667 13.092 7.4907 17.748 8.6167 17.996C9.7427 17.747 15.3667 13.091 15.3667 8.313C15.3667 4.557 12.3387 1.5 8.6167 1.5ZM8.6177 5C10.4097 5 11.8677 6.458 11.8677 8.251C11.8677 10.043 10.4097 11.5 8.6177 11.5C6.8257 11.5 5.3677 10.043 5.3677 8.251C5.3677 6.458 6.8257 5 8.6177 5ZM8.6177 6.5C7.6527 6.5 6.8677 7.285 6.8677 8.251C6.8677 9.216 7.6527 10 8.6177 10C9.5827 10 10.3677 9.216 10.3677 8.251C10.3677 7.285 9.5827 6.5 8.6177 6.5Z" fill="#2B2B2B"/>
</svg>
