<svg width="12" height="14" viewBox="0 0 12 14" fill="none" xmlns="http://www.w3.org/2000/svg">
<path fill-rule="evenodd" clip-rule="evenodd" d="M9.85969 0.456545C9.89462 0.483785 11.0631 1.39179 11.0631 1.39179C11.4878 1.64463 11.8196 2.09654 11.9453 2.63156C12.0703 3.16099 11.9795 3.70719 11.6883 4.16887C11.6863 4.17196 11.6844 4.175 11.6776 4.18405L11.6724 4.19104C11.6251 4.25335 11.4196 4.51321 10.3823 5.81277C10.3727 5.8298 10.3618 5.84575 10.3499 5.86125C10.3324 5.8841 10.3133 5.9051 10.293 5.92422C10.2223 6.0133 10.1476 6.1069 10.069 6.20531L9.90978 6.4047C9.5813 6.81607 9.19167 7.30389 8.72943 7.88248L8.4922 8.1794C7.5998 9.29636 6.45689 10.7265 4.9928 12.5581C4.67221 12.9576 4.19167 13.1902 3.6755 13.1965L1.1338 13.2286H1.12681C0.884445 13.2286 0.67351 13.0624 0.616934 12.8256L0.0448932 10.4013C-0.073147 9.89906 0.0441947 9.3808 0.366186 8.97849L6.94571 0.749201C6.9485 0.746407 6.95059 0.742915 6.95339 0.740121C7.6749 -0.122481 8.97963 -0.249601 9.85969 0.456545ZM6.21213 3.34354L1.18409 9.63295C1.06465 9.78242 1.02065 9.9752 1.06465 10.1603L1.5403 12.1754L3.66293 12.1488C3.86479 12.1467 4.05128 12.0566 4.1749 11.903C4.81154 11.1064 5.61168 10.1053 6.43433 9.07584L6.72538 8.71162L7.01692 8.34678C7.78843 7.38128 8.55062 6.4273 9.18837 5.62882L6.21213 3.34354ZM7.76011 1.40855L6.86659 2.52494L9.84258 4.80957C10.4154 4.09208 10.7922 3.61953 10.8271 3.57448C10.9416 3.38869 10.9863 3.12607 10.9262 2.87323C10.8648 2.6141 10.7034 2.39408 10.4708 2.25369C10.4213 2.21947 9.24435 1.30588 9.20803 1.27724C8.7652 0.92242 8.11912 0.983884 7.76011 1.40855Z" fill="#2B2B2B"/>
</svg>
