<svg width="25" height="25" viewBox="0 0 25 25" fill="none" xmlns="http://www.w3.org/2000/svg">
<path d="M6.31087 13.3824C6.32641 12.9773 6.56268 12.5739 7.0379 12.3494C7.52544 12.1194 7.99263 12.199 8.39177 12.5629C9.11076 13.2183 9.8185 13.8873 10.5289 14.5526C10.7523 14.7617 10.889 14.7535 11.0899 14.5202C12.0842 13.367 13.0808 12.2154 14.0757 11.0633C15.2099 9.7504 16.3435 8.43747 17.4778 7.12454C17.5485 7.0422 17.6181 6.95932 17.6915 6.87918C17.8308 6.72714 18.0162 6.70848 18.1721 6.82759C18.3221 6.94176 18.3548 7.1399 18.2487 7.31445C16.0655 10.9168 13.8833 14.5197 11.6985 18.1209C11.2935 18.7889 10.508 18.9508 9.93798 18.4815C9.80457 18.3717 9.69903 18.2241 9.58973 18.0869C8.58786 16.8332 7.58759 15.5779 6.58839 14.3221C6.40249 14.0882 6.30766 13.8171 6.31087 13.3824Z" fill="#635BFF" fill-opacity="0.3"/>
</svg>
