<svg width="21" height="23" viewBox="0 0 21 23" fill="none" xmlns="http://www.w3.org/2000/svg">
<path d="M0.00120124 22.9994V0H1.3475V0.883923C1.77565 0.729596 2.17618 0.566863 2.58812 0.44076C5.28852 -0.386116 7.85562 -0.0120096 10.299 1.3433C11.3217 1.91076 12.3815 2.36113 13.5417 2.54608C15.3804 2.83912 17.117 2.50885 18.7629 1.66456C19.2469 1.41656 19.7165 1.13973 20.2161 0.862906C20.2209 0.95418 20.2275 1.02504 20.2275 1.0953C20.2275 5.51491 20.2269 9.93452 20.2323 14.3541C20.2323 14.5295 20.1741 14.6129 20.027 14.6988C18.7323 15.4578 17.3536 15.9634 15.8566 16.131C14.1566 16.3213 12.5292 16.0451 10.9692 15.3624C10.4972 15.1558 10.0414 14.9108 9.58744 14.6664C8.15467 13.893 6.63723 13.4792 4.99909 13.5579C3.75247 13.6173 2.58691 13.9686 1.47481 14.5211C1.33849 14.5889 1.3487 14.685 1.3487 14.7973C1.3487 16.5651 1.3487 18.333 1.3487 20.1008C1.3487 21.067 1.3487 22.0332 1.3487 23H0L0.00120124 22.9994ZM18.88 3.14957C18.8488 3.14417 18.8326 3.13576 18.8206 3.13997C18.7647 3.16098 18.7101 3.185 18.6548 3.20782C16.8786 3.95543 15.0435 4.20103 13.1387 3.85155C11.8729 3.61916 10.717 3.10994 9.59344 2.49564C6.95729 1.05506 4.2767 0.980601 1.56488 2.29387C1.40035 2.37374 1.3457 2.46742 1.3457 2.64997C1.35171 6.03613 1.3499 9.4217 1.3499 12.8079C1.3499 12.8883 1.3499 12.9694 1.3499 13.0835C1.44959 13.0421 1.52285 13.012 1.59671 12.9808C3.35915 12.241 5.17923 11.9984 7.06898 12.3407C8.34382 12.5713 9.50637 13.0823 10.6365 13.7002C13.272 15.1402 15.9532 15.2158 18.6657 13.9032C18.8302 13.8233 18.8848 13.7296 18.8842 13.5471C18.8782 10.1609 18.88 6.77534 18.88 3.38917V3.14957Z" fill="#2B2B2B" fill-opacity="0.6"/>
</svg>
