<svg width="80" height="19" viewBox="0 0 80 19" fill="none" xmlns="http://www.w3.org/2000/svg">
<path d="M7.35245 16.352C6.07645 16.352 4.82978 16.2127 3.61245 15.934C2.40978 15.6407 1.41978 15.252 0.642445 14.768L2.31445 10.984C3.04778 11.4093 3.86911 11.754 4.77845 12.018C5.68778 12.2673 6.56045 12.392 7.39645 12.392C8.11511 12.392 8.62845 12.326 8.93645 12.194C9.24445 12.0473 9.39845 11.8347 9.39845 11.556C9.39845 11.2333 9.19311 10.9913 8.78245 10.83C8.38645 10.6687 7.72645 10.4927 6.80245 10.302C5.61445 10.0527 4.62445 9.78867 3.83245 9.51C3.04045 9.21667 2.35111 8.74733 1.76445 8.102C1.17778 7.442 0.884445 6.55467 0.884445 5.44C0.884445 4.472 1.15578 3.592 1.69845 2.8C2.24111 2.008 3.04778 1.38467 4.11845 0.929999C5.20378 0.475333 6.51645 0.248 8.05645 0.248C9.11245 0.248 10.1464 0.365333 11.1584 0.599999C12.1851 0.819999 13.0871 1.15 13.8644 1.59L12.3024 5.352C10.7918 4.58933 9.36178 4.208 8.01245 4.208C6.67778 4.208 6.01045 4.53067 6.01045 5.176C6.01045 5.484 6.20845 5.71867 6.60445 5.88C7.00045 6.02667 7.65311 6.188 8.56245 6.364C9.73578 6.584 10.7258 6.84067 11.5324 7.134C12.3391 7.41267 13.0358 7.87467 13.6224 8.52C14.2238 9.16533 14.5244 10.0453 14.5244 11.16C14.5244 12.128 14.2531 13.008 13.7104 13.8C13.1678 14.5773 12.3538 15.2007 11.2684 15.67C10.1978 16.1247 8.89245 16.352 7.35245 16.352ZM23.5274 0.248C25.0234 0.248 26.3434 0.548666 27.4874 1.15C28.6314 1.73667 29.5188 2.602 30.1494 3.746C30.7948 4.87533 31.1174 6.22467 31.1174 7.794V16H25.9254V12.898H21.0414V16H15.9374V7.794C15.9374 6.22467 16.2528 4.87533 16.8834 3.746C17.5288 2.602 18.4234 1.73667 19.5674 1.15C20.7114 0.548666 22.0314 0.248 23.5274 0.248ZM25.9254 8.982V7.354C25.9254 6.40067 25.6981 5.682 25.2434 5.198C24.8034 4.69933 24.2168 4.45 23.4834 4.45C22.7501 4.45 22.1561 4.69933 21.7014 5.198C21.2614 5.682 21.0414 6.40067 21.0414 7.354V8.982H25.9254ZM40.9513 0.248C42.4473 0.248 43.7673 0.548666 44.9113 1.15C46.0553 1.73667 46.9426 2.602 47.5733 3.746C48.2186 4.87533 48.5413 6.22467 48.5413 7.794V16H43.3493V12.898H38.4653V16H33.3613V7.794C33.3613 6.22467 33.6766 4.87533 34.3073 3.746C34.9526 2.602 35.8473 1.73667 36.9913 1.15C38.1353 0.548666 39.4553 0.248 40.9513 0.248ZM43.3493 8.982V7.354C43.3493 6.40067 43.1219 5.682 42.6673 5.198C42.2273 4.69933 41.6406 4.45 40.9073 4.45C40.1739 4.45 39.5799 4.69933 39.1253 5.198C38.6853 5.682 38.4653 6.40067 38.4653 7.354V8.982H43.3493ZM59.0791 4.45C57.0111 4.45 55.9771 5.33 55.9771 7.09V7.156H61.4331V11.072H55.9771V16H50.7851V7.2C50.7851 4.97067 51.4671 3.25467 52.8311 2.052C54.1951 0.849333 56.1311 0.248 58.6391 0.248C59.5338 0.248 60.3771 0.335999 61.1691 0.511999C61.9611 0.673333 62.6431 0.900666 63.2151 1.194L61.7191 5.11C61.3084 4.89 60.8684 4.72867 60.3991 4.626C59.9444 4.50867 59.5044 4.45 59.0791 4.45ZM79.5171 0.599999V10.918C79.5171 12.502 79.1944 13.8587 78.5491 14.988C77.9038 16.1173 76.9871 16.968 75.7991 17.54C74.6111 18.1267 73.2104 18.42 71.5971 18.42C70.2038 18.42 68.9351 18.2513 67.7911 17.914C66.6618 17.5913 65.6791 17.1367 64.8431 16.55L66.7351 12.876C67.4538 13.3307 68.2091 13.6827 69.0011 13.932C69.8078 14.1667 70.5924 14.284 71.3551 14.284C72.4111 14.284 73.1664 14.042 73.6211 13.558C74.0904 13.0593 74.3251 12.2747 74.3251 11.204V10.764C73.3424 11.8787 72.0298 12.436 70.3871 12.436C68.4511 12.436 66.9698 11.8933 65.9431 10.808C64.9311 9.708 64.4251 8.11667 64.4251 6.034V0.599999H69.6171V5.66C69.6171 6.52533 69.8004 7.17067 70.1671 7.596C70.5484 8.02133 71.1278 8.234 71.9051 8.234C72.6384 8.234 73.2251 8.02133 73.6651 7.596C74.1051 7.156 74.3251 6.452 74.3251 5.484V0.599999H79.5171Z" fill="#2B2B2B"/>
</svg>
