<svg width="127" height="30" viewBox="0 0 127 30" fill="none" xmlns="http://www.w3.org/2000/svg">
<path d="M11.3739 26.56C9.3439 26.56 7.36056 26.3383 5.4239 25.895C3.51056 25.4283 1.93556 24.81 0.698896 24.04L3.3589 18.02C4.52556 18.6967 5.83223 19.245 7.2789 19.665C8.72556 20.0617 10.1139 20.26 11.4439 20.26C12.5872 20.26 13.4039 20.155 13.8939 19.945C14.3839 19.7117 14.6289 19.3733 14.6289 18.93C14.6289 18.4167 14.3022 18.0317 13.6489 17.775C13.0189 17.5183 11.9689 17.2383 10.4989 16.935C8.6089 16.5383 7.0339 16.1183 5.7739 15.675C4.5139 15.2083 3.41723 14.4617 2.4839 13.435C1.55056 12.385 1.0839 10.9733 1.0839 9.2C1.0839 7.66 1.51556 6.26 2.3789 5C3.24223 3.74 4.52556 2.74833 6.2289 2.025C7.95556 1.30167 10.0439 0.939999 12.4939 0.939999C14.1739 0.939999 15.8189 1.12667 17.4289 1.5C19.0622 1.85 20.4972 2.375 21.7339 3.075L19.2489 9.06C16.8456 7.84667 14.5706 7.24 12.4239 7.24C10.3006 7.24 9.2389 7.75333 9.2389 8.78C9.2389 9.27 9.5539 9.64333 10.1839 9.9C10.8139 10.1333 11.8522 10.39 13.2989 10.67C15.1656 11.02 16.7406 11.4283 18.0239 11.895C19.3072 12.3383 20.4156 13.0733 21.3489 14.1C22.3056 15.1267 22.7839 16.5267 22.7839 18.3C22.7839 19.84 22.3522 21.24 21.4889 22.5C20.6256 23.7367 19.3306 24.7283 17.6039 25.475C15.9006 26.1983 13.8239 26.56 11.3739 26.56ZM37.1068 0.939999C39.4868 0.939999 41.5868 1.41833 43.4068 2.375C45.2268 3.30833 46.6385 4.685 47.6418 6.505C48.6685 8.30167 49.1818 10.4483 49.1818 12.945V26H40.9218V21.065H33.1518V26H25.0318V12.945C25.0318 10.4483 25.5335 8.30167 26.5368 6.505C27.5635 4.685 28.9868 3.30833 30.8068 2.375C32.6268 1.41833 34.7268 0.939999 37.1068 0.939999ZM40.9218 14.835V12.245C40.9218 10.7283 40.5602 9.585 39.8368 8.815C39.1368 8.02167 38.2035 7.625 37.0368 7.625C35.8702 7.625 34.9252 8.02167 34.2018 8.815C33.5018 9.585 33.1518 10.7283 33.1518 12.245V14.835H40.9218ZM64.8266 0.939999C67.2066 0.939999 69.3066 1.41833 71.1266 2.375C72.9466 3.30833 74.3582 4.685 75.3616 6.505C76.3882 8.30167 76.9016 10.4483 76.9016 12.945V26H68.6416V21.065H60.8716V26H52.7516V12.945C52.7516 10.4483 53.2532 8.30167 54.2566 6.505C55.2832 4.685 56.7066 3.30833 58.5266 2.375C60.3466 1.41833 62.4466 0.939999 64.8266 0.939999ZM68.6416 14.835V12.245C68.6416 10.7283 68.2799 9.585 67.5566 8.815C66.8566 8.02167 65.9232 7.625 64.7566 7.625C63.5899 7.625 62.6449 8.02167 61.9216 8.815C61.2216 9.585 60.8716 10.7283 60.8716 12.245V14.835H68.6416ZM93.6663 7.625C90.3763 7.625 88.7313 9.025 88.7313 11.825V11.93H97.4113V18.16H88.7313V26H80.4713V12C80.4713 8.45333 81.5563 5.72333 83.7263 3.81C85.8963 1.89667 88.9763 0.939999 92.9663 0.939999C94.3896 0.939999 95.7313 1.08 96.9913 1.36C98.2513 1.61667 99.3363 1.97833 100.246 2.445L97.8663 8.675C97.2129 8.325 96.5129 8.06833 95.7663 7.905C95.0429 7.71833 94.3429 7.625 93.6663 7.625ZM126.181 1.5V17.915C126.181 20.435 125.668 22.5933 124.641 24.39C123.615 26.1867 122.156 27.54 120.266 28.45C118.376 29.3833 116.148 29.85 113.581 29.85C111.365 29.85 109.346 29.5817 107.526 29.045C105.73 28.5317 104.166 27.8083 102.836 26.875L105.846 21.03C106.99 21.7533 108.191 22.3133 109.451 22.71C110.735 23.0833 111.983 23.27 113.196 23.27C114.876 23.27 116.078 22.885 116.801 22.115C117.548 21.3217 117.921 20.0733 117.921 18.37V17.67C116.358 19.4433 114.27 20.33 111.656 20.33C108.576 20.33 106.22 19.4667 104.586 17.74C102.976 15.99 102.171 13.4583 102.171 10.145V1.5H110.431V9.55C110.431 10.9267 110.723 11.9533 111.306 12.63C111.913 13.3067 112.835 13.645 114.071 13.645C115.238 13.645 116.171 13.3067 116.871 12.63C117.571 11.93 117.921 10.81 117.921 9.27V1.5H126.181Z" fill="#2B2B2B"/>
</svg>
