<svg width="87" height="21" viewBox="0 0 87 21" fill="none" xmlns="http://www.w3.org/2000/svg">
<path d="M7.83903 18.3342C6.44703 18.3342 5.08703 18.1822 3.75903 17.8782C2.44703 17.5582 1.36703 17.1342 0.519031 16.6062L2.34303 12.4782C3.14303 12.9422 4.03903 13.3182 5.03103 13.6062C6.02303 13.8782 6.97503 14.0142 7.88703 14.0142C8.67103 14.0142 9.23103 13.9422 9.56703 13.7982C9.90303 13.6382 10.071 13.4062 10.071 13.1022C10.071 12.7502 9.84703 12.4862 9.39903 12.3102C8.96703 12.1342 8.24703 11.9422 7.23903 11.7342C5.94303 11.4622 4.86303 11.1742 3.99903 10.8702C3.13503 10.5502 2.38303 10.0382 1.74303 9.33419C1.10303 8.61419 0.783031 7.64619 0.783031 6.43019C0.783031 5.3742 1.07903 4.4142 1.67103 3.55019C2.26303 2.68619 3.14303 2.00619 4.31103 1.51019C5.49503 1.01419 6.92703 0.766195 8.60703 0.766195C9.75903 0.766195 10.887 0.894195 11.991 1.15019C13.111 1.39019 14.095 1.75019 14.943 2.23019L13.239 6.33419C11.591 5.50219 10.031 5.08619 8.55903 5.08619C7.10303 5.08619 6.37503 5.43819 6.37503 6.14219C6.37503 6.47819 6.59103 6.73419 7.02303 6.9102C7.45503 7.07019 8.16703 7.24619 9.15903 7.43819C10.439 7.67819 11.519 7.95819 12.399 8.27819C13.279 8.5822 14.039 9.0862 14.679 9.7902C15.335 10.4942 15.663 11.4542 15.663 12.6702C15.663 13.7262 15.367 14.6862 14.775 15.5502C14.183 16.3982 13.295 17.0782 12.111 17.5902C10.943 18.0862 9.51903 18.3342 7.83903 18.3342ZM25.4845 0.766195C27.1165 0.766195 28.5565 1.09419 29.8045 1.7502C31.0525 2.39019 32.0205 3.33419 32.7085 4.58219C33.4125 5.81419 33.7645 7.28619 33.7645 8.99819V17.9502H28.1005V14.5662H22.7725V17.9502H17.2045V8.99819C17.2045 7.28619 17.5485 5.81419 18.2365 4.58219C18.9405 3.33419 19.9165 2.39019 21.1645 1.7502C22.4125 1.09419 23.8525 0.766195 25.4845 0.766195ZM28.1005 10.2942V8.5182C28.1005 7.47819 27.8525 6.69419 27.3565 6.16619C26.8765 5.62219 26.2365 5.35019 25.4365 5.35019C24.6365 5.35019 23.9885 5.62219 23.4925 6.16619C23.0125 6.69419 22.7725 7.47819 22.7725 8.5182V10.2942H28.1005ZM44.4923 0.766195C46.1243 0.766195 47.5643 1.09419 48.8123 1.7502C50.0603 2.39019 51.0283 3.33419 51.7163 4.58219C52.4203 5.81419 52.7723 7.28619 52.7723 8.99819V17.9502H47.1083V14.5662H41.7803V17.9502H36.2123V8.99819C36.2123 7.28619 36.5563 5.81419 37.2443 4.58219C37.9483 3.33419 38.9243 2.39019 40.1723 1.7502C41.4203 1.09419 42.8603 0.766195 44.4923 0.766195ZM47.1083 10.2942V8.5182C47.1083 7.47819 46.8603 6.69419 46.3643 6.16619C45.8843 5.62219 45.2443 5.35019 44.4443 5.35019C43.6443 5.35019 42.9963 5.62219 42.5003 6.16619C42.0203 6.69419 41.7803 7.47819 41.7803 8.5182V10.2942H47.1083ZM64.2681 5.35019C62.0121 5.35019 60.8841 6.31019 60.8841 8.23019V8.3022H66.8361V12.5742H60.8841V17.9502H55.2201V8.3502C55.2201 5.91819 55.9641 4.04619 57.4521 2.7342C58.9401 1.42219 61.0521 0.766195 63.7881 0.766195C64.7641 0.766195 65.6841 0.862195 66.5481 1.05419C67.4121 1.23019 68.1561 1.47819 68.7801 1.79819L67.1481 6.07019C66.7001 5.83019 66.2201 5.65419 65.7081 5.54219C65.2121 5.41419 64.7321 5.35019 64.2681 5.35019ZM86.5641 1.15019V12.4062C86.5641 14.1342 86.2121 15.6142 85.5081 16.8462C84.8041 18.0782 83.8041 19.0062 82.5081 19.6302C81.2121 20.2702 79.6841 20.5902 77.9241 20.5902C76.4041 20.5902 75.0201 20.4062 73.7721 20.0382C72.5401 19.6862 71.4681 19.1902 70.5561 18.5502L72.6201 14.5422C73.4041 15.0382 74.2281 15.4222 75.0921 15.6942C75.9721 15.9502 76.8281 16.0782 77.6601 16.0782C78.8121 16.0782 79.6361 15.8142 80.1321 15.2862C80.6441 14.7422 80.9001 13.8862 80.9001 12.7182V12.2382C79.8281 13.4542 78.3961 14.0622 76.6041 14.0622C74.4921 14.0622 72.8761 13.4702 71.7561 12.2862C70.6521 11.0862 70.1001 9.35019 70.1001 7.0782V1.15019H75.7641V6.67019C75.7641 7.61419 75.9641 8.31819 76.3641 8.78219C76.7801 9.24619 77.4121 9.47819 78.2601 9.47819C79.0601 9.47819 79.7001 9.24619 80.1801 8.78219C80.6601 8.30219 80.9001 7.53419 80.9001 6.47819V1.15019H86.5641Z" fill="white"/>
</svg>
