<svg width="32" height="32" viewBox="0 0 32 32" fill="none" xmlns="http://www.w3.org/2000/svg">
<circle cx="15.6" cy="15.6001" r="15.6" fill="#635BFF" fill-opacity="0.2"/>
<path d="M19.8461 8.81769C20.9375 8.81769 21.9875 9.24906 22.7599 10.0231C23.5331 10.7955 23.9653 11.8373 23.9653 12.9279V19.3579C23.9653 21.6287 22.1177 23.4681 19.8461 23.4681H11.8054C9.53378 23.4681 7.68701 21.6287 7.68701 19.3579V12.9279C7.68701 10.6571 9.52564 8.81769 11.8054 8.81769H19.8461ZM20.7666 13.05C20.5957 13.0411 20.4329 13.0989 20.31 13.2128L16.64 16.1429C16.168 16.5344 15.4916 16.5344 15.0122 16.1429L11.3496 13.2128C11.0965 13.0256 10.7465 13.05 10.5357 13.2698C10.3159 13.4895 10.2915 13.8395 10.4779 14.0837L10.5845 14.1895L14.2878 17.0789C14.7436 17.437 15.2963 17.6324 15.875 17.6324C16.452 17.6324 17.0144 17.437 17.4694 17.0789L21.141 14.1407L21.2061 14.0756C21.4006 13.8395 21.4006 13.4977 21.1971 13.2617C21.084 13.1404 20.9286 13.0663 20.7666 13.05Z" fill="#635BFF"/>
</svg>
