<svg width="46" height="57" viewBox="0 0 46 57" fill="none" xmlns="http://www.w3.org/2000/svg">
<path fill-rule="evenodd" clip-rule="evenodd" d="M28.7442 17.6588V11.8683H28.7251C28.7251 11.2187 28.7305 10.5691 28.7358 9.91958C28.748 8.44787 28.7601 6.97672 28.7099 5.50741C28.6111 2.62925 26.0447 0.127493 23.1817 0.00582722C19.7827 -0.138651 16.9654 2.42014 16.9159 5.82678C16.8589 9.87597 16.8665 13.929 16.9159 17.9782C16.9388 19.9666 17.8627 21.5673 19.5166 22.6737C20.2009 23.13 20.4823 23.647 20.4709 24.4683C20.4253 27.2514 20.4138 30.0383 20.4709 32.8214C20.4823 33.4754 20.68 34.2244 21.0488 34.749C21.6685 35.6311 22.8091 35.8516 23.7825 35.4144C24.7444 34.9848 25.1778 34.1597 25.1854 33.1332C25.1924 32.0616 25.1922 30.9896 25.192 29.9172C25.1916 28.0787 25.1912 26.2393 25.2273 24.3998C25.2387 23.936 25.4706 23.2782 25.8204 23.0539C27.8127 21.7764 28.7442 19.9818 28.7442 17.6588ZM16.1741 57.0034C18.4009 57.003 20.6276 57.0026 22.8544 57.0026C25.0911 57.0026 27.3283 57.003 29.5656 57.0034C34.0406 57.0043 38.5162 57.0051 42.9901 57.0026C44.3208 57.0026 45.3397 56.0179 45.4044 54.7138C45.4652 53.5009 44.3968 52.3565 43.1079 52.2842C42.568 52.2538 42.0281 52.2652 41.492 52.2804C40.667 52.3033 40.1993 51.8774 39.9788 51.1208C38.2793 45.2961 34.6065 41.2203 28.9224 39.1367C23.1585 37.0228 17.6607 37.8478 12.5926 41.2811C9.49011 43.3836 7.19747 46.2352 6.1367 49.8091C5.53597 51.8356 4.57785 52.501 2.58937 52.2994C1.5248 52.1892 0.654129 52.9838 0.384183 53.9039C-0.102481 55.5616 1.00771 57.0026 2.81369 57.0026C7.26717 57.0051 11.7207 57.0043 16.1741 57.0034ZM11.7325 50.9495C11.6497 51.0201 11.577 51.0822 11.5242 51.136V51.1398C10.2961 51.1778 9.77907 50.3148 10.1973 49.4137C11.3113 46.9994 13.0336 45.1174 15.2768 43.7068C15.3606 43.6536 15.4442 43.5997 15.5279 43.5456C15.9233 43.2904 16.3215 43.0333 16.7482 42.8513C17.501 42.532 18.1436 42.7829 18.4972 43.5091C18.8432 44.2239 18.596 44.7562 17.8699 45.1326C15.581 46.3188 13.7066 47.9537 12.4063 50.2197C12.2305 50.5245 11.9477 50.7659 11.7325 50.9495Z" fill="url(#paint0_linear_821_3394)"/>
<defs>
<linearGradient id="paint0_linear_821_3394" x1="0.269531" y1="0" x2="58.4608" y2="40.4314" gradientUnits="userSpaceOnUse">
<stop stop-color="#635BFF"/>
<stop offset="1" stop-color="#80E9FF"/>
</linearGradient>
</defs>
</svg>
