<svg width="59" height="59" viewBox="0 0 59 59" fill="none" xmlns="http://www.w3.org/2000/svg">
<path d="M29.952 0C30.9346 0.434803 31.2598 1.19485 31.2324 2.25276C31.1777 4.3583 31.2188 6.46726 31.2153 8.5728C31.2153 9.72999 30.5101 10.49 29.4624 10.4763C28.449 10.4627 27.7677 9.70603 27.7677 8.5728C27.7677 6.46726 27.8054 4.3583 27.7506 2.25276C27.7232 1.19485 28.0485 0.434803 29.031 0H29.952Z" fill="#E6E6E6"/>
<path d="M0 29.0281C0.434803 28.0455 1.19486 27.7203 2.25276 27.7477C4.3583 27.8025 6.46727 27.7614 8.57281 27.7648C9.73 27.7648 10.49 28.4701 10.4764 29.5177C10.4627 30.5311 9.70603 31.2124 8.57281 31.2124C6.46727 31.2124 4.3583 31.1747 2.25276 31.2295C1.19486 31.2569 0.434803 30.9317 0 29.9491V29.0281Z" fill="#E6E6E6"/>
<path d="M29.4465 48.6109C27.2212 48.6109 24.9924 48.6109 22.767 48.6109C21.5139 48.6109 20.8669 47.9536 20.8532 46.6937C20.8258 44.1944 20.0144 42.0478 18.2546 40.2024C12.1263 33.7831 12.5337 23.6594 19.1824 17.7913C22.8183 14.5833 27.139 13.4227 31.9115 14.1656C37.1668 14.9839 41.0047 17.87 43.4184 22.5741C44.9111 25.4808 45.3493 28.6066 44.8563 31.8522C44.3531 35.1834 42.8775 38.0318 40.5562 40.4489C38.8992 42.1745 38.1802 44.256 38.1323 46.6047C38.1015 48.0118 37.4989 48.6109 36.0747 48.6109C33.8664 48.6109 31.6582 48.6109 29.4499 48.6109H29.4465ZM28.933 20.8657C25.7353 21.0814 23.1504 22.7179 21.6166 25.9019C21.3428 26.4736 21.1476 27.1344 21.1236 27.7643C21.0928 28.5792 21.7878 29.2023 22.6198 29.3153C23.4346 29.4248 24.157 28.966 24.4514 28.0793C25.2457 25.6656 26.913 24.4366 29.4328 24.3065C30.4907 24.2517 31.2611 23.4608 31.2131 22.5159C31.1618 21.523 30.3401 20.828 28.9364 20.8691L28.933 20.8657Z" fill="#E6E6E6"/>
<path d="M22.5791 52.082H36.3216C36.6845 54.8552 36.0169 57.173 33.4457 58.4329C32.7816 58.7581 31.9838 58.8951 31.2375 58.9499C30.094 59.0355 28.9402 58.9841 27.7899 58.9704C24.8456 58.9362 22.6168 56.6937 22.5825 53.7425C22.5757 53.2084 22.5825 52.6743 22.5825 52.0854L22.5791 52.082Z" fill="#E6E6E6"/>
<path d="M53.6986 31.2146C52.5688 31.2146 51.439 31.2214 50.3092 31.2146C49.2444 31.2077 48.4946 30.4853 48.4981 29.4856C48.4981 28.4859 49.2513 27.7704 50.3229 27.767C52.603 27.7601 54.8832 27.7601 57.1599 27.767C58.2246 27.767 58.9744 28.4962 58.971 29.4959C58.971 30.4956 58.2178 31.2077 57.1462 31.2146C55.9958 31.2214 54.8489 31.2146 53.6986 31.2146Z" fill="#E6E6E6"/>
<path d="M10.1657 8.17188C10.4259 8.31909 10.8984 8.47315 11.2236 8.78813C12.8361 10.3459 14.4144 11.9413 15.9859 13.5367C16.7528 14.3173 16.7596 15.3341 16.0475 16.0463C15.3354 16.7584 14.3152 16.7549 13.538 15.988C11.9391 14.4132 10.3574 12.8246 8.77913 11.2326C8.21765 10.6643 8.02249 9.99325 8.36486 9.23662C8.66956 8.55874 9.23447 8.2472 10.1657 8.17188Z" fill="#E6E6E6"/>
<path d="M50.8034 10.1704C50.663 10.4237 50.509 10.8996 50.1974 11.2214C48.6397 12.834 47.0442 14.4123 45.4488 15.9871C44.6682 16.7575 43.6548 16.7677 42.9393 16.0625C42.2238 15.3538 42.2203 14.3301 42.9872 13.5529C44.5724 11.9404 46.1746 10.345 47.7838 8.75298C48.335 8.20862 49.0026 8.03744 49.7352 8.36611C50.4097 8.67082 50.7315 9.22887 50.8068 10.1704H50.8034Z" fill="#E6E6E6"/>
</svg>
