<svg width="32" height="32" viewBox="0 0 32 32" fill="none" xmlns="http://www.w3.org/2000/svg">
<circle cx="15.8" cy="15.6001" r="15.6" fill="#635BFF" fill-opacity="0.2"/>
<path d="M19.2717 22.8324C14.593 22.778 10.3833 19.5964 9.04945 15.0865C8.73992 14.0378 8.58421 12.9667 8.60109 11.873C8.62923 10.1639 9.95555 8.65754 11.6477 8.40991C11.976 8.36113 12.2743 8.50371 12.4243 8.80386C13.0359 10.0195 13.6456 11.237 14.2515 12.4564C14.3997 12.7566 14.3322 13.0773 14.0902 13.3118C13.6325 13.7546 13.0922 14.0454 12.4806 14.2161C12.1186 14.3155 11.9009 14.6156 11.9253 14.974C11.9328 15.0753 11.961 15.1803 12.0041 15.2722C12.8652 17.167 14.244 18.5458 16.1369 19.4107C16.6115 19.6264 17.0636 19.4163 17.2062 18.9135C17.3751 18.3188 17.6602 17.7917 18.0898 17.3433C18.3393 17.0807 18.6563 17.0169 18.979 17.1782C20.1853 17.7785 21.3896 18.3807 22.5921 18.9848C22.9204 19.1499 23.063 19.4519 22.9974 19.8084C22.7103 21.3654 21.5772 22.4985 20.0183 22.7724C19.7726 22.8156 19.5174 22.8156 19.2679 22.8362L19.2717 22.8324Z" fill="#635BFF"/>
</svg>
