<svg width="32" height="32" viewBox="0 0 32 32" fill="none" xmlns="http://www.w3.org/2000/svg">
<circle cx="16" cy="15.6" r="15.6" fill="#635BFF" fill-opacity="0.2"/>
<path d="M8.08691 24.4224C8.3449 23.6604 8.59604 22.9207 8.84661 22.1804C9.08919 21.4647 9.3312 20.7501 9.57092 20.0326C9.58879 19.9639 9.58045 19.8911 9.54752 19.8283C8.71147 18.4076 8.31819 16.7699 8.41796 15.1245C8.61773 11.4316 11.3289 8.23303 14.943 7.45621C17.6548 6.87288 20.1188 7.44023 22.266 9.21019C23.8288 10.4967 24.7934 12.1571 25.1416 14.1571C25.5201 16.2948 25.0512 18.4959 23.8343 20.2937C22.6173 22.0915 20.7481 23.3448 18.6228 23.7877C16.6171 24.2135 14.697 23.9418 12.8751 22.9966C12.8399 22.9765 12.8007 22.9644 12.7602 22.9611C12.7198 22.9578 12.6791 22.9635 12.6411 22.9778C11.1651 23.4504 9.68812 23.9211 8.2102 24.3899C8.17767 24.4001 8.14399 24.4076 8.08691 24.4224ZM10.2444 22.318C11.1211 22.0394 11.967 21.7729 12.8129 21.4995C12.8548 21.4842 12.8998 21.4795 12.944 21.4856C12.9882 21.4918 13.0302 21.5087 13.0663 21.5349C14.4693 22.4042 15.991 22.7552 17.6325 22.5765C18.8419 22.4482 19.9963 22.0043 20.9801 21.2894C23.282 19.6342 24.3688 16.7712 23.7318 14.0486C22.8916 10.4613 19.4139 8.1086 15.7706 8.67538C13.9893 8.95277 12.5087 9.78895 11.3654 11.1828C10.1143 12.7079 9.60574 14.4687 9.81864 16.4276C9.94347 17.5708 10.361 18.6624 11.031 19.5971C11.0634 19.6369 11.0841 19.6849 11.091 19.7358C11.0978 19.7866 11.0905 19.8384 11.0698 19.8853C10.8597 20.4864 10.6571 21.0908 10.4528 21.6941C10.3854 21.8927 10.3203 22.0914 10.2444 22.318Z" fill="#635BFF"/>
<path d="M14.2283 11.7951C14.2819 11.7994 14.3357 11.7994 14.3893 11.7951C14.6216 11.7614 14.7574 11.8819 14.8407 12.0805C15.077 12.6341 15.315 13.1872 15.5376 13.7466C15.5647 13.8464 15.5579 13.9524 15.5182 14.0479C15.4166 14.327 15.2026 14.5319 15.0045 14.7454C14.8367 14.9286 14.8259 14.9926 14.956 15.2095C15.5982 16.3064 16.5949 17.1519 17.7819 17.6067C17.9463 17.6712 18.0462 17.6558 18.1586 17.5222C18.3767 17.2631 18.5909 17.0005 18.8013 16.7346C18.9275 16.5747 19.0211 16.5268 19.2106 16.6016C19.484 16.71 19.7511 16.8339 20.0171 16.9589C20.331 17.1067 20.6403 17.2654 20.9531 17.4155C21.0081 17.438 21.0546 17.4773 21.0859 17.5279C21.1172 17.5784 21.1316 17.6376 21.1272 17.6969C21.1318 18.3533 20.9035 18.8749 20.3076 19.2123C19.8784 19.4549 19.424 19.6118 18.9377 19.5502C18.5713 19.5039 18.2123 19.3789 17.8573 19.2682C16.944 18.98 16.0964 18.5627 15.363 17.9332C14.7045 17.3605 14.1207 16.7072 13.6256 15.9886C13.3265 15.5485 13.0354 15.1113 12.8699 14.6004C12.5525 13.6267 12.7192 12.7631 13.4549 12.0268C13.6689 11.8111 13.9275 11.7523 14.2283 11.7951Z" fill="#635BFF"/>
</svg>
