<svg width="109" height="21" viewBox="0 0 109 21" fill="none" xmlns="http://www.w3.org/2000/svg">
<path d="M9.61555 1.67634C9.99076 0.965194 11.0092 0.965192 11.3844 1.67634L13.4799 5.64788C13.6246 5.92213 13.8883 6.11373 14.1938 6.1666L18.6185 6.93218C19.4108 7.06926 19.7255 8.0379 19.1651 8.6145L16.0355 11.8346C15.8194 12.057 15.7186 12.367 15.7628 12.6739L16.402 17.1186C16.5164 17.9145 15.6924 18.5131 14.9709 18.1584L10.9412 16.177C10.663 16.0401 10.337 16.0401 10.0588 16.177L6.02912 18.1584C5.30757 18.5131 4.4836 17.9145 4.59805 17.1186L5.23724 12.6739C5.28138 12.367 5.18064 12.057 4.96453 11.8346L1.83489 8.6145C1.2745 8.0379 1.58922 7.06926 2.38151 6.93218L6.80619 6.1666C7.11172 6.11373 7.37545 5.92213 7.52014 5.64788L9.61555 1.67634Z" fill="#FFBD3E"/>
<path d="M31.6156 1.67634C31.9908 0.965194 33.0092 0.965192 33.3844 1.67634L35.4799 5.64788C35.6246 5.92213 35.8883 6.11373 36.1938 6.1666L40.6185 6.93218C41.4108 7.06926 41.7255 8.0379 41.1651 8.6145L38.0355 11.8346C37.8194 12.057 37.7186 12.367 37.7628 12.6739L38.402 17.1186C38.5164 17.9145 37.6924 18.5131 36.9709 18.1584L32.9412 16.177C32.663 16.0401 32.337 16.0401 32.0588 16.177L28.0291 18.1584C27.3076 18.5131 26.4836 17.9145 26.598 17.1186L27.2372 12.6739C27.2814 12.367 27.1806 12.057 26.9645 11.8346L23.8349 8.6145C23.2745 8.0379 23.5892 7.06926 24.3815 6.93218L28.8062 6.1666C29.1117 6.11373 29.3754 5.92213 29.5201 5.64788L31.6156 1.67634Z" fill="#FFBD3E"/>
<path d="M53.6156 1.67634C53.9908 0.965194 55.0092 0.965192 55.3844 1.67634L57.4799 5.64788C57.6246 5.92213 57.8883 6.11373 58.1938 6.1666L62.6185 6.93218C63.4108 7.06926 63.7255 8.0379 63.1651 8.6145L60.0355 11.8346C59.8194 12.057 59.7186 12.367 59.7628 12.6739L60.402 17.1186C60.5164 17.9145 59.6924 18.5131 58.9709 18.1584L54.9412 16.177C54.663 16.0401 54.337 16.0401 54.0588 16.177L50.0291 18.1584C49.3076 18.5131 48.4836 17.9145 48.598 17.1186L49.2372 12.6739C49.2814 12.367 49.1806 12.057 48.9645 11.8346L45.8349 8.6145C45.2745 8.0379 45.5892 7.06926 46.3815 6.93218L50.8062 6.1666C51.1117 6.11373 51.3754 5.92213 51.5201 5.64788L53.6156 1.67634Z" fill="#FFBD3E"/>
<path d="M75.6156 1.67634C75.9908 0.965194 77.0092 0.965192 77.3844 1.67634L79.4799 5.64788C79.6246 5.92213 79.8883 6.11373 80.1938 6.1666L84.6185 6.93218C85.4108 7.06926 85.7255 8.0379 85.1651 8.6145L82.0355 11.8346C81.8194 12.057 81.7186 12.367 81.7628 12.6739L82.402 17.1186C82.5164 17.9145 81.6924 18.5131 80.9709 18.1584L76.9412 16.177C76.663 16.0401 76.337 16.0401 76.0588 16.177L72.0291 18.1584C71.3076 18.5131 70.4836 17.9145 70.598 17.1186L71.2372 12.6739C71.2814 12.367 71.1806 12.057 70.9645 11.8346L67.8349 8.6145C67.2745 8.0379 67.5892 7.06926 68.3815 6.93218L72.8062 6.1666C73.1117 6.11373 73.3754 5.92213 73.5201 5.64788L75.6156 1.67634Z" fill="#FFBD3E"/>
<path d="M97.6156 1.67634C97.9908 0.965194 99.0092 0.965192 99.3844 1.67634L101.48 5.64788C101.625 5.92213 101.888 6.11373 102.194 6.1666L106.618 6.93218C107.411 7.06926 107.726 8.0379 107.165 8.6145L104.035 11.8346C103.819 12.057 103.719 12.367 103.763 12.6739L104.402 17.1186C104.516 17.9145 103.692 18.5131 102.971 18.1584L98.9412 16.177C98.663 16.0401 98.337 16.0401 98.0588 16.177L94.0291 18.1584C93.3076 18.5131 92.4836 17.9145 92.598 17.1186L93.2372 12.6739C93.2814 12.367 93.1806 12.057 92.9645 11.8346L89.8349 8.6145C89.2745 8.0379 89.5892 7.06926 90.3815 6.93218L94.8062 6.1666C95.1117 6.11373 95.3754 5.92213 95.5201 5.64788L97.6156 1.67634Z" fill="#FFBD3E"/>
</svg>
