<svg width="242" height="42" viewBox="0 0 242 42" fill="none" xmlns="http://www.w3.org/2000/svg">
<path d="M18.79 3.38467C19.5232 1.995 21.5135 1.995 22.2467 3.38467L26.3414 11.1456C26.6241 11.6815 27.1395 12.0559 27.7365 12.1592L36.3829 13.6552C37.9311 13.9231 38.5461 15.816 37.4511 16.9427L31.3353 23.2352C30.913 23.6698 30.7162 24.2756 30.8024 24.8754L32.0515 33.5609C32.2752 35.1161 30.665 36.2859 29.255 35.5926L21.3806 31.7207C20.8368 31.4534 20.1998 31.4534 19.6561 31.7207L11.7817 35.5926C10.3717 36.2859 8.76151 35.1161 8.98517 33.5609L10.2342 24.8754C10.3205 24.2756 10.1236 23.6698 9.70133 23.2352L3.58561 16.9427C2.49053 15.816 3.10554 13.9231 4.65377 13.6552L13.3002 12.1592C13.8972 12.0559 14.4126 11.6815 14.6953 11.1456L18.79 3.38467Z" fill="#FFBD3E"/>
<path d="M68.8266 3.38467C69.5598 1.995 71.5501 1.995 72.2833 3.38467L76.378 11.1456C76.6607 11.6815 77.1761 12.0559 77.7731 12.1592L86.4195 13.6552C87.9677 13.9231 88.5828 15.816 87.4877 16.9427L81.372 23.2352C80.9497 23.6698 80.7528 24.2756 80.8391 24.8754L82.0881 33.5609C82.3118 35.1161 80.7016 36.2859 79.2916 35.5926L71.4172 31.7207C70.8735 31.4534 70.2364 31.4534 69.6927 31.7207L61.8183 35.5926C60.4083 36.2859 58.7981 35.1161 59.0218 33.5609L60.2709 24.8754C60.3571 24.2756 60.1603 23.6698 59.7379 23.2352L53.6222 16.9427C52.5271 15.816 53.1422 13.9231 54.6904 13.6552L63.3368 12.1592C63.9338 12.0559 64.4492 11.6815 64.7319 11.1456L68.8266 3.38467Z" fill="#FFBD3E" fill-opacity="0.3"/>
<path d="M118.863 3.38467C119.596 1.995 121.587 1.995 122.32 3.38467L126.415 11.1456C126.697 11.6815 127.213 12.0559 127.81 12.1592L136.456 13.6552C138.004 13.9231 138.619 15.816 137.524 16.9427L131.409 23.2352C130.986 23.6698 130.789 24.2756 130.876 24.8754L132.125 33.5609C132.348 35.1161 130.738 36.2859 129.328 35.5926L121.454 31.7207C120.91 31.4534 120.273 31.4534 119.729 31.7207L111.855 35.5926C110.445 36.2859 108.835 35.1161 109.058 33.5609L110.307 24.8754C110.394 24.2756 110.197 23.6698 109.775 23.2352L103.659 16.9427C102.564 15.816 103.179 13.9231 104.727 13.6552L113.373 12.1592C113.97 12.0559 114.486 11.6815 114.769 11.1456L118.863 3.38467Z" fill="#FFBD3E" fill-opacity="0.3"/>
<path d="M168.9 3.38467C169.633 1.995 171.623 1.995 172.357 3.38467L176.451 11.1456C176.734 11.6815 177.249 12.0559 177.846 12.1592L186.493 13.6552C188.041 13.9231 188.656 15.816 187.561 16.9427L181.445 23.2352C181.023 23.6698 180.826 24.2756 180.912 24.8754L182.161 33.5609C182.385 35.1161 180.775 36.2859 179.365 35.5926L171.49 31.7207C170.947 31.4534 170.31 31.4534 169.766 31.7207L161.892 35.5926C160.482 36.2859 158.871 35.1161 159.095 33.5609L160.344 24.8754C160.43 24.2756 160.233 23.6698 159.811 23.2352L153.695 16.9427C152.6 15.816 153.215 13.9231 154.764 13.6552L163.41 12.1592C164.007 12.0559 164.522 11.6815 164.805 11.1456L168.9 3.38467Z" fill="#FFBD3E" fill-opacity="0.3"/>
<path d="M218.936 3.38467C219.67 1.995 221.66 1.995 222.393 3.38467L226.488 11.1456C226.771 11.6815 227.286 12.0559 227.883 12.1592L236.529 13.6552C238.078 13.9231 238.693 15.816 237.598 16.9427L231.482 23.2352C231.06 23.6698 230.863 24.2756 230.949 24.8754L232.198 33.5609C232.422 35.1161 230.811 36.2859 229.401 35.5926L221.527 31.7207C220.983 31.4534 220.346 31.4534 219.803 31.7207L211.928 35.5926C210.518 36.2859 208.908 35.1161 209.132 33.5609L210.381 24.8754C210.467 24.2756 210.27 23.6698 209.848 23.2352L203.732 16.9427C202.637 15.816 203.252 13.9231 204.8 13.6552L213.447 12.1592C214.044 12.0559 214.559 11.6815 214.842 11.1456L218.936 3.38467Z" fill="#FFBD3E" fill-opacity="0.3"/>
</svg>
