<svg width="18" height="18" viewBox="0 0 18 18" fill="none" xmlns="http://www.w3.org/2000/svg">
<path d="M17.2794 6.79656C17.2358 6.93731 17.1775 7.18483 17.0708 7.41294C16.8523 7.87887 16.6097 8.33509 16.3719 8.7913C16.2991 8.93205 16.2991 9.05824 16.3719 9.19899C16.6097 9.65035 16.8378 10.1066 17.0659 10.5579C17.493 11.4024 17.2212 12.2469 16.3816 12.6837C15.9545 12.907 15.5274 13.1351 15.0906 13.3389C14.8819 13.436 14.7848 13.5719 14.7557 13.7951C14.6877 14.295 14.6052 14.7901 14.5227 15.2851C14.382 16.1296 13.6443 16.6635 12.8046 16.5422C12.3047 16.4694 11.8097 16.3917 11.3146 16.3043C11.0962 16.2655 10.9312 16.3043 10.7759 16.4742C10.441 16.8334 10.0867 17.1731 9.73728 17.5177C9.08208 18.1632 8.18905 18.1583 7.53385 17.5177C7.1844 17.1731 6.83011 16.8334 6.49522 16.4742C6.33506 16.2995 6.17004 16.2704 5.95164 16.3092C5.45174 16.3966 4.94699 16.4742 4.44224 16.547C3.64143 16.6683 2.88916 16.1248 2.74841 15.324C2.66105 14.8144 2.57854 14.3047 2.51059 13.7951C2.48147 13.5816 2.39896 13.4408 2.19512 13.3486C1.75832 13.1448 1.33122 12.9118 0.899267 12.6934C0.0499245 12.2615 -0.231571 11.4121 0.20038 10.5628C0.428489 10.1066 0.661452 9.65521 0.894414 9.20384C0.967215 9.06309 0.967215 8.9369 0.894414 8.79616C0.656599 8.34479 0.428489 7.88857 0.20038 7.43721C-0.226718 6.58301 0.0499237 5.73852 0.90412 5.30657C1.33607 5.08817 1.75832 4.86006 2.19512 4.65137C2.38926 4.55915 2.47662 4.42811 2.50574 4.21941C2.57369 3.71466 2.65619 3.20991 2.74355 2.71001C2.8843 1.87038 3.62202 1.33165 4.46165 1.45784C4.96155 1.53064 5.4566 1.60829 5.95164 1.69565C6.17004 1.73448 6.33506 1.69565 6.49037 1.52578C6.82525 1.16663 7.17955 0.826897 7.52899 0.482307C8.17935 -0.163193 9.07722 -0.15834 9.73243 0.482307C10.0819 0.826897 10.4362 1.16663 10.7711 1.52578C10.9215 1.6908 11.0817 1.73448 11.2952 1.69565C11.8048 1.60344 12.3144 1.53064 12.824 1.45298C13.6248 1.33165 14.3771 1.87523 14.5179 2.67604C14.6052 3.18564 14.6877 3.69525 14.7557 4.20485C14.7848 4.4184 14.8673 4.5543 15.0712 4.65137C15.5371 4.86977 15.9982 5.10758 16.4495 5.35025C16.9785 5.63175 17.2406 6.09282 17.2746 6.80142L17.2794 6.79656ZM7.64062 10.092C7.58238 10.0095 7.54355 9.94641 7.49502 9.89788C7.05336 9.45136 6.6117 9.00485 6.16519 8.56805C5.89826 8.30597 5.51969 8.30596 5.26731 8.55349C5.01979 8.80101 5.01494 9.18928 5.27702 9.45136C5.91767 10.0969 6.55832 10.7424 7.20382 11.3782C7.48531 11.6548 7.84932 11.6499 8.12596 11.3733C9.41211 10.092 10.6983 8.80586 11.9795 7.51972C12.2513 7.24307 12.261 6.86451 12.0135 6.60728C11.7563 6.3452 11.3729 6.3549 11.0914 6.6364C10.3343 7.38868 9.58197 8.14095 8.8297 8.89808C8.44628 9.28149 8.06287 9.66977 7.64062 10.0969V10.092Z" fill="#64B2FF"/>
</svg>
